%TF.GenerationSoftware,KiCad,Pcbnew,(5.1.6)-1*%
%TF.CreationDate,2021-01-31T10:28:18+01:00*%
%TF.ProjectId,lcd timer with arduino,6c636420-7469-46d6-9572-207769746820,rev?*%
%TF.SameCoordinates,Original*%
%TF.FileFunction,Copper,L1,Top*%
%TF.FilePolarity,Positive*%
%FSLAX46Y46*%
G04 Gerber Fmt 4.6, Leading zero omitted, Abs format (unit mm)*
G04 Created by KiCad (PCBNEW (5.1.6)-1) date 2021-01-31 10:28:18*
%MOMM*%
%LPD*%
G01*
G04 APERTURE LIST*
%TA.AperFunction,ComponentPad*%
%ADD10O,1.350000X2.000000*%
%TD*%
%TA.AperFunction,ComponentPad*%
%ADD11R,1.350000X2.000000*%
%TD*%
%TA.AperFunction,ComponentPad*%
%ADD12O,2.000000X2.000000*%
%TD*%
%TA.AperFunction,ComponentPad*%
%ADD13R,2.000000X2.000000*%
%TD*%
%TA.AperFunction,ComponentPad*%
%ADD14C,3.000000*%
%TD*%
%TA.AperFunction,ComponentPad*%
%ADD15R,3.000000X3.000000*%
%TD*%
%TA.AperFunction,ComponentPad*%
%ADD16R,2.000000X1.500000*%
%TD*%
%TA.AperFunction,ComponentPad*%
%ADD17C,2.000000*%
%TD*%
%TA.AperFunction,ComponentPad*%
%ADD18C,1.800000*%
%TD*%
%TA.AperFunction,ComponentPad*%
%ADD19C,1.000000*%
%TD*%
%TA.AperFunction,ComponentPad*%
%ADD20O,1.800000X2.600000*%
%TD*%
%TA.AperFunction,ComponentPad*%
%ADD21R,1.800000X2.600000*%
%TD*%
%TA.AperFunction,ComponentPad*%
%ADD22O,1.600000X1.600000*%
%TD*%
%TA.AperFunction,ComponentPad*%
%ADD23C,1.600000*%
%TD*%
%TA.AperFunction,ComponentPad*%
%ADD24O,1.600000X2.000000*%
%TD*%
%TA.AperFunction,ComponentPad*%
%ADD25R,1.600000X2.000000*%
%TD*%
%TA.AperFunction,ComponentPad*%
%ADD26C,2.340000*%
%TD*%
%TA.AperFunction,ComponentPad*%
%ADD27C,2.500000*%
%TD*%
%TA.AperFunction,ComponentPad*%
%ADD28O,3.960000X1.980000*%
%TD*%
%TA.AperFunction,ComponentPad*%
%ADD29R,3.960000X1.980000*%
%TD*%
%TA.AperFunction,ComponentPad*%
%ADD30O,1.980000X3.960000*%
%TD*%
%TA.AperFunction,ComponentPad*%
%ADD31R,1.980000X3.960000*%
%TD*%
%TA.AperFunction,ViaPad*%
%ADD32C,1.500000*%
%TD*%
%TA.AperFunction,Conductor*%
%ADD33C,1.000000*%
%TD*%
G04 APERTURE END LIST*
D10*
%TO.P,J1,5*%
%TO.N,-*%
X82678000Y-80581500D03*
%TO.P,J1,4*%
%TO.N,+*%
X84678000Y-80581500D03*
%TO.P,J1,3*%
%TO.N,sw*%
X86678000Y-80581500D03*
%TO.P,J1,2*%
%TO.N,dt*%
X88678000Y-80581500D03*
D11*
%TO.P,J1,1*%
%TO.N,clk*%
X90678000Y-80581500D03*
%TD*%
D12*
%TO.P,D3,2*%
%TO.N,Net-(D3-Pad2)*%
X150558500Y-28321000D03*
D13*
%TO.P,D3,1*%
%TO.N,+*%
X150558500Y-23241000D03*
%TD*%
D14*
%TO.P,BZ1,2*%
%TO.N,-*%
X108895200Y-82397600D03*
D15*
%TO.P,BZ1,1*%
%TO.N,Net-(A1-Pad16)*%
X101295200Y-82397600D03*
%TD*%
D16*
%TO.P,Q4,1*%
%TO.N,-*%
X138430000Y-73660000D03*
D17*
%TO.P,Q4,3*%
%TO.N,Net-(Q4-Pad3)*%
X138430000Y-78740000D03*
D18*
%TO.P,Q4,2*%
%TO.N,on2*%
X138430000Y-76200000D03*
%TD*%
D16*
%TO.P,Q3,1*%
%TO.N,-*%
X138557000Y-56705500D03*
D17*
%TO.P,Q3,3*%
%TO.N,Net-(Q3-Pad3)*%
X138557000Y-61785500D03*
D18*
%TO.P,Q3,2*%
%TO.N,on1*%
X138557000Y-59245500D03*
%TD*%
D16*
%TO.P,Q2,1*%
%TO.N,-*%
X138811000Y-40767000D03*
D17*
%TO.P,Q2,3*%
%TO.N,Net-(Q2-Pad3)*%
X138811000Y-45847000D03*
D18*
%TO.P,Q2,2*%
%TO.N,on4*%
X138811000Y-43307000D03*
%TD*%
D16*
%TO.P,Q1,1*%
%TO.N,-*%
X138747500Y-24130000D03*
D17*
%TO.P,Q1,3*%
%TO.N,Net-(Q1-Pad3)*%
X138747500Y-29210000D03*
D18*
%TO.P,Q1,2*%
%TO.N,on3*%
X138747500Y-26670000D03*
%TD*%
D19*
%TO.P,DS1,*%
%TO.N,*%
X146494500Y-18415000D03*
X146493980Y-49415700D03*
D14*
X71495400Y-49415700D03*
X71495400Y-18415000D03*
D20*
%TO.P,DS1,16*%
%TO.N,-*%
X115094500Y-18415000D03*
%TO.P,DS1,15*%
%TO.N,Net-(DS1-Pad15)*%
X112554500Y-18415000D03*
%TO.P,DS1,14*%
%TO.N,D2*%
X110014500Y-18415000D03*
%TO.P,DS1,13*%
%TO.N,D3*%
X107474500Y-18415000D03*
%TO.P,DS1,12*%
%TO.N,D4*%
X104934500Y-18415000D03*
%TO.P,DS1,11*%
%TO.N,D5*%
X102394500Y-18415000D03*
%TO.P,DS1,10*%
%TO.N,Net-(DS1-Pad10)*%
X99854500Y-18415000D03*
%TO.P,DS1,9*%
%TO.N,Net-(DS1-Pad9)*%
X97314500Y-18415000D03*
%TO.P,DS1,8*%
%TO.N,Net-(DS1-Pad8)*%
X94774500Y-18415000D03*
%TO.P,DS1,7*%
%TO.N,Net-(DS1-Pad7)*%
X92234500Y-18415000D03*
%TO.P,DS1,6*%
%TO.N,D11*%
X89694500Y-18415000D03*
%TO.P,DS1,5*%
%TO.N,-*%
X87154500Y-18415000D03*
%TO.P,DS1,4*%
%TO.N,D12*%
X84614500Y-18415000D03*
%TO.P,DS1,3*%
%TO.N,-*%
X82074500Y-18415000D03*
%TO.P,DS1,2*%
%TO.N,+*%
X79534500Y-18415000D03*
D21*
%TO.P,DS1,1*%
%TO.N,-*%
X76994500Y-18415000D03*
%TD*%
D22*
%TO.P,R4,2*%
%TO.N,Net-(R4-Pad2)*%
X137033000Y-66865500D03*
D23*
%TO.P,R4,1*%
%TO.N,+*%
X149733000Y-66865500D03*
%TD*%
D22*
%TO.P,R3,2*%
%TO.N,Net-(R3-Pad2)*%
X136906000Y-50292000D03*
D23*
%TO.P,R3,1*%
%TO.N,+*%
X149606000Y-50292000D03*
%TD*%
D22*
%TO.P,R2,2*%
%TO.N,Net-(R2-Pad2)*%
X137223500Y-34417000D03*
D23*
%TO.P,R2,1*%
%TO.N,+*%
X149923500Y-34417000D03*
%TD*%
D12*
%TO.P,R1,2*%
%TO.N,Net-(R1-Pad2)*%
X137541000Y-18161000D03*
D17*
%TO.P,R1,1*%
%TO.N,+*%
X150241000Y-18161000D03*
%TD*%
D12*
%TO.P,D4,2*%
%TO.N,Net-(D4-Pad2)*%
X150495000Y-44767500D03*
D13*
%TO.P,D4,1*%
%TO.N,+*%
X150495000Y-39687500D03*
%TD*%
D12*
%TO.P,D2,2*%
%TO.N,Net-(D2-Pad2)*%
X150241000Y-77978000D03*
D13*
%TO.P,D2,1*%
%TO.N,+*%
X150241000Y-72898000D03*
%TD*%
D12*
%TO.P,D1,2*%
%TO.N,Net-(D1-Pad2)*%
X150304500Y-60833000D03*
D13*
%TO.P,D1,1*%
%TO.N,+*%
X150304500Y-55753000D03*
%TD*%
D24*
%TO.P,A1,16*%
%TO.N,Net-(A1-Pad16)*%
X87693500Y-70929500D03*
%TO.P,A1,15*%
%TO.N,D12*%
X87693500Y-55689500D03*
%TO.P,A1,30*%
%TO.N,+*%
X123253500Y-70929500D03*
%TO.P,A1,14*%
%TO.N,D11*%
X90233500Y-55689500D03*
%TO.P,A1,29*%
%TO.N,-*%
X120713500Y-70929500D03*
%TO.P,A1,13*%
%TO.N,sw*%
X92773500Y-55689500D03*
%TO.P,A1,28*%
%TO.N,Net-(A1-Pad28)*%
X118173500Y-70929500D03*
%TO.P,A1,12*%
%TO.N,dt*%
X95313500Y-55689500D03*
%TO.P,A1,27*%
%TO.N,Net-(A1-Pad27)*%
X115633500Y-70929500D03*
%TO.P,A1,11*%
%TO.N,clk*%
X97853500Y-55689500D03*
%TO.P,A1,26*%
%TO.N,Net-(A1-Pad26)*%
X113093500Y-70929500D03*
%TO.P,A1,10*%
%TO.N,on2*%
X100393500Y-55689500D03*
%TO.P,A1,25*%
%TO.N,Net-(A1-Pad25)*%
X110553500Y-70929500D03*
%TO.P,A1,9*%
%TO.N,on1*%
X102933500Y-55689500D03*
%TO.P,A1,24*%
%TO.N,Net-(A1-Pad24)*%
X108013500Y-70929500D03*
%TO.P,A1,8*%
%TO.N,D5*%
X105473500Y-55689500D03*
%TO.P,A1,23*%
%TO.N,Net-(A1-Pad23)*%
X105473500Y-70929500D03*
%TO.P,A1,7*%
%TO.N,D4*%
X108013500Y-55689500D03*
%TO.P,A1,22*%
%TO.N,Net-(A1-Pad22)*%
X102933500Y-70929500D03*
%TO.P,A1,6*%
%TO.N,D3*%
X110553500Y-55689500D03*
%TO.P,A1,21*%
%TO.N,Net-(A1-Pad21)*%
X100393500Y-70929500D03*
%TO.P,A1,5*%
%TO.N,D2*%
X113093500Y-55689500D03*
%TO.P,A1,20*%
%TO.N,on3*%
X97853500Y-70929500D03*
%TO.P,A1,4*%
%TO.N,-*%
X115633500Y-55689500D03*
%TO.P,A1,19*%
%TO.N,on4*%
X95313500Y-70929500D03*
%TO.P,A1,3*%
%TO.N,Net-(A1-Pad3)*%
X118173500Y-55689500D03*
%TO.P,A1,18*%
%TO.N,Net-(A1-Pad18)*%
X92773500Y-70929500D03*
%TO.P,A1,2*%
%TO.N,Net-(A1-Pad2)*%
X120713500Y-55689500D03*
%TO.P,A1,17*%
%TO.N,Net-(A1-Pad17)*%
X90233500Y-70929500D03*
D25*
%TO.P,A1,1*%
%TO.N,Net-(A1-Pad1)*%
X123253500Y-55689500D03*
%TD*%
D24*
%TO.P,U4,4*%
%TO.N,+*%
X143891000Y-71437500D03*
%TO.P,U4,2*%
%TO.N,Net-(Q4-Pad3)*%
X146431000Y-79057500D03*
%TO.P,U4,3*%
%TO.N,Net-(D2-Pad2)*%
X146431000Y-71437500D03*
D25*
%TO.P,U4,1*%
%TO.N,Net-(R4-Pad2)*%
X143891000Y-79057500D03*
%TD*%
D24*
%TO.P,U3,4*%
%TO.N,+*%
X143827500Y-54673500D03*
%TO.P,U3,2*%
%TO.N,Net-(Q3-Pad3)*%
X146367500Y-62293500D03*
%TO.P,U3,3*%
%TO.N,Net-(D1-Pad2)*%
X146367500Y-54673500D03*
D25*
%TO.P,U3,1*%
%TO.N,Net-(R3-Pad2)*%
X143827500Y-62293500D03*
%TD*%
D24*
%TO.P,U2,4*%
%TO.N,+*%
X144018000Y-38227000D03*
%TO.P,U2,2*%
%TO.N,Net-(Q2-Pad3)*%
X146558000Y-45847000D03*
%TO.P,U2,3*%
%TO.N,Net-(D4-Pad2)*%
X146558000Y-38227000D03*
D25*
%TO.P,U2,1*%
%TO.N,Net-(R2-Pad2)*%
X144018000Y-45847000D03*
%TD*%
D24*
%TO.P,U1,4*%
%TO.N,+*%
X144145000Y-21971000D03*
%TO.P,U1,2*%
%TO.N,Net-(Q1-Pad3)*%
X146685000Y-29591000D03*
%TO.P,U1,3*%
%TO.N,Net-(D3-Pad2)*%
X146685000Y-21971000D03*
D25*
%TO.P,U1,1*%
%TO.N,Net-(R1-Pad2)*%
X144145000Y-29591000D03*
%TD*%
D26*
%TO.P,RV1,1*%
%TO.N,+*%
X100139500Y-35242500D03*
%TO.P,RV1,2*%
%TO.N,Net-(DS1-Pad15)*%
X110139500Y-32742500D03*
%TO.P,RV1,3*%
%TO.N,Net-(RV1-Pad3)*%
X100139500Y-30242500D03*
%TD*%
D14*
%TO.P,K4,1*%
%TO.N,Net-(J4-Pad2)*%
X153860500Y-74231500D03*
D27*
%TO.P,K4,5*%
%TO.N,-*%
X155810500Y-68281500D03*
D14*
%TO.P,K4,4*%
%TO.N,Net-(K4-Pad4)*%
X168060500Y-68231500D03*
%TO.P,K4,3*%
%TO.N,Net-(J4-Pad1)*%
X168010500Y-80281500D03*
D27*
%TO.P,K4,2*%
%TO.N,Net-(D2-Pad2)*%
X155810500Y-80281500D03*
%TD*%
D14*
%TO.P,K3,1*%
%TO.N,Net-(J3-Pad2)*%
X153733500Y-57912000D03*
D27*
%TO.P,K3,5*%
%TO.N,-*%
X155683500Y-51962000D03*
D14*
%TO.P,K3,4*%
%TO.N,Net-(K3-Pad4)*%
X167933500Y-51912000D03*
%TO.P,K3,3*%
%TO.N,Net-(J3-Pad1)*%
X167883500Y-63962000D03*
D27*
%TO.P,K3,2*%
%TO.N,Net-(D1-Pad2)*%
X155683500Y-63962000D03*
%TD*%
D14*
%TO.P,K2,1*%
%TO.N,Net-(J2-Pad2)*%
X153694000Y-41687000D03*
D27*
%TO.P,K2,5*%
%TO.N,-*%
X155644000Y-35737000D03*
D14*
%TO.P,K2,4*%
%TO.N,Net-(K2-Pad4)*%
X167894000Y-35687000D03*
%TO.P,K2,3*%
%TO.N,Net-(J2-Pad1)*%
X167844000Y-47737000D03*
D27*
%TO.P,K2,2*%
%TO.N,Net-(D4-Pad2)*%
X155644000Y-47737000D03*
%TD*%
D14*
%TO.P,K1,1*%
%TO.N,Net-(K1-Pad1)*%
X153670000Y-25400000D03*
D27*
%TO.P,K1,5*%
%TO.N,-*%
X155620000Y-19450000D03*
D14*
%TO.P,K1,4*%
%TO.N,Net-(K1-Pad4)*%
X167870000Y-19400000D03*
%TO.P,K1,3*%
%TO.N,Net-(K1-Pad3)*%
X167820000Y-31450000D03*
D27*
%TO.P,K1,2*%
%TO.N,Net-(D3-Pad2)*%
X155620000Y-31450000D03*
%TD*%
D28*
%TO.P,J4,2*%
%TO.N,Net-(J4-Pad2)*%
X179006500Y-72343000D03*
D29*
%TO.P,J4,1*%
%TO.N,Net-(J4-Pad1)*%
X179006500Y-77343000D03*
%TD*%
D28*
%TO.P,J3,2*%
%TO.N,Net-(J3-Pad2)*%
X178943000Y-56214000D03*
D29*
%TO.P,J3,1*%
%TO.N,Net-(J3-Pad1)*%
X178943000Y-61214000D03*
%TD*%
D28*
%TO.P,j2,2*%
%TO.N,Net-(K1-Pad1)*%
X179006500Y-23575000D03*
D29*
%TO.P,j2,1*%
%TO.N,Net-(K1-Pad3)*%
X179006500Y-28575000D03*
%TD*%
D28*
%TO.P,J2,2*%
%TO.N,Net-(J2-Pad2)*%
X178816000Y-40339000D03*
D29*
%TO.P,J2,1*%
%TO.N,Net-(J2-Pad1)*%
X178816000Y-45339000D03*
%TD*%
D30*
%TO.P,j1,2*%
%TO.N,+*%
X125269000Y-79565500D03*
D31*
%TO.P,j1,1*%
%TO.N,-*%
X120269000Y-79565500D03*
%TD*%
D32*
%TO.N,+*%
X93662500Y-25336500D03*
X81788000Y-25336500D03*
%TO.N,-*%
X129743200Y-58623200D03*
X122428004Y-58623200D03*
%TO.N,on2*%
X125018800Y-66395600D03*
X114808000Y-64820800D03*
%TO.N,on1*%
X129946400Y-60909200D03*
X120961636Y-60319077D03*
%TO.N,on4*%
X136372600Y-43307000D03*
X124891800Y-43307000D03*
%TO.N,on3*%
X136144000Y-26670000D03*
X131978400Y-26670000D03*
%TD*%
D33*
%TO.N,+*%
X93662500Y-25336500D02*
X81788000Y-25336500D01*
%TO.N,-*%
X129743200Y-58623200D02*
X122428004Y-58623200D01*
%TO.N,on2*%
X125018800Y-66395600D02*
X116382800Y-66395600D01*
X116382800Y-66395600D02*
X114808000Y-64820800D01*
%TO.N,on1*%
X121043759Y-60401200D02*
X120961636Y-60319077D01*
X129946400Y-60909200D02*
X129438400Y-60401200D01*
X129438400Y-60401200D02*
X121043759Y-60401200D01*
%TO.N,on4*%
X136372600Y-43307000D02*
X124891800Y-43307000D01*
%TO.N,on3*%
X136144000Y-26670000D02*
X131978400Y-26670000D01*
%TD*%
M02*
