M48
; DRILL file {KiCad (5.1.6)-1} date 01/31/21 10:24:13
; FORMAT={-:-/ absolute / metric / decimal}
; #@! TF.CreationDate,2021-01-31T10:24:13+01:00
; #@! TF.GenerationSoftware,Kicad,Pcbnew,(5.1.6)-1
; #@! TF.FileFunction,Plated,1,2,PTH
FMAT,2
METRIC
T1C0.800
T2C1.000
T3C1.300
T4C1.320
T5C2.500
%
G90
G05
T1
X81.788Y-25.336
X93.662Y-25.336
X114.808Y-64.821
X120.962Y-60.319
X122.428Y-58.623
X124.892Y-43.307
X125.019Y-66.396
X129.743Y-58.623
X129.946Y-60.909
X131.978Y-26.67
X136.144Y-26.67
X136.373Y-43.307
X144.018Y-38.227
X144.018Y-45.847
X146.558Y-38.227
X146.558Y-45.847
X138.748Y-24.13
X138.748Y-26.67
X138.748Y-29.21
X82.678Y-80.581
X84.678Y-80.581
X86.678Y-80.581
X88.678Y-80.581
X90.678Y-80.581
X144.145Y-21.971
X144.145Y-29.591
X146.685Y-21.971
X146.685Y-29.591
X143.891Y-71.438
X143.891Y-79.057
X146.431Y-71.438
X146.431Y-79.057
X143.827Y-54.673
X143.827Y-62.293
X146.368Y-54.673
X146.368Y-62.293
X137.224Y-34.417
X149.923Y-34.417
X87.694Y-55.689
X87.694Y-70.929
X90.233Y-55.689
X90.233Y-70.929
X92.773Y-55.689
X92.773Y-70.929
X95.313Y-55.689
X95.313Y-70.929
X97.853Y-55.689
X97.853Y-70.929
X100.393Y-55.689
X100.393Y-70.929
X102.933Y-55.689
X102.933Y-70.929
X105.474Y-55.689
X105.474Y-70.929
X108.013Y-55.689
X108.013Y-70.929
X110.553Y-55.689
X110.553Y-70.929
X113.093Y-55.689
X113.093Y-70.929
X115.633Y-55.689
X115.633Y-70.929
X118.173Y-55.689
X118.173Y-70.929
X120.713Y-55.689
X120.713Y-70.929
X123.253Y-55.689
X123.253Y-70.929
X138.811Y-40.767
X138.811Y-43.307
X138.811Y-45.847
X136.906Y-50.292
X149.606Y-50.292
X138.557Y-56.706
X138.557Y-59.245
X138.557Y-61.785
X76.995Y-18.415
X79.534Y-18.415
X82.075Y-18.415
X84.614Y-18.415
X87.154Y-18.415
X89.694Y-18.415
X92.234Y-18.415
X94.774Y-18.415
X97.314Y-18.415
X99.855Y-18.415
X102.394Y-18.415
X104.934Y-18.415
X107.474Y-18.415
X110.014Y-18.415
X112.554Y-18.415
X115.094Y-18.415
X137.541Y-18.161
X150.241Y-18.161
X138.43Y-73.66
X138.43Y-76.2
X138.43Y-78.74
X137.033Y-66.865
X149.733Y-66.865
T2
X101.295Y-82.398
X108.895Y-82.398
X150.495Y-39.688
X150.495Y-44.767
X155.644Y-35.737
X155.644Y-47.737
X150.304Y-55.753
X150.304Y-60.833
X150.241Y-72.898
X150.241Y-77.978
X150.558Y-23.241
X150.558Y-28.321
X146.494Y-49.416
X146.494Y-18.415
X155.683Y-51.962
X155.683Y-63.962
X155.81Y-68.281
X155.81Y-80.281
X100.139Y-30.242
X100.139Y-35.242
X110.139Y-32.742
X155.62Y-19.45
X155.62Y-31.45
T3
X153.67Y-25.4
X167.82Y-31.45
X167.87Y-19.4
X153.694Y-41.687
X167.844Y-47.737
X167.894Y-35.687
X153.733Y-57.912
X167.883Y-63.962
X167.933Y-51.912
X153.861Y-74.231
X168.01Y-80.281
X168.06Y-68.231
T4
X178.816Y-40.339
X178.816Y-45.339
X120.269Y-79.566
X125.269Y-79.566
X179.006Y-72.343
X179.006Y-77.343
X179.006Y-23.575
X179.006Y-28.575
X178.943Y-56.214
X178.943Y-61.214
T5
X71.495Y-18.415
X71.495Y-49.416
T0
M30
