%TF.GenerationSoftware,KiCad,Pcbnew,(5.1.6)-1*%
%TF.CreationDate,2021-01-31T10:28:18+01:00*%
%TF.ProjectId,lcd timer with arduino,6c636420-7469-46d6-9572-207769746820,rev?*%
%TF.SameCoordinates,Original*%
%TF.FileFunction,Copper,L2,Bot*%
%TF.FilePolarity,Positive*%
%FSLAX46Y46*%
G04 Gerber Fmt 4.6, Leading zero omitted, Abs format (unit mm)*
G04 Created by KiCad (PCBNEW (5.1.6)-1) date 2021-01-31 10:28:18*
%MOMM*%
%LPD*%
G01*
G04 APERTURE LIST*
%TA.AperFunction,ComponentPad*%
%ADD10O,1.350000X2.000000*%
%TD*%
%TA.AperFunction,ComponentPad*%
%ADD11R,1.350000X2.000000*%
%TD*%
%TA.AperFunction,ComponentPad*%
%ADD12O,2.000000X2.000000*%
%TD*%
%TA.AperFunction,ComponentPad*%
%ADD13R,2.000000X2.000000*%
%TD*%
%TA.AperFunction,ComponentPad*%
%ADD14C,3.000000*%
%TD*%
%TA.AperFunction,ComponentPad*%
%ADD15R,3.000000X3.000000*%
%TD*%
%TA.AperFunction,ComponentPad*%
%ADD16R,2.000000X1.500000*%
%TD*%
%TA.AperFunction,ComponentPad*%
%ADD17C,2.000000*%
%TD*%
%TA.AperFunction,ComponentPad*%
%ADD18C,1.800000*%
%TD*%
%TA.AperFunction,ComponentPad*%
%ADD19C,1.000000*%
%TD*%
%TA.AperFunction,ComponentPad*%
%ADD20O,1.800000X2.600000*%
%TD*%
%TA.AperFunction,ComponentPad*%
%ADD21R,1.800000X2.600000*%
%TD*%
%TA.AperFunction,ComponentPad*%
%ADD22O,1.600000X1.600000*%
%TD*%
%TA.AperFunction,ComponentPad*%
%ADD23C,1.600000*%
%TD*%
%TA.AperFunction,ComponentPad*%
%ADD24O,1.600000X2.000000*%
%TD*%
%TA.AperFunction,ComponentPad*%
%ADD25R,1.600000X2.000000*%
%TD*%
%TA.AperFunction,ComponentPad*%
%ADD26C,2.340000*%
%TD*%
%TA.AperFunction,ComponentPad*%
%ADD27C,2.500000*%
%TD*%
%TA.AperFunction,ComponentPad*%
%ADD28O,3.960000X1.980000*%
%TD*%
%TA.AperFunction,ComponentPad*%
%ADD29R,3.960000X1.980000*%
%TD*%
%TA.AperFunction,ComponentPad*%
%ADD30O,1.980000X3.960000*%
%TD*%
%TA.AperFunction,ComponentPad*%
%ADD31R,1.980000X3.960000*%
%TD*%
%TA.AperFunction,ViaPad*%
%ADD32C,1.500000*%
%TD*%
%TA.AperFunction,Conductor*%
%ADD33C,1.000000*%
%TD*%
%TA.AperFunction,Conductor*%
%ADD34C,0.600000*%
%TD*%
%TA.AperFunction,Conductor*%
%ADD35C,0.254000*%
%TD*%
G04 APERTURE END LIST*
D10*
%TO.P,J1,5*%
%TO.N,-*%
X82678000Y-80581500D03*
%TO.P,J1,4*%
%TO.N,+*%
X84678000Y-80581500D03*
%TO.P,J1,3*%
%TO.N,sw*%
X86678000Y-80581500D03*
%TO.P,J1,2*%
%TO.N,dt*%
X88678000Y-80581500D03*
D11*
%TO.P,J1,1*%
%TO.N,clk*%
X90678000Y-80581500D03*
%TD*%
D12*
%TO.P,D3,2*%
%TO.N,Net-(D3-Pad2)*%
X150558500Y-28321000D03*
D13*
%TO.P,D3,1*%
%TO.N,+*%
X150558500Y-23241000D03*
%TD*%
D14*
%TO.P,BZ1,2*%
%TO.N,-*%
X108895200Y-82397600D03*
D15*
%TO.P,BZ1,1*%
%TO.N,Net-(A1-Pad16)*%
X101295200Y-82397600D03*
%TD*%
D16*
%TO.P,Q4,1*%
%TO.N,-*%
X138430000Y-73660000D03*
D17*
%TO.P,Q4,3*%
%TO.N,Net-(Q4-Pad3)*%
X138430000Y-78740000D03*
D18*
%TO.P,Q4,2*%
%TO.N,on2*%
X138430000Y-76200000D03*
%TD*%
D16*
%TO.P,Q3,1*%
%TO.N,-*%
X138557000Y-56705500D03*
D17*
%TO.P,Q3,3*%
%TO.N,Net-(Q3-Pad3)*%
X138557000Y-61785500D03*
D18*
%TO.P,Q3,2*%
%TO.N,on1*%
X138557000Y-59245500D03*
%TD*%
D16*
%TO.P,Q2,1*%
%TO.N,-*%
X138811000Y-40767000D03*
D17*
%TO.P,Q2,3*%
%TO.N,Net-(Q2-Pad3)*%
X138811000Y-45847000D03*
D18*
%TO.P,Q2,2*%
%TO.N,on4*%
X138811000Y-43307000D03*
%TD*%
D16*
%TO.P,Q1,1*%
%TO.N,-*%
X138747500Y-24130000D03*
D17*
%TO.P,Q1,3*%
%TO.N,Net-(Q1-Pad3)*%
X138747500Y-29210000D03*
D18*
%TO.P,Q1,2*%
%TO.N,on3*%
X138747500Y-26670000D03*
%TD*%
D19*
%TO.P,DS1,*%
%TO.N,*%
X146494500Y-18415000D03*
X146493980Y-49415700D03*
D14*
X71495400Y-49415700D03*
X71495400Y-18415000D03*
D20*
%TO.P,DS1,16*%
%TO.N,-*%
X115094500Y-18415000D03*
%TO.P,DS1,15*%
%TO.N,Net-(DS1-Pad15)*%
X112554500Y-18415000D03*
%TO.P,DS1,14*%
%TO.N,D2*%
X110014500Y-18415000D03*
%TO.P,DS1,13*%
%TO.N,D3*%
X107474500Y-18415000D03*
%TO.P,DS1,12*%
%TO.N,D4*%
X104934500Y-18415000D03*
%TO.P,DS1,11*%
%TO.N,D5*%
X102394500Y-18415000D03*
%TO.P,DS1,10*%
%TO.N,Net-(DS1-Pad10)*%
X99854500Y-18415000D03*
%TO.P,DS1,9*%
%TO.N,Net-(DS1-Pad9)*%
X97314500Y-18415000D03*
%TO.P,DS1,8*%
%TO.N,Net-(DS1-Pad8)*%
X94774500Y-18415000D03*
%TO.P,DS1,7*%
%TO.N,Net-(DS1-Pad7)*%
X92234500Y-18415000D03*
%TO.P,DS1,6*%
%TO.N,D11*%
X89694500Y-18415000D03*
%TO.P,DS1,5*%
%TO.N,-*%
X87154500Y-18415000D03*
%TO.P,DS1,4*%
%TO.N,D12*%
X84614500Y-18415000D03*
%TO.P,DS1,3*%
%TO.N,-*%
X82074500Y-18415000D03*
%TO.P,DS1,2*%
%TO.N,+*%
X79534500Y-18415000D03*
D21*
%TO.P,DS1,1*%
%TO.N,-*%
X76994500Y-18415000D03*
%TD*%
D22*
%TO.P,R4,2*%
%TO.N,Net-(R4-Pad2)*%
X137033000Y-66865500D03*
D23*
%TO.P,R4,1*%
%TO.N,+*%
X149733000Y-66865500D03*
%TD*%
D22*
%TO.P,R3,2*%
%TO.N,Net-(R3-Pad2)*%
X136906000Y-50292000D03*
D23*
%TO.P,R3,1*%
%TO.N,+*%
X149606000Y-50292000D03*
%TD*%
D22*
%TO.P,R2,2*%
%TO.N,Net-(R2-Pad2)*%
X137223500Y-34417000D03*
D23*
%TO.P,R2,1*%
%TO.N,+*%
X149923500Y-34417000D03*
%TD*%
D12*
%TO.P,R1,2*%
%TO.N,Net-(R1-Pad2)*%
X137541000Y-18161000D03*
D17*
%TO.P,R1,1*%
%TO.N,+*%
X150241000Y-18161000D03*
%TD*%
D12*
%TO.P,D4,2*%
%TO.N,Net-(D4-Pad2)*%
X150495000Y-44767500D03*
D13*
%TO.P,D4,1*%
%TO.N,+*%
X150495000Y-39687500D03*
%TD*%
D12*
%TO.P,D2,2*%
%TO.N,Net-(D2-Pad2)*%
X150241000Y-77978000D03*
D13*
%TO.P,D2,1*%
%TO.N,+*%
X150241000Y-72898000D03*
%TD*%
D12*
%TO.P,D1,2*%
%TO.N,Net-(D1-Pad2)*%
X150304500Y-60833000D03*
D13*
%TO.P,D1,1*%
%TO.N,+*%
X150304500Y-55753000D03*
%TD*%
D24*
%TO.P,A1,16*%
%TO.N,Net-(A1-Pad16)*%
X87693500Y-70929500D03*
%TO.P,A1,15*%
%TO.N,D12*%
X87693500Y-55689500D03*
%TO.P,A1,30*%
%TO.N,+*%
X123253500Y-70929500D03*
%TO.P,A1,14*%
%TO.N,D11*%
X90233500Y-55689500D03*
%TO.P,A1,29*%
%TO.N,-*%
X120713500Y-70929500D03*
%TO.P,A1,13*%
%TO.N,sw*%
X92773500Y-55689500D03*
%TO.P,A1,28*%
%TO.N,Net-(A1-Pad28)*%
X118173500Y-70929500D03*
%TO.P,A1,12*%
%TO.N,dt*%
X95313500Y-55689500D03*
%TO.P,A1,27*%
%TO.N,Net-(A1-Pad27)*%
X115633500Y-70929500D03*
%TO.P,A1,11*%
%TO.N,clk*%
X97853500Y-55689500D03*
%TO.P,A1,26*%
%TO.N,Net-(A1-Pad26)*%
X113093500Y-70929500D03*
%TO.P,A1,10*%
%TO.N,on2*%
X100393500Y-55689500D03*
%TO.P,A1,25*%
%TO.N,Net-(A1-Pad25)*%
X110553500Y-70929500D03*
%TO.P,A1,9*%
%TO.N,on1*%
X102933500Y-55689500D03*
%TO.P,A1,24*%
%TO.N,Net-(A1-Pad24)*%
X108013500Y-70929500D03*
%TO.P,A1,8*%
%TO.N,D5*%
X105473500Y-55689500D03*
%TO.P,A1,23*%
%TO.N,Net-(A1-Pad23)*%
X105473500Y-70929500D03*
%TO.P,A1,7*%
%TO.N,D4*%
X108013500Y-55689500D03*
%TO.P,A1,22*%
%TO.N,Net-(A1-Pad22)*%
X102933500Y-70929500D03*
%TO.P,A1,6*%
%TO.N,D3*%
X110553500Y-55689500D03*
%TO.P,A1,21*%
%TO.N,Net-(A1-Pad21)*%
X100393500Y-70929500D03*
%TO.P,A1,5*%
%TO.N,D2*%
X113093500Y-55689500D03*
%TO.P,A1,20*%
%TO.N,on3*%
X97853500Y-70929500D03*
%TO.P,A1,4*%
%TO.N,-*%
X115633500Y-55689500D03*
%TO.P,A1,19*%
%TO.N,on4*%
X95313500Y-70929500D03*
%TO.P,A1,3*%
%TO.N,Net-(A1-Pad3)*%
X118173500Y-55689500D03*
%TO.P,A1,18*%
%TO.N,Net-(A1-Pad18)*%
X92773500Y-70929500D03*
%TO.P,A1,2*%
%TO.N,Net-(A1-Pad2)*%
X120713500Y-55689500D03*
%TO.P,A1,17*%
%TO.N,Net-(A1-Pad17)*%
X90233500Y-70929500D03*
D25*
%TO.P,A1,1*%
%TO.N,Net-(A1-Pad1)*%
X123253500Y-55689500D03*
%TD*%
D24*
%TO.P,U4,4*%
%TO.N,+*%
X143891000Y-71437500D03*
%TO.P,U4,2*%
%TO.N,Net-(Q4-Pad3)*%
X146431000Y-79057500D03*
%TO.P,U4,3*%
%TO.N,Net-(D2-Pad2)*%
X146431000Y-71437500D03*
D25*
%TO.P,U4,1*%
%TO.N,Net-(R4-Pad2)*%
X143891000Y-79057500D03*
%TD*%
D24*
%TO.P,U3,4*%
%TO.N,+*%
X143827500Y-54673500D03*
%TO.P,U3,2*%
%TO.N,Net-(Q3-Pad3)*%
X146367500Y-62293500D03*
%TO.P,U3,3*%
%TO.N,Net-(D1-Pad2)*%
X146367500Y-54673500D03*
D25*
%TO.P,U3,1*%
%TO.N,Net-(R3-Pad2)*%
X143827500Y-62293500D03*
%TD*%
D24*
%TO.P,U2,4*%
%TO.N,+*%
X144018000Y-38227000D03*
%TO.P,U2,2*%
%TO.N,Net-(Q2-Pad3)*%
X146558000Y-45847000D03*
%TO.P,U2,3*%
%TO.N,Net-(D4-Pad2)*%
X146558000Y-38227000D03*
D25*
%TO.P,U2,1*%
%TO.N,Net-(R2-Pad2)*%
X144018000Y-45847000D03*
%TD*%
D24*
%TO.P,U1,4*%
%TO.N,+*%
X144145000Y-21971000D03*
%TO.P,U1,2*%
%TO.N,Net-(Q1-Pad3)*%
X146685000Y-29591000D03*
%TO.P,U1,3*%
%TO.N,Net-(D3-Pad2)*%
X146685000Y-21971000D03*
D25*
%TO.P,U1,1*%
%TO.N,Net-(R1-Pad2)*%
X144145000Y-29591000D03*
%TD*%
D26*
%TO.P,RV1,1*%
%TO.N,+*%
X100139500Y-35242500D03*
%TO.P,RV1,2*%
%TO.N,Net-(DS1-Pad15)*%
X110139500Y-32742500D03*
%TO.P,RV1,3*%
%TO.N,Net-(RV1-Pad3)*%
X100139500Y-30242500D03*
%TD*%
D14*
%TO.P,K4,1*%
%TO.N,Net-(J4-Pad2)*%
X153860500Y-74231500D03*
D27*
%TO.P,K4,5*%
%TO.N,-*%
X155810500Y-68281500D03*
D14*
%TO.P,K4,4*%
%TO.N,Net-(K4-Pad4)*%
X168060500Y-68231500D03*
%TO.P,K4,3*%
%TO.N,Net-(J4-Pad1)*%
X168010500Y-80281500D03*
D27*
%TO.P,K4,2*%
%TO.N,Net-(D2-Pad2)*%
X155810500Y-80281500D03*
%TD*%
D14*
%TO.P,K3,1*%
%TO.N,Net-(J3-Pad2)*%
X153733500Y-57912000D03*
D27*
%TO.P,K3,5*%
%TO.N,-*%
X155683500Y-51962000D03*
D14*
%TO.P,K3,4*%
%TO.N,Net-(K3-Pad4)*%
X167933500Y-51912000D03*
%TO.P,K3,3*%
%TO.N,Net-(J3-Pad1)*%
X167883500Y-63962000D03*
D27*
%TO.P,K3,2*%
%TO.N,Net-(D1-Pad2)*%
X155683500Y-63962000D03*
%TD*%
D14*
%TO.P,K2,1*%
%TO.N,Net-(J2-Pad2)*%
X153694000Y-41687000D03*
D27*
%TO.P,K2,5*%
%TO.N,-*%
X155644000Y-35737000D03*
D14*
%TO.P,K2,4*%
%TO.N,Net-(K2-Pad4)*%
X167894000Y-35687000D03*
%TO.P,K2,3*%
%TO.N,Net-(J2-Pad1)*%
X167844000Y-47737000D03*
D27*
%TO.P,K2,2*%
%TO.N,Net-(D4-Pad2)*%
X155644000Y-47737000D03*
%TD*%
D14*
%TO.P,K1,1*%
%TO.N,Net-(K1-Pad1)*%
X153670000Y-25400000D03*
D27*
%TO.P,K1,5*%
%TO.N,-*%
X155620000Y-19450000D03*
D14*
%TO.P,K1,4*%
%TO.N,Net-(K1-Pad4)*%
X167870000Y-19400000D03*
%TO.P,K1,3*%
%TO.N,Net-(K1-Pad3)*%
X167820000Y-31450000D03*
D27*
%TO.P,K1,2*%
%TO.N,Net-(D3-Pad2)*%
X155620000Y-31450000D03*
%TD*%
D28*
%TO.P,J4,2*%
%TO.N,Net-(J4-Pad2)*%
X179006500Y-72343000D03*
D29*
%TO.P,J4,1*%
%TO.N,Net-(J4-Pad1)*%
X179006500Y-77343000D03*
%TD*%
D28*
%TO.P,J3,2*%
%TO.N,Net-(J3-Pad2)*%
X178943000Y-56214000D03*
D29*
%TO.P,J3,1*%
%TO.N,Net-(J3-Pad1)*%
X178943000Y-61214000D03*
%TD*%
D28*
%TO.P,j2,2*%
%TO.N,Net-(K1-Pad1)*%
X179006500Y-23575000D03*
D29*
%TO.P,j2,1*%
%TO.N,Net-(K1-Pad3)*%
X179006500Y-28575000D03*
%TD*%
D28*
%TO.P,J2,2*%
%TO.N,Net-(J2-Pad2)*%
X178816000Y-40339000D03*
D29*
%TO.P,J2,1*%
%TO.N,Net-(J2-Pad1)*%
X178816000Y-45339000D03*
%TD*%
D30*
%TO.P,j1,2*%
%TO.N,+*%
X125269000Y-79565500D03*
D31*
%TO.P,j1,1*%
%TO.N,-*%
X120269000Y-79565500D03*
%TD*%
D32*
%TO.N,+*%
X93662500Y-25336500D03*
X81788000Y-25336500D03*
%TO.N,-*%
X129743200Y-58623200D03*
X122428004Y-58623200D03*
%TO.N,on2*%
X125018800Y-66395600D03*
X114808000Y-64820800D03*
%TO.N,on1*%
X129946400Y-60909200D03*
X120961636Y-60319077D03*
%TO.N,on4*%
X136372600Y-43307000D03*
X124891800Y-43307000D03*
%TO.N,on3*%
X136144000Y-26670000D03*
X131978400Y-26670000D03*
%TD*%
D33*
%TO.N,Net-(A1-Pad16)*%
X101333300Y-82359500D02*
X101295200Y-82397600D01*
X101257100Y-82359500D02*
X101333300Y-82359500D01*
X92964000Y-74066400D02*
X101257100Y-82359500D01*
X87693500Y-72060870D02*
X88403630Y-72771000D01*
X88403630Y-72771000D02*
X88468200Y-72771000D01*
X87693500Y-70929500D02*
X87693500Y-72060870D01*
X88468200Y-72771000D02*
X89763600Y-74066400D01*
X89763600Y-74066400D02*
X92964000Y-74066400D01*
%TO.N,D12*%
X84614500Y-52610500D02*
X84614500Y-18415000D01*
X87693500Y-55689500D02*
X84614500Y-52610500D01*
%TO.N,+*%
X150241000Y-67373500D02*
X149733000Y-66865500D01*
X143891000Y-70306130D02*
X143891000Y-71437500D01*
X147331630Y-66865500D02*
X143891000Y-70306130D01*
X149733000Y-66865500D02*
X147331630Y-66865500D01*
X150050500Y-53753000D02*
X148875500Y-52578000D01*
X150050500Y-55753000D02*
X150050500Y-53753000D01*
X143827500Y-53542130D02*
X143827500Y-54673500D01*
X144791630Y-52578000D02*
X143827500Y-53542130D01*
X148875500Y-52578000D02*
X144791630Y-52578000D01*
X149606000Y-51847500D02*
X148875500Y-52578000D01*
X149606000Y-50292000D02*
X149606000Y-51847500D01*
X150177500Y-34671000D02*
X149923500Y-34417000D01*
X150177500Y-39687500D02*
X150177500Y-34671000D01*
X144018000Y-37095630D02*
X144018000Y-38227000D01*
X146696630Y-34417000D02*
X144018000Y-37095630D01*
X149923500Y-34417000D02*
X146696630Y-34417000D01*
X150177500Y-18224500D02*
X150241000Y-18161000D01*
X150177500Y-23368000D02*
X150177500Y-18224500D01*
X143891000Y-68022704D02*
X148272500Y-63641204D01*
X143891000Y-71437500D02*
X143891000Y-68022704D01*
X148272500Y-63641204D02*
X148272500Y-61341000D01*
X146812000Y-59880500D02*
X146812000Y-59715834D01*
X148272500Y-61341000D02*
X146812000Y-59880500D01*
X143827500Y-56896000D02*
X143827500Y-54673500D01*
X146812000Y-59880500D02*
X143827500Y-56896000D01*
X144145000Y-23139834D02*
X144145000Y-21971000D01*
X148558499Y-27553333D02*
X144145000Y-23139834D01*
X148558499Y-33051999D02*
X148558499Y-27553333D01*
X149923500Y-34417000D02*
X148558499Y-33051999D01*
X81393471Y-74246173D02*
X81393471Y-51258029D01*
X84678000Y-80581500D02*
X84678000Y-77530704D01*
X84678000Y-77530704D02*
X81393471Y-74246173D01*
X79534500Y-49399058D02*
X79534500Y-18415000D01*
X81393471Y-51258029D02*
X79534500Y-49399058D01*
X80732501Y-82383501D02*
X80732501Y-74907143D01*
X85188520Y-86839520D02*
X80732501Y-82383501D01*
X109020314Y-86839520D02*
X85188520Y-86839520D01*
X80732501Y-74907143D02*
X81393471Y-74246173D01*
X125269000Y-72945000D02*
X125269000Y-79264500D01*
X123253500Y-70929500D02*
X125269000Y-72945000D01*
X111468334Y-84391500D02*
X109020314Y-86839520D01*
X125269000Y-79264500D02*
X120142000Y-84391500D01*
X120142000Y-84391500D02*
X111468334Y-84391500D01*
X79534500Y-24988000D02*
X79534500Y-18415000D01*
X81788000Y-25336500D02*
X79883000Y-25336500D01*
X79883000Y-25336500D02*
X79534500Y-24988000D01*
X93662500Y-25971500D02*
X93662500Y-25336500D01*
X100139500Y-35242500D02*
X93662500Y-28765500D01*
X93662500Y-28765500D02*
X93662500Y-25971500D01*
X144520287Y-16689211D02*
X144272000Y-16937498D01*
X144272000Y-16937498D02*
X144272000Y-21971000D01*
X148769211Y-16689211D02*
X144520287Y-16689211D01*
X150241000Y-18161000D02*
X148769211Y-16689211D01*
X144018000Y-39449336D02*
X144018000Y-38227000D01*
X148437600Y-43868936D02*
X144018000Y-39449336D01*
X149606000Y-50292000D02*
X148437600Y-49123600D01*
X148437600Y-49123600D02*
X148437600Y-43868936D01*
X150071450Y-72728450D02*
X150241000Y-72898000D01*
X150241000Y-72898000D02*
X150241000Y-69215000D01*
X150241000Y-69215000D02*
X150241000Y-67373500D01*
X150241000Y-68402200D02*
X150241000Y-69215000D01*
X149453600Y-67614800D02*
X150241000Y-68402200D01*
X143891000Y-71437500D02*
X143891000Y-70180200D01*
X149733000Y-66865500D02*
X149453600Y-67144900D01*
X147205700Y-66865500D02*
X149733000Y-66865500D01*
X143891000Y-70180200D02*
X147205700Y-66865500D01*
X149453600Y-67144900D02*
X149453600Y-67614800D01*
X153520299Y-78031499D02*
X150241000Y-74752200D01*
X156890501Y-78031499D02*
X153520299Y-78031499D01*
X150241000Y-74752200D02*
X150241000Y-72898000D01*
X134855501Y-82531501D02*
X156890501Y-82531501D01*
X158060501Y-79201499D02*
X156890501Y-78031499D01*
X125269000Y-72945000D02*
X134855501Y-82531501D01*
X156890501Y-82531501D02*
X158060501Y-81361501D01*
X158060501Y-81361501D02*
X158060501Y-79201499D01*
%TO.N,D11*%
X90233500Y-18954000D02*
X89694500Y-18415000D01*
X90233500Y-55689500D02*
X90233500Y-18954000D01*
%TO.N,-*%
X158133501Y-54412001D02*
X155683500Y-51962000D01*
X169133501Y-54412001D02*
X158133501Y-54412001D01*
X169697502Y-53848000D02*
X169133501Y-54412001D01*
X180381299Y-53848000D02*
X169697502Y-53848000D01*
X180381299Y-53848000D02*
X182562500Y-51666799D01*
X158094001Y-38187001D02*
X155644000Y-35737000D01*
X180468300Y-38187001D02*
X158094001Y-38187001D01*
X182562500Y-40281201D02*
X180468300Y-38187001D01*
X182562500Y-51666799D02*
X182562500Y-40281201D01*
X158170001Y-16899999D02*
X155620000Y-19450000D01*
X164838000Y-26543000D02*
X182372000Y-26543000D01*
X182372000Y-26543000D02*
X182372000Y-21844000D01*
X155644000Y-35737000D02*
X164838000Y-26543000D01*
X182372000Y-21844000D02*
X177427999Y-16899999D01*
X177427999Y-16899999D02*
X158170001Y-16899999D01*
X183134000Y-53848000D02*
X180381299Y-53848000D01*
X165887990Y-58204010D02*
X183299010Y-58204010D01*
X183299010Y-58204010D02*
X183769000Y-57734020D01*
X183769000Y-57734020D02*
X183769000Y-54483000D01*
X155810500Y-68281500D02*
X165887990Y-58204010D01*
X183769000Y-54483000D02*
X183134000Y-53848000D01*
X117475000Y-82359500D02*
X120269000Y-79565500D01*
X108775500Y-82359500D02*
X117475000Y-82359500D01*
X108775500Y-82359500D02*
X108775500Y-84963000D01*
X108398990Y-85339510D02*
X86609510Y-85339510D01*
X108775500Y-84963000D02*
X108398990Y-85339510D01*
X86609510Y-85339510D02*
X82678000Y-81408000D01*
X120269000Y-71374000D02*
X120713500Y-70929500D01*
X120269000Y-79565500D02*
X120269000Y-71374000D01*
X82074500Y-16115000D02*
X82074500Y-18415000D01*
X86514510Y-17227991D02*
X86514510Y-17775010D01*
X86514510Y-17775010D02*
X87154500Y-18415000D01*
X85401519Y-16115000D02*
X86514510Y-17227991D01*
X115094500Y-17867981D02*
X115094500Y-18415000D01*
X113038019Y-15811500D02*
X115094500Y-17867981D01*
X85401519Y-16115000D02*
X85705019Y-15811500D01*
X85705019Y-15811500D02*
X113038019Y-15811500D01*
X81834500Y-15875000D02*
X82074500Y-16115000D01*
X77234500Y-15875000D02*
X81834500Y-15875000D01*
X76994500Y-18415000D02*
X76994500Y-16115000D01*
X76994500Y-16115000D02*
X77234500Y-15875000D01*
X85098019Y-15811500D02*
X85401519Y-16115000D01*
X82074500Y-16115000D02*
X82378000Y-15811500D01*
X82378000Y-15811500D02*
X85098019Y-15811500D01*
X134622998Y-18415000D02*
X135740999Y-17296999D01*
X115094500Y-18415000D02*
X134622998Y-18415000D01*
X120713500Y-69798130D02*
X121614130Y-68897500D01*
X120713500Y-70929500D02*
X120713500Y-69798130D01*
X138174990Y-73404990D02*
X138430000Y-73404990D01*
X133667500Y-68897500D02*
X138174990Y-73404990D01*
X135740999Y-21123499D02*
X135740999Y-17296999D01*
X138492490Y-23874990D02*
X135740999Y-21123499D01*
X134064155Y-23129655D02*
X133985000Y-23050500D01*
X137890821Y-23874990D02*
X138492490Y-23874990D01*
X134064155Y-44402155D02*
X134064155Y-23129655D01*
X133985000Y-23050500D02*
X137066331Y-23050500D01*
X137066331Y-23050500D02*
X137890821Y-23874990D01*
X138493500Y-40511990D02*
X138466656Y-40511990D01*
X134064155Y-44402155D02*
X134064155Y-40511990D01*
X134064155Y-40511990D02*
X138493500Y-40511990D01*
X129590800Y-64820800D02*
X133667500Y-68897500D01*
X121615200Y-64820800D02*
X129590800Y-64820800D01*
X121614130Y-68897500D02*
X121614130Y-64819730D01*
X121614130Y-64819730D02*
X121615200Y-64820800D01*
X121614130Y-64872670D02*
X121666000Y-64820800D01*
X121614130Y-68897500D02*
X121614130Y-64872670D01*
X129184400Y-57150000D02*
X129184400Y-52228310D01*
X128168400Y-58166000D02*
X129184400Y-57150000D01*
X133667500Y-68897500D02*
X128168400Y-63398400D01*
X128168400Y-63398400D02*
X128168400Y-58166000D01*
X134064155Y-47348555D02*
X129184400Y-52228310D01*
X134064155Y-44402155D02*
X134064155Y-47348555D01*
X129743200Y-57708800D02*
X129184400Y-57150000D01*
X129743200Y-58623200D02*
X129743200Y-57708800D01*
X131660900Y-56705500D02*
X129743200Y-58623200D01*
X138557000Y-56705500D02*
X131660900Y-56705500D01*
X138405001Y-16360999D02*
X136676999Y-16360999D01*
X139316002Y-17272000D02*
X138405001Y-16360999D01*
X136676999Y-16360999D02*
X135740999Y-17296999D01*
X143898964Y-15189200D02*
X141816164Y-17272000D01*
X151359200Y-15189200D02*
X143898964Y-15189200D01*
X141816164Y-17272000D02*
X139316002Y-17272000D01*
X155620000Y-19450000D02*
X151359200Y-15189200D01*
X82678000Y-81408000D02*
X82678000Y-80581500D01*
X122021604Y-58216800D02*
X122428004Y-58623200D01*
X117094000Y-58216800D02*
X122021604Y-58216800D01*
X115633500Y-55689500D02*
X115633500Y-56756300D01*
X115633500Y-56756300D02*
X117094000Y-58216800D01*
%TO.N,sw*%
X92773500Y-57721500D02*
X92773500Y-55689500D01*
X95313500Y-60261500D02*
X92773500Y-57721500D01*
X95313500Y-62865000D02*
X95313500Y-60261500D01*
X86072850Y-65643480D02*
X92535020Y-65643480D01*
X82893481Y-68822849D02*
X86072850Y-65643480D01*
X82893480Y-73624850D02*
X82893481Y-68822849D01*
X92535020Y-65643480D02*
X95313500Y-62865000D01*
X86678000Y-80581500D02*
X86678000Y-77409370D01*
X86678000Y-77409370D02*
X82893480Y-73624850D01*
%TO.N,dt*%
X84393491Y-69444173D02*
X86694173Y-67143491D01*
X93156344Y-67143491D02*
X96813511Y-63486324D01*
X88678000Y-80581500D02*
X88678000Y-77288035D01*
X95313500Y-56820870D02*
X95313500Y-55689500D01*
X86694173Y-67143491D02*
X93156344Y-67143491D01*
X96813511Y-63486324D02*
X96813511Y-58320881D01*
X84393491Y-73003526D02*
X84393491Y-69444173D01*
X88678000Y-77288035D02*
X84393491Y-73003526D01*
X96813511Y-58320881D02*
X95313500Y-56820870D01*
%TO.N,clk*%
X90678000Y-80581500D02*
X90678000Y-77166701D01*
X85893499Y-72382200D02*
X85893499Y-70065499D01*
X90678000Y-77166701D02*
X85893499Y-72382200D01*
X98653499Y-63767671D02*
X98653499Y-56489499D01*
X93777668Y-68643502D02*
X98653499Y-63767671D01*
X87315496Y-68643502D02*
X93777668Y-68643502D01*
X98653499Y-56489499D02*
X97853500Y-55689500D01*
X85893499Y-70065499D02*
X87315496Y-68643502D01*
%TO.N,on2*%
X138430000Y-76200000D02*
X134874000Y-76200000D01*
X134874000Y-76200000D02*
X125069600Y-66395600D01*
X125069600Y-66395600D02*
X125018800Y-66395600D01*
X100736400Y-64820800D02*
X114808000Y-64820800D01*
X100393500Y-64477900D02*
X100736400Y-64820800D01*
X100393500Y-55689500D02*
X100393500Y-64477900D01*
%TO.N,on1*%
X129946400Y-60909200D02*
X133451600Y-60909200D01*
X135115300Y-59245500D02*
X138557000Y-59245500D01*
X133451600Y-60909200D02*
X135115300Y-59245500D01*
X102933500Y-55689500D02*
X107563077Y-60319077D01*
X107563077Y-60319077D02*
X120961636Y-60319077D01*
%TO.N,D5*%
X102717600Y-34300800D02*
X102412800Y-33996000D01*
X102412800Y-18433300D02*
X102394500Y-18415000D01*
X101814489Y-39765111D02*
X102717600Y-38862000D01*
X102412800Y-33996000D02*
X102412800Y-18433300D01*
X105473500Y-45212000D02*
X101814489Y-41552990D01*
X105473500Y-55689500D02*
X105473500Y-45212000D01*
X101814489Y-41552990D02*
X101814489Y-39765111D01*
X102717600Y-38862000D02*
X102717600Y-34300800D01*
%TO.N,D4*%
X104934500Y-20715000D02*
X104268411Y-21381089D01*
X108013500Y-45630666D02*
X108013500Y-55689500D01*
X104268411Y-41885577D02*
X108013500Y-45630666D01*
X104268411Y-21381089D02*
X104268411Y-41885577D01*
X104934500Y-18415000D02*
X104934500Y-20715000D01*
%TO.N,D3*%
X107474500Y-18415000D02*
X107474500Y-20715000D01*
X110553500Y-46049332D02*
X110553500Y-55689500D01*
X107474500Y-20715000D02*
X105768422Y-22421078D01*
X105768422Y-41264254D02*
X110553500Y-46049332D01*
X105768422Y-22421078D02*
X105768422Y-41264254D01*
%TO.N,D2*%
X110014500Y-20715000D02*
X107615500Y-23114000D01*
X110014500Y-18415000D02*
X110014500Y-20715000D01*
X107615500Y-23114000D02*
X107615500Y-38220790D01*
X110363000Y-43737498D02*
X113093500Y-46467998D01*
X110363000Y-40968290D02*
X110363000Y-43737498D01*
X113093500Y-46467998D02*
X113093500Y-55689500D01*
X107615500Y-38220790D02*
X110363000Y-40968290D01*
%TO.N,on4*%
X138811000Y-43307000D02*
X136372600Y-43307000D01*
X124891800Y-43307000D02*
X124891800Y-52603400D01*
X120222114Y-61969078D02*
X114857202Y-67333990D01*
X96113499Y-70129501D02*
X95313500Y-70929500D01*
X114857202Y-67333990D02*
X98909010Y-67333990D01*
X121753637Y-61969078D02*
X120222114Y-61969078D01*
X124764800Y-58957915D02*
X121753637Y-61969078D01*
X124764800Y-57861200D02*
X124764800Y-58957915D01*
X98909010Y-67333990D02*
X96113499Y-70129501D01*
D34*
X125069600Y-57861200D02*
X124764800Y-57861200D01*
X124891800Y-52603400D02*
X125069600Y-52781200D01*
X125069600Y-52781200D02*
X125069600Y-57861200D01*
D33*
%TO.N,on3*%
X138747500Y-26670000D02*
X136144000Y-26670000D01*
X131978400Y-26670000D02*
X126542800Y-32105600D01*
X122333540Y-63369089D02*
X120943437Y-63369089D01*
X120943437Y-63369089D02*
X116268934Y-68043592D01*
X126542800Y-32105600D02*
X126542800Y-59159829D01*
X126542800Y-59159829D02*
X122333540Y-63369089D01*
X115417600Y-68834000D02*
X116433600Y-67818000D01*
X99415600Y-68834000D02*
X115417600Y-68834000D01*
X97853500Y-70929500D02*
X97853500Y-70396100D01*
X97853500Y-70396100D02*
X99415600Y-68834000D01*
%TO.N,Net-(DS1-Pad15)*%
X112554500Y-30327500D02*
X112554500Y-18415000D01*
X110139500Y-32742500D02*
X112554500Y-30327500D01*
%TO.N,Net-(J2-Pad2)*%
X155042000Y-40339000D02*
X153694000Y-41687000D01*
X178816000Y-40339000D02*
X155042000Y-40339000D01*
%TO.N,Net-(J2-Pad1)*%
X176418000Y-47737000D02*
X178816000Y-45339000D01*
X167844000Y-47737000D02*
X176418000Y-47737000D01*
%TO.N,Net-(K1-Pad1)*%
X155495000Y-23575000D02*
X153670000Y-25400000D01*
X179006500Y-23575000D02*
X155495000Y-23575000D01*
%TO.N,Net-(K1-Pad3)*%
X176131500Y-31450000D02*
X179006500Y-28575000D01*
X167820000Y-31450000D02*
X176131500Y-31450000D01*
%TO.N,Net-(J3-Pad2)*%
X155431500Y-56214000D02*
X153733500Y-57912000D01*
X178943000Y-56214000D02*
X155431500Y-56214000D01*
%TO.N,Net-(J3-Pad1)*%
X176195000Y-63962000D02*
X178943000Y-61214000D01*
X167883500Y-63962000D02*
X176195000Y-63962000D01*
%TO.N,Net-(J4-Pad2)*%
X155749000Y-72343000D02*
X153860500Y-74231500D01*
X179006500Y-72343000D02*
X155749000Y-72343000D01*
%TO.N,Net-(J4-Pad1)*%
X176068000Y-80281500D02*
X179006500Y-77343000D01*
X168010500Y-80281500D02*
X176068000Y-80281500D01*
%TO.N,Net-(Q1-Pad3)*%
X145835170Y-31699200D02*
X141236700Y-31699200D01*
X146812000Y-29591000D02*
X146812000Y-30722370D01*
X141236700Y-31699200D02*
X138747500Y-29210000D01*
X146812000Y-30722370D02*
X145835170Y-31699200D01*
%TO.N,Net-(Q2-Pad3)*%
X145682770Y-47853600D02*
X140817600Y-47853600D01*
X140817600Y-47853600D02*
X138811000Y-45847000D01*
X146558000Y-45847000D02*
X146558000Y-46978370D01*
X146558000Y-46978370D02*
X145682770Y-47853600D01*
%TO.N,Net-(Q3-Pad3)*%
X140931900Y-64160400D02*
X138557000Y-61785500D01*
X145631970Y-64160400D02*
X140931900Y-64160400D01*
X146367500Y-62293500D02*
X146367500Y-63424870D01*
X146367500Y-63424870D02*
X145631970Y-64160400D01*
%TO.N,Net-(Q4-Pad3)*%
X140716000Y-81026000D02*
X138430000Y-78740000D01*
X145593870Y-81026000D02*
X140716000Y-81026000D01*
X146431000Y-79057500D02*
X146431000Y-80188870D01*
X146431000Y-80188870D02*
X145593870Y-81026000D01*
%TO.N,Net-(R1-Pad2)*%
X137541000Y-18567834D02*
X137541000Y-18161000D01*
X141922500Y-26035000D02*
X141922500Y-22949334D01*
X141922500Y-22949334D02*
X137541000Y-18567834D01*
X144272000Y-29591000D02*
X144272000Y-28384500D01*
X144272000Y-28384500D02*
X141922500Y-26035000D01*
%TO.N,Net-(R2-Pad2)*%
X137223500Y-35115500D02*
X137223500Y-34417000D01*
X140563600Y-38455600D02*
X137223500Y-35115500D01*
X144018000Y-43942000D02*
X140970000Y-40894000D01*
X140970000Y-40894000D02*
X140970000Y-38912800D01*
X144018000Y-45847000D02*
X144018000Y-43942000D01*
X140970000Y-38912800D02*
X140563600Y-38506400D01*
X140563600Y-38506400D02*
X140563600Y-38455600D01*
%TO.N,Net-(R3-Pad2)*%
X141478000Y-55995370D02*
X136906000Y-51423370D01*
X143827500Y-62293500D02*
X143827500Y-61341000D01*
X136906000Y-51423370D02*
X136906000Y-50292000D01*
X141478000Y-58991500D02*
X141478000Y-55995370D01*
X143827500Y-61341000D02*
X141478000Y-58991500D01*
%TO.N,Net-(R4-Pad2)*%
X137033000Y-67996870D02*
X137033000Y-66865500D01*
X143891000Y-74854870D02*
X137033000Y-67996870D01*
X143891000Y-79057500D02*
X143891000Y-74854870D01*
%TO.N,Net-(D1-Pad2)*%
X146367500Y-55118000D02*
X146367500Y-54673500D01*
X147955000Y-56705500D02*
X146367500Y-55118000D01*
X147955000Y-58737500D02*
X147955000Y-56705500D01*
X155683500Y-63962000D02*
X153179500Y-63962000D01*
X153179500Y-63962000D02*
X147955000Y-58737500D01*
%TO.N,Net-(D2-Pad2)*%
X152544500Y-80281500D02*
X150241000Y-77978000D01*
X155810500Y-80281500D02*
X152544500Y-80281500D01*
X146431000Y-74168000D02*
X146431000Y-71437500D01*
X150241000Y-77978000D02*
X146431000Y-74168000D01*
%TO.N,Net-(D3-Pad2)*%
X153179500Y-31450000D02*
X150177500Y-28448000D01*
X155620000Y-31450000D02*
X153179500Y-31450000D01*
X146812000Y-23685500D02*
X146812000Y-21971000D01*
X150177500Y-28448000D02*
X150177500Y-27051000D01*
X150177500Y-27051000D02*
X146812000Y-23685500D01*
%TO.N,Net-(D4-Pad2)*%
X153147000Y-47737000D02*
X150177500Y-44767500D01*
X155644000Y-47737000D02*
X153147000Y-47737000D01*
X148177499Y-39846499D02*
X146558000Y-38227000D01*
X150177500Y-41846500D02*
X150018501Y-41687501D01*
X150177500Y-44767500D02*
X150177500Y-41846500D01*
X148177499Y-41487501D02*
X148177499Y-39846499D01*
X150018501Y-41687501D02*
X148377499Y-41687501D01*
X148377499Y-41687501D02*
X148177499Y-41487501D01*
%TD*%
D35*
%TO.N,-*%
G36*
X187264288Y-14263857D02*
G01*
X187812066Y-88960800D01*
X68415601Y-88960800D01*
X68405772Y-85267211D01*
X70621800Y-85267211D01*
X70621800Y-85725589D01*
X70711226Y-86175161D01*
X70886640Y-86598648D01*
X71141301Y-86979776D01*
X71465424Y-87303899D01*
X71846552Y-87558560D01*
X72270039Y-87733974D01*
X72719611Y-87823400D01*
X73177989Y-87823400D01*
X73627561Y-87733974D01*
X74051048Y-87558560D01*
X74432176Y-87303899D01*
X74756299Y-86979776D01*
X75010960Y-86598648D01*
X75186374Y-86175161D01*
X75275800Y-85725589D01*
X75275800Y-85267211D01*
X75186374Y-84817639D01*
X75010960Y-84394152D01*
X74756299Y-84013024D01*
X74432176Y-83688901D01*
X74051048Y-83434240D01*
X73627561Y-83258826D01*
X73177989Y-83169400D01*
X72719611Y-83169400D01*
X72270039Y-83258826D01*
X71846552Y-83434240D01*
X71465424Y-83688901D01*
X71141301Y-84013024D01*
X70886640Y-84394152D01*
X70711226Y-84817639D01*
X70621800Y-85267211D01*
X68405772Y-85267211D01*
X68309775Y-49196360D01*
X69268400Y-49196360D01*
X69268400Y-49635040D01*
X69353982Y-50065292D01*
X69521858Y-50470580D01*
X69765576Y-50835330D01*
X70075770Y-51145524D01*
X70440520Y-51389242D01*
X70845808Y-51557118D01*
X71276060Y-51642700D01*
X71714740Y-51642700D01*
X72144992Y-51557118D01*
X72550280Y-51389242D01*
X72915030Y-51145524D01*
X73225224Y-50835330D01*
X73468942Y-50470580D01*
X73636818Y-50065292D01*
X73722400Y-49635040D01*
X73722400Y-49196360D01*
X73636818Y-48766108D01*
X73468942Y-48360820D01*
X73225224Y-47996070D01*
X72915030Y-47685876D01*
X72550280Y-47442158D01*
X72144992Y-47274282D01*
X71714740Y-47188700D01*
X71276060Y-47188700D01*
X70845808Y-47274282D01*
X70440520Y-47442158D01*
X70075770Y-47685876D01*
X69765576Y-47996070D01*
X69521858Y-48360820D01*
X69353982Y-48766108D01*
X69268400Y-49196360D01*
X68309775Y-49196360D01*
X68227271Y-18195660D01*
X69268400Y-18195660D01*
X69268400Y-18634340D01*
X69353982Y-19064592D01*
X69521858Y-19469880D01*
X69765576Y-19834630D01*
X70075770Y-20144824D01*
X70440520Y-20388542D01*
X70845808Y-20556418D01*
X71276060Y-20642000D01*
X71714740Y-20642000D01*
X72144992Y-20556418D01*
X72550280Y-20388542D01*
X72915030Y-20144824D01*
X73225224Y-19834630D01*
X73305158Y-19715000D01*
X75456428Y-19715000D01*
X75468688Y-19839482D01*
X75504998Y-19959180D01*
X75563963Y-20069494D01*
X75643315Y-20166185D01*
X75740006Y-20245537D01*
X75850320Y-20304502D01*
X75970018Y-20340812D01*
X76094500Y-20353072D01*
X76708750Y-20350000D01*
X76867500Y-20191250D01*
X76867500Y-18542000D01*
X75618250Y-18542000D01*
X75459500Y-18700750D01*
X75456428Y-19715000D01*
X73305158Y-19715000D01*
X73468942Y-19469880D01*
X73636818Y-19064592D01*
X73722400Y-18634340D01*
X73722400Y-18195660D01*
X73636818Y-17765408D01*
X73468942Y-17360120D01*
X73305159Y-17115000D01*
X75456428Y-17115000D01*
X75459500Y-18129250D01*
X75618250Y-18288000D01*
X76867500Y-18288000D01*
X76867500Y-16638750D01*
X77121500Y-16638750D01*
X77121500Y-18288000D01*
X77141500Y-18288000D01*
X77141500Y-18542000D01*
X77121500Y-18542000D01*
X77121500Y-20191250D01*
X77280250Y-20350000D01*
X77894500Y-20353072D01*
X78018982Y-20340812D01*
X78138680Y-20304502D01*
X78248994Y-20245537D01*
X78307501Y-20197522D01*
X78307500Y-24927740D01*
X78301565Y-24988000D01*
X78307500Y-25048260D01*
X78307500Y-25048267D01*
X78307501Y-25048275D01*
X78307500Y-49338798D01*
X78301565Y-49399058D01*
X78307500Y-49459318D01*
X78307500Y-49459325D01*
X78325255Y-49639591D01*
X78395416Y-49870881D01*
X78509351Y-50084040D01*
X78662683Y-50270875D01*
X78709500Y-50309297D01*
X80166472Y-51766270D01*
X80166471Y-73737934D01*
X79907497Y-73996908D01*
X79860685Y-74035326D01*
X79822267Y-74082138D01*
X79822266Y-74082139D01*
X79801662Y-74107245D01*
X79707353Y-74222160D01*
X79662041Y-74306934D01*
X79593418Y-74435319D01*
X79523256Y-74666610D01*
X79499566Y-74907143D01*
X79505502Y-74967413D01*
X79505501Y-82323241D01*
X79499566Y-82383501D01*
X79505501Y-82443761D01*
X79505501Y-82443768D01*
X79523256Y-82624034D01*
X79593417Y-82855324D01*
X79707352Y-83068483D01*
X79860684Y-83255318D01*
X79907501Y-83293740D01*
X84278285Y-87664525D01*
X84316703Y-87711337D01*
X84503537Y-87864669D01*
X84716694Y-87978603D01*
X84716696Y-87978604D01*
X84947986Y-88048766D01*
X85068466Y-88060631D01*
X85128252Y-88066520D01*
X85128257Y-88066520D01*
X85188520Y-88072455D01*
X85248783Y-88066520D01*
X108960054Y-88066520D01*
X109020314Y-88072455D01*
X109080574Y-88066520D01*
X109080582Y-88066520D01*
X109260848Y-88048765D01*
X109492138Y-87978604D01*
X109705297Y-87864669D01*
X109892131Y-87711337D01*
X109930553Y-87664520D01*
X111976574Y-85618500D01*
X120081740Y-85618500D01*
X120142000Y-85624435D01*
X120202260Y-85618500D01*
X120202268Y-85618500D01*
X120382534Y-85600745D01*
X120613824Y-85530584D01*
X120826983Y-85416649D01*
X121013817Y-85263317D01*
X121052239Y-85216500D01*
X121306328Y-84962411D01*
X181061000Y-84962411D01*
X181061000Y-85420789D01*
X181150426Y-85870361D01*
X181325840Y-86293848D01*
X181580501Y-86674976D01*
X181904624Y-86999099D01*
X182285752Y-87253760D01*
X182709239Y-87429174D01*
X183158811Y-87518600D01*
X183617189Y-87518600D01*
X184066761Y-87429174D01*
X184490248Y-87253760D01*
X184871376Y-86999099D01*
X185195499Y-86674976D01*
X185450160Y-86293848D01*
X185625574Y-85870361D01*
X185715000Y-85420789D01*
X185715000Y-84962411D01*
X185625574Y-84512839D01*
X185450160Y-84089352D01*
X185195499Y-83708224D01*
X184871376Y-83384101D01*
X184490248Y-83129440D01*
X184066761Y-82954026D01*
X183617189Y-82864600D01*
X183158811Y-82864600D01*
X182709239Y-82954026D01*
X182285752Y-83129440D01*
X181904624Y-83384101D01*
X181580501Y-83708224D01*
X181325840Y-84089352D01*
X181150426Y-84512839D01*
X181061000Y-84962411D01*
X121306328Y-84962411D01*
X124293021Y-81975718D01*
X124310472Y-81990040D01*
X124608755Y-82149476D01*
X124932410Y-82247656D01*
X125269000Y-82280807D01*
X125605591Y-82247656D01*
X125929246Y-82149476D01*
X126227529Y-81990040D01*
X126488976Y-81775476D01*
X126703540Y-81514029D01*
X126862976Y-81215746D01*
X126961156Y-80892091D01*
X126986000Y-80639843D01*
X126986000Y-78491157D01*
X126961156Y-78238909D01*
X126862976Y-77915254D01*
X126703540Y-77616971D01*
X126496000Y-77364083D01*
X126496000Y-75907239D01*
X133945266Y-83356506D01*
X133983684Y-83403318D01*
X134170518Y-83556650D01*
X134383675Y-83670584D01*
X134383677Y-83670585D01*
X134614967Y-83740747D01*
X134735447Y-83752612D01*
X134795233Y-83758501D01*
X134795238Y-83758501D01*
X134855501Y-83764436D01*
X134915764Y-83758501D01*
X156830241Y-83758501D01*
X156890501Y-83764436D01*
X156950761Y-83758501D01*
X156950769Y-83758501D01*
X157131035Y-83740746D01*
X157362325Y-83670585D01*
X157575484Y-83556650D01*
X157762318Y-83403318D01*
X157800740Y-83356502D01*
X158885512Y-82271731D01*
X158932318Y-82233318D01*
X158970731Y-82186512D01*
X158970737Y-82186506D01*
X159069401Y-82066283D01*
X159085650Y-82046484D01*
X159199585Y-81833325D01*
X159205315Y-81814436D01*
X159269747Y-81602035D01*
X159282429Y-81473266D01*
X159287501Y-81421769D01*
X159287501Y-81421764D01*
X159293436Y-81361501D01*
X159287501Y-81301238D01*
X159287501Y-80062160D01*
X165783500Y-80062160D01*
X165783500Y-80500840D01*
X165869082Y-80931092D01*
X166036958Y-81336380D01*
X166280676Y-81701130D01*
X166590870Y-82011324D01*
X166955620Y-82255042D01*
X167360908Y-82422918D01*
X167791160Y-82508500D01*
X168229840Y-82508500D01*
X168660092Y-82422918D01*
X169065380Y-82255042D01*
X169430130Y-82011324D01*
X169740324Y-81701130D01*
X169869035Y-81508500D01*
X176007740Y-81508500D01*
X176068000Y-81514435D01*
X176128260Y-81508500D01*
X176128268Y-81508500D01*
X176308534Y-81490745D01*
X176539824Y-81420584D01*
X176752983Y-81306649D01*
X176939817Y-81153317D01*
X176978239Y-81106500D01*
X179021223Y-79063517D01*
X180986500Y-79063517D01*
X181129017Y-79049480D01*
X181266057Y-79007910D01*
X181392353Y-78940403D01*
X181503054Y-78849554D01*
X181593903Y-78738853D01*
X181661410Y-78612557D01*
X181702980Y-78475517D01*
X181717017Y-78333000D01*
X181717017Y-76353000D01*
X181702980Y-76210483D01*
X181661410Y-76073443D01*
X181593903Y-75947147D01*
X181503054Y-75836446D01*
X181392353Y-75745597D01*
X181266057Y-75678090D01*
X181129017Y-75636520D01*
X180986500Y-75622483D01*
X177026500Y-75622483D01*
X176883983Y-75636520D01*
X176746943Y-75678090D01*
X176620647Y-75745597D01*
X176509946Y-75836446D01*
X176419097Y-75947147D01*
X176351590Y-76073443D01*
X176310020Y-76210483D01*
X176295983Y-76353000D01*
X176295983Y-78318278D01*
X175559761Y-79054500D01*
X169869035Y-79054500D01*
X169740324Y-78861870D01*
X169430130Y-78551676D01*
X169065380Y-78307958D01*
X168660092Y-78140082D01*
X168229840Y-78054500D01*
X167791160Y-78054500D01*
X167360908Y-78140082D01*
X166955620Y-78307958D01*
X166590870Y-78551676D01*
X166280676Y-78861870D01*
X166036958Y-79226620D01*
X165869082Y-79631908D01*
X165783500Y-80062160D01*
X159287501Y-80062160D01*
X159287501Y-79261762D01*
X159293436Y-79201499D01*
X159285123Y-79117084D01*
X159280707Y-79072255D01*
X159269747Y-78960965D01*
X159199585Y-78729675D01*
X159140223Y-78618616D01*
X159085650Y-78516516D01*
X159023625Y-78440939D01*
X158970737Y-78376494D01*
X158970731Y-78376488D01*
X158932318Y-78329682D01*
X158885511Y-78291268D01*
X157800740Y-77206498D01*
X157762318Y-77159682D01*
X157575484Y-77006350D01*
X157362325Y-76892415D01*
X157131035Y-76822254D01*
X156950769Y-76804499D01*
X156950761Y-76804499D01*
X156890501Y-76798564D01*
X156830241Y-76804499D01*
X154028539Y-76804499D01*
X153682540Y-76458500D01*
X154079840Y-76458500D01*
X154510092Y-76372918D01*
X154915380Y-76205042D01*
X155280130Y-75961324D01*
X155590324Y-75651130D01*
X155834042Y-75286380D01*
X156001918Y-74881092D01*
X156087500Y-74450840D01*
X156087500Y-74012160D01*
X156042303Y-73784937D01*
X156257240Y-73570000D01*
X176805083Y-73570000D01*
X177057971Y-73777540D01*
X177356254Y-73936976D01*
X177679909Y-74035156D01*
X177932157Y-74060000D01*
X180080843Y-74060000D01*
X180333091Y-74035156D01*
X180656746Y-73936976D01*
X180955029Y-73777540D01*
X181216476Y-73562976D01*
X181431040Y-73301529D01*
X181590476Y-73003246D01*
X181688656Y-72679591D01*
X181721807Y-72343000D01*
X181688656Y-72006409D01*
X181590476Y-71682754D01*
X181431040Y-71384471D01*
X181216476Y-71123024D01*
X180955029Y-70908460D01*
X180656746Y-70749024D01*
X180333091Y-70650844D01*
X180080843Y-70626000D01*
X177932157Y-70626000D01*
X177679909Y-70650844D01*
X177356254Y-70749024D01*
X177057971Y-70908460D01*
X176805083Y-71116000D01*
X155809259Y-71116000D01*
X155748999Y-71110065D01*
X155688739Y-71116000D01*
X155688732Y-71116000D01*
X155508466Y-71133755D01*
X155277176Y-71203916D01*
X155064017Y-71317851D01*
X154877183Y-71471183D01*
X154838765Y-71517995D01*
X154307063Y-72049697D01*
X154079840Y-72004500D01*
X153641160Y-72004500D01*
X153210908Y-72090082D01*
X152805620Y-72257958D01*
X152440870Y-72501676D01*
X152130676Y-72811870D01*
X151971517Y-73050068D01*
X151971517Y-71898000D01*
X151957480Y-71755483D01*
X151915910Y-71618443D01*
X151848403Y-71492147D01*
X151757554Y-71381446D01*
X151646853Y-71290597D01*
X151520557Y-71223090D01*
X151468000Y-71207147D01*
X151468000Y-69595105D01*
X154676500Y-69595105D01*
X154802414Y-69885077D01*
X155134626Y-70050933D01*
X155492812Y-70148790D01*
X155863206Y-70174889D01*
X156231575Y-70128225D01*
X156583762Y-70010594D01*
X156818586Y-69885077D01*
X156944500Y-69595105D01*
X155810500Y-68461105D01*
X154676500Y-69595105D01*
X151468000Y-69595105D01*
X151468000Y-68462463D01*
X151473935Y-68402200D01*
X151468000Y-68341932D01*
X151468000Y-68334206D01*
X153917111Y-68334206D01*
X153963775Y-68702575D01*
X154081406Y-69054762D01*
X154206923Y-69289586D01*
X154496895Y-69415500D01*
X155630895Y-68281500D01*
X155990105Y-68281500D01*
X157124105Y-69415500D01*
X157414077Y-69289586D01*
X157579933Y-68957374D01*
X157677790Y-68599188D01*
X157703889Y-68228794D01*
X157657225Y-67860425D01*
X157539594Y-67508238D01*
X157414077Y-67273414D01*
X157124105Y-67147500D01*
X155990105Y-68281500D01*
X155630895Y-68281500D01*
X154496895Y-67147500D01*
X154206923Y-67273414D01*
X154041067Y-67605626D01*
X153943210Y-67963812D01*
X153917111Y-68334206D01*
X151468000Y-68334206D01*
X151468000Y-67433759D01*
X151473935Y-67373499D01*
X151468000Y-67313239D01*
X151468000Y-67313232D01*
X151450245Y-67132966D01*
X151438796Y-67095222D01*
X151414732Y-67015896D01*
X151400172Y-66967895D01*
X154676500Y-66967895D01*
X155810500Y-68101895D01*
X156944500Y-66967895D01*
X156818586Y-66677923D01*
X156486374Y-66512067D01*
X156128188Y-66414210D01*
X155757794Y-66388111D01*
X155389425Y-66434775D01*
X155037238Y-66552406D01*
X154802414Y-66677923D01*
X154676500Y-66967895D01*
X151400172Y-66967895D01*
X151380084Y-66901676D01*
X151266149Y-66688517D01*
X151251053Y-66670122D01*
X151201319Y-66420090D01*
X151086210Y-66142194D01*
X150919099Y-65892094D01*
X150706406Y-65679401D01*
X150456306Y-65512290D01*
X150178410Y-65397181D01*
X149883396Y-65338500D01*
X149582604Y-65338500D01*
X149287590Y-65397181D01*
X149009694Y-65512290D01*
X148820807Y-65638500D01*
X148010444Y-65638500D01*
X149097506Y-64551438D01*
X149144317Y-64513021D01*
X149297649Y-64326187D01*
X149411584Y-64113028D01*
X149429468Y-64054072D01*
X149481746Y-63881738D01*
X149496019Y-63736817D01*
X149499500Y-63701472D01*
X149499500Y-63701467D01*
X149505435Y-63641204D01*
X149499500Y-63580941D01*
X149499500Y-62368849D01*
X149800753Y-62493632D01*
X150019380Y-62537120D01*
X152269265Y-64787005D01*
X152307683Y-64833817D01*
X152494517Y-64987149D01*
X152707674Y-65101083D01*
X152707676Y-65101084D01*
X152938966Y-65171246D01*
X153059446Y-65183111D01*
X153119232Y-65189000D01*
X153119237Y-65189000D01*
X153179500Y-65194935D01*
X153239763Y-65189000D01*
X154125638Y-65189000D01*
X154147864Y-65222264D01*
X154423236Y-65497636D01*
X154747039Y-65713995D01*
X155106830Y-65863025D01*
X155488782Y-65939000D01*
X155878218Y-65939000D01*
X156260170Y-65863025D01*
X156619961Y-65713995D01*
X156943764Y-65497636D01*
X157219136Y-65222264D01*
X157435495Y-64898461D01*
X157584525Y-64538670D01*
X157660500Y-64156718D01*
X157660500Y-63767282D01*
X157655603Y-63742660D01*
X165656500Y-63742660D01*
X165656500Y-64181340D01*
X165742082Y-64611592D01*
X165909958Y-65016880D01*
X166153676Y-65381630D01*
X166463870Y-65691824D01*
X166828620Y-65935542D01*
X167233908Y-66103418D01*
X167331734Y-66122877D01*
X167005620Y-66257958D01*
X166640870Y-66501676D01*
X166330676Y-66811870D01*
X166086958Y-67176620D01*
X165919082Y-67581908D01*
X165833500Y-68012160D01*
X165833500Y-68450840D01*
X165919082Y-68881092D01*
X166086958Y-69286380D01*
X166330676Y-69651130D01*
X166640870Y-69961324D01*
X167005620Y-70205042D01*
X167410908Y-70372918D01*
X167841160Y-70458500D01*
X168279840Y-70458500D01*
X168710092Y-70372918D01*
X169115380Y-70205042D01*
X169480130Y-69961324D01*
X169790324Y-69651130D01*
X170034042Y-69286380D01*
X170201918Y-68881092D01*
X170287500Y-68450840D01*
X170287500Y-68012160D01*
X170201918Y-67581908D01*
X170034042Y-67176620D01*
X169790324Y-66811870D01*
X169480130Y-66501676D01*
X169115380Y-66257958D01*
X168710092Y-66090082D01*
X168612266Y-66070623D01*
X168938380Y-65935542D01*
X169303130Y-65691824D01*
X169613324Y-65381630D01*
X169742035Y-65189000D01*
X176134740Y-65189000D01*
X176195000Y-65194935D01*
X176255260Y-65189000D01*
X176255268Y-65189000D01*
X176435534Y-65171245D01*
X176666824Y-65101084D01*
X176879983Y-64987149D01*
X177066817Y-64833817D01*
X177105239Y-64787000D01*
X178957723Y-62934517D01*
X180923000Y-62934517D01*
X181065517Y-62920480D01*
X181202557Y-62878910D01*
X181328853Y-62811403D01*
X181439554Y-62720554D01*
X181530403Y-62609853D01*
X181597910Y-62483557D01*
X181639480Y-62346517D01*
X181653517Y-62204000D01*
X181653517Y-60224000D01*
X181639480Y-60081483D01*
X181597910Y-59944443D01*
X181530403Y-59818147D01*
X181439554Y-59707446D01*
X181328853Y-59616597D01*
X181202557Y-59549090D01*
X181065517Y-59507520D01*
X180923000Y-59493483D01*
X176963000Y-59493483D01*
X176820483Y-59507520D01*
X176683443Y-59549090D01*
X176557147Y-59616597D01*
X176446446Y-59707446D01*
X176355597Y-59818147D01*
X176288090Y-59944443D01*
X176246520Y-60081483D01*
X176232483Y-60224000D01*
X176232483Y-62189277D01*
X175686761Y-62735000D01*
X169742035Y-62735000D01*
X169613324Y-62542370D01*
X169303130Y-62232176D01*
X168938380Y-61988458D01*
X168533092Y-61820582D01*
X168102840Y-61735000D01*
X167664160Y-61735000D01*
X167233908Y-61820582D01*
X166828620Y-61988458D01*
X166463870Y-62232176D01*
X166153676Y-62542370D01*
X165909958Y-62907120D01*
X165742082Y-63312408D01*
X165656500Y-63742660D01*
X157655603Y-63742660D01*
X157584525Y-63385330D01*
X157435495Y-63025539D01*
X157219136Y-62701736D01*
X156943764Y-62426364D01*
X156619961Y-62210005D01*
X156260170Y-62060975D01*
X155878218Y-61985000D01*
X155488782Y-61985000D01*
X155106830Y-62060975D01*
X154747039Y-62210005D01*
X154423236Y-62426364D01*
X154147864Y-62701736D01*
X154125638Y-62735000D01*
X153687740Y-62735000D01*
X152018946Y-61066207D01*
X152031500Y-61003095D01*
X152031500Y-60662905D01*
X151965132Y-60329253D01*
X151834947Y-60014959D01*
X151645948Y-59732102D01*
X151405398Y-59491552D01*
X151122541Y-59302553D01*
X150808247Y-59172368D01*
X150474595Y-59106000D01*
X150134405Y-59106000D01*
X150071293Y-59118554D01*
X149182000Y-58229261D01*
X149182000Y-57471452D01*
X149304500Y-57483517D01*
X151304500Y-57483517D01*
X151447017Y-57469480D01*
X151557563Y-57435947D01*
X151506500Y-57692660D01*
X151506500Y-58131340D01*
X151592082Y-58561592D01*
X151759958Y-58966880D01*
X152003676Y-59331630D01*
X152313870Y-59641824D01*
X152678620Y-59885542D01*
X153083908Y-60053418D01*
X153514160Y-60139000D01*
X153952840Y-60139000D01*
X154383092Y-60053418D01*
X154788380Y-59885542D01*
X155153130Y-59641824D01*
X155463324Y-59331630D01*
X155707042Y-58966880D01*
X155874918Y-58561592D01*
X155960500Y-58131340D01*
X155960500Y-57692660D01*
X155915303Y-57465437D01*
X155939740Y-57441000D01*
X176741583Y-57441000D01*
X176994471Y-57648540D01*
X177292754Y-57807976D01*
X177616409Y-57906156D01*
X177868657Y-57931000D01*
X180017343Y-57931000D01*
X180269591Y-57906156D01*
X180593246Y-57807976D01*
X180891529Y-57648540D01*
X181152976Y-57433976D01*
X181367540Y-57172529D01*
X181526976Y-56874246D01*
X181625156Y-56550591D01*
X181658307Y-56214000D01*
X181625156Y-55877409D01*
X181526976Y-55553754D01*
X181367540Y-55255471D01*
X181152976Y-54994024D01*
X180891529Y-54779460D01*
X180593246Y-54620024D01*
X180269591Y-54521844D01*
X180017343Y-54497000D01*
X177868657Y-54497000D01*
X177616409Y-54521844D01*
X177292754Y-54620024D01*
X176994471Y-54779460D01*
X176741583Y-54987000D01*
X155491763Y-54987000D01*
X155431500Y-54981065D01*
X155371237Y-54987000D01*
X155371232Y-54987000D01*
X155311446Y-54992889D01*
X155190966Y-55004754D01*
X154959676Y-55074916D01*
X154746517Y-55188851D01*
X154559683Y-55342183D01*
X154521265Y-55388995D01*
X154180063Y-55730197D01*
X153952840Y-55685000D01*
X153514160Y-55685000D01*
X153083908Y-55770582D01*
X152678620Y-55938458D01*
X152313870Y-56182176D01*
X152035017Y-56461029D01*
X152035017Y-54753000D01*
X152020980Y-54610483D01*
X151979410Y-54473443D01*
X151911903Y-54347147D01*
X151821054Y-54236446D01*
X151710353Y-54145597D01*
X151584057Y-54078090D01*
X151447017Y-54036520D01*
X151304500Y-54022483D01*
X151277500Y-54022483D01*
X151277500Y-53813260D01*
X151283435Y-53753000D01*
X151277500Y-53692740D01*
X151277500Y-53692732D01*
X151259745Y-53512466D01*
X151195779Y-53301597D01*
X151189584Y-53281175D01*
X151186607Y-53275605D01*
X154549500Y-53275605D01*
X154675414Y-53565577D01*
X155007626Y-53731433D01*
X155365812Y-53829290D01*
X155736206Y-53855389D01*
X156104575Y-53808725D01*
X156456762Y-53691094D01*
X156691586Y-53565577D01*
X156817500Y-53275605D01*
X155683500Y-52141605D01*
X154549500Y-53275605D01*
X151186607Y-53275605D01*
X151133429Y-53176117D01*
X151075649Y-53068017D01*
X150922317Y-52881183D01*
X150875505Y-52842765D01*
X150601432Y-52568693D01*
X150631149Y-52532483D01*
X150745084Y-52319324D01*
X150815245Y-52088034D01*
X150822467Y-52014706D01*
X153790111Y-52014706D01*
X153836775Y-52383075D01*
X153954406Y-52735262D01*
X154079923Y-52970086D01*
X154369895Y-53096000D01*
X155503895Y-51962000D01*
X155863105Y-51962000D01*
X156997105Y-53096000D01*
X157287077Y-52970086D01*
X157452933Y-52637874D01*
X157550790Y-52279688D01*
X157576889Y-51909294D01*
X157530225Y-51540925D01*
X157412594Y-51188738D01*
X157287077Y-50953914D01*
X156997105Y-50828000D01*
X155863105Y-51962000D01*
X155503895Y-51962000D01*
X154369895Y-50828000D01*
X154079923Y-50953914D01*
X153914067Y-51286126D01*
X153816210Y-51644312D01*
X153790111Y-52014706D01*
X150822467Y-52014706D01*
X150833000Y-51907768D01*
X150833000Y-51907761D01*
X150838935Y-51847501D01*
X150833000Y-51787241D01*
X150833000Y-51204193D01*
X150959210Y-51015306D01*
X151074319Y-50737410D01*
X151092024Y-50648395D01*
X154549500Y-50648395D01*
X155683500Y-51782395D01*
X156817500Y-50648395D01*
X156691586Y-50358423D01*
X156359374Y-50192567D01*
X156001188Y-50094710D01*
X155630794Y-50068611D01*
X155262425Y-50115275D01*
X154910238Y-50232906D01*
X154675414Y-50358423D01*
X154549500Y-50648395D01*
X151092024Y-50648395D01*
X151133000Y-50442396D01*
X151133000Y-50141604D01*
X151074319Y-49846590D01*
X150959210Y-49568694D01*
X150792099Y-49318594D01*
X150579406Y-49105901D01*
X150329306Y-48938790D01*
X150051410Y-48823681D01*
X149828602Y-48779362D01*
X149664600Y-48615361D01*
X149664600Y-46289689D01*
X149676959Y-46297947D01*
X149991253Y-46428132D01*
X150130613Y-46455853D01*
X152236765Y-48562005D01*
X152275183Y-48608817D01*
X152462017Y-48762149D01*
X152675176Y-48876084D01*
X152906466Y-48946245D01*
X153086732Y-48964000D01*
X153086739Y-48964000D01*
X153146999Y-48969935D01*
X153207259Y-48964000D01*
X154086138Y-48964000D01*
X154108364Y-48997264D01*
X154383736Y-49272636D01*
X154707539Y-49488995D01*
X155067330Y-49638025D01*
X155449282Y-49714000D01*
X155838718Y-49714000D01*
X156220670Y-49638025D01*
X156580461Y-49488995D01*
X156904264Y-49272636D01*
X157179636Y-48997264D01*
X157395995Y-48673461D01*
X157545025Y-48313670D01*
X157621000Y-47931718D01*
X157621000Y-47542282D01*
X157616103Y-47517660D01*
X165617000Y-47517660D01*
X165617000Y-47956340D01*
X165702582Y-48386592D01*
X165870458Y-48791880D01*
X166114176Y-49156630D01*
X166424370Y-49466824D01*
X166789120Y-49710542D01*
X167108989Y-49843036D01*
X166878620Y-49938458D01*
X166513870Y-50182176D01*
X166203676Y-50492370D01*
X165959958Y-50857120D01*
X165792082Y-51262408D01*
X165706500Y-51692660D01*
X165706500Y-52131340D01*
X165792082Y-52561592D01*
X165959958Y-52966880D01*
X166203676Y-53331630D01*
X166513870Y-53641824D01*
X166878620Y-53885542D01*
X167283908Y-54053418D01*
X167714160Y-54139000D01*
X168152840Y-54139000D01*
X168583092Y-54053418D01*
X168988380Y-53885542D01*
X169353130Y-53641824D01*
X169663324Y-53331630D01*
X169907042Y-52966880D01*
X170074918Y-52561592D01*
X170160500Y-52131340D01*
X170160500Y-51692660D01*
X170074918Y-51262408D01*
X169907042Y-50857120D01*
X169663324Y-50492370D01*
X169353130Y-50182176D01*
X168988380Y-49938458D01*
X168668511Y-49805964D01*
X168898880Y-49710542D01*
X169263630Y-49466824D01*
X169573824Y-49156630D01*
X169702535Y-48964000D01*
X176357740Y-48964000D01*
X176418000Y-48969935D01*
X176478260Y-48964000D01*
X176478268Y-48964000D01*
X176658534Y-48946245D01*
X176889824Y-48876084D01*
X177102983Y-48762149D01*
X177289817Y-48608817D01*
X177328239Y-48562000D01*
X178830723Y-47059517D01*
X180796000Y-47059517D01*
X180938517Y-47045480D01*
X181075557Y-47003910D01*
X181201853Y-46936403D01*
X181312554Y-46845554D01*
X181403403Y-46734853D01*
X181470910Y-46608557D01*
X181512480Y-46471517D01*
X181526517Y-46329000D01*
X181526517Y-44349000D01*
X181512480Y-44206483D01*
X181470910Y-44069443D01*
X181403403Y-43943147D01*
X181312554Y-43832446D01*
X181201853Y-43741597D01*
X181075557Y-43674090D01*
X180938517Y-43632520D01*
X180796000Y-43618483D01*
X176836000Y-43618483D01*
X176693483Y-43632520D01*
X176556443Y-43674090D01*
X176430147Y-43741597D01*
X176319446Y-43832446D01*
X176228597Y-43943147D01*
X176161090Y-44069443D01*
X176119520Y-44206483D01*
X176105483Y-44349000D01*
X176105483Y-46314278D01*
X175909761Y-46510000D01*
X169702535Y-46510000D01*
X169573824Y-46317370D01*
X169263630Y-46007176D01*
X168898880Y-45763458D01*
X168493592Y-45595582D01*
X168063340Y-45510000D01*
X167624660Y-45510000D01*
X167194408Y-45595582D01*
X166789120Y-45763458D01*
X166424370Y-46007176D01*
X166114176Y-46317370D01*
X165870458Y-46682120D01*
X165702582Y-47087408D01*
X165617000Y-47517660D01*
X157616103Y-47517660D01*
X157545025Y-47160330D01*
X157395995Y-46800539D01*
X157179636Y-46476736D01*
X156904264Y-46201364D01*
X156580461Y-45985005D01*
X156220670Y-45835975D01*
X155838718Y-45760000D01*
X155449282Y-45760000D01*
X155067330Y-45835975D01*
X154707539Y-45985005D01*
X154383736Y-46201364D01*
X154108364Y-46476736D01*
X154086138Y-46510000D01*
X153655240Y-46510000D01*
X152198911Y-45053671D01*
X152222000Y-44937595D01*
X152222000Y-44597405D01*
X152155632Y-44263753D01*
X152025447Y-43949459D01*
X151836448Y-43666602D01*
X151595898Y-43426052D01*
X151404500Y-43298164D01*
X151404500Y-41906763D01*
X151410435Y-41846500D01*
X151404500Y-41786237D01*
X151404500Y-41786232D01*
X151394776Y-41687501D01*
X151386746Y-41605967D01*
X151329731Y-41418017D01*
X151476875Y-41418017D01*
X151467000Y-41467660D01*
X151467000Y-41906340D01*
X151552582Y-42336592D01*
X151720458Y-42741880D01*
X151964176Y-43106630D01*
X152274370Y-43416824D01*
X152639120Y-43660542D01*
X153044408Y-43828418D01*
X153474660Y-43914000D01*
X153913340Y-43914000D01*
X154343592Y-43828418D01*
X154748880Y-43660542D01*
X155113630Y-43416824D01*
X155423824Y-43106630D01*
X155667542Y-42741880D01*
X155835418Y-42336592D01*
X155921000Y-41906340D01*
X155921000Y-41566000D01*
X176614583Y-41566000D01*
X176867471Y-41773540D01*
X177165754Y-41932976D01*
X177489409Y-42031156D01*
X177741657Y-42056000D01*
X179890343Y-42056000D01*
X180142591Y-42031156D01*
X180466246Y-41932976D01*
X180764529Y-41773540D01*
X181025976Y-41558976D01*
X181240540Y-41297529D01*
X181399976Y-40999246D01*
X181498156Y-40675591D01*
X181531307Y-40339000D01*
X181498156Y-40002409D01*
X181399976Y-39678754D01*
X181240540Y-39380471D01*
X181025976Y-39119024D01*
X180764529Y-38904460D01*
X180466246Y-38745024D01*
X180142591Y-38646844D01*
X179890343Y-38622000D01*
X177741657Y-38622000D01*
X177489409Y-38646844D01*
X177165754Y-38745024D01*
X176867471Y-38904460D01*
X176614583Y-39112000D01*
X155102263Y-39112000D01*
X155042000Y-39106065D01*
X154981737Y-39112000D01*
X154981732Y-39112000D01*
X154921946Y-39117889D01*
X154801466Y-39129754D01*
X154570176Y-39199916D01*
X154357017Y-39313851D01*
X154289013Y-39369661D01*
X154216995Y-39428764D01*
X154216989Y-39428770D01*
X154170183Y-39467183D01*
X154139207Y-39504927D01*
X153913340Y-39460000D01*
X153474660Y-39460000D01*
X153044408Y-39545582D01*
X152639120Y-39713458D01*
X152274370Y-39957176D01*
X152225517Y-40006029D01*
X152225517Y-38687500D01*
X152211480Y-38544983D01*
X152169910Y-38407943D01*
X152102403Y-38281647D01*
X152011554Y-38170946D01*
X151900853Y-38080097D01*
X151774557Y-38012590D01*
X151637517Y-37971020D01*
X151495000Y-37956983D01*
X151404500Y-37956983D01*
X151404500Y-37050605D01*
X154510000Y-37050605D01*
X154635914Y-37340577D01*
X154968126Y-37506433D01*
X155326312Y-37604290D01*
X155696706Y-37630389D01*
X156065075Y-37583725D01*
X156417262Y-37466094D01*
X156652086Y-37340577D01*
X156778000Y-37050605D01*
X155644000Y-35916605D01*
X154510000Y-37050605D01*
X151404500Y-37050605D01*
X151404500Y-35789706D01*
X153750611Y-35789706D01*
X153797275Y-36158075D01*
X153914906Y-36510262D01*
X154040423Y-36745086D01*
X154330395Y-36871000D01*
X155464395Y-35737000D01*
X155823605Y-35737000D01*
X156957605Y-36871000D01*
X157247577Y-36745086D01*
X157413433Y-36412874D01*
X157511290Y-36054688D01*
X157537389Y-35684294D01*
X157490725Y-35315925D01*
X157373094Y-34963738D01*
X157247577Y-34728914D01*
X156957605Y-34603000D01*
X155823605Y-35737000D01*
X155464395Y-35737000D01*
X154330395Y-34603000D01*
X154040423Y-34728914D01*
X153874567Y-35061126D01*
X153776710Y-35419312D01*
X153750611Y-35789706D01*
X151404500Y-35789706D01*
X151404500Y-34798657D01*
X151450500Y-34567396D01*
X151450500Y-34423395D01*
X154510000Y-34423395D01*
X155644000Y-35557395D01*
X156778000Y-34423395D01*
X156652086Y-34133423D01*
X156319874Y-33967567D01*
X155961688Y-33869710D01*
X155591294Y-33843611D01*
X155222925Y-33890275D01*
X154870738Y-34007906D01*
X154635914Y-34133423D01*
X154510000Y-34423395D01*
X151450500Y-34423395D01*
X151450500Y-34266604D01*
X151391819Y-33971590D01*
X151276710Y-33693694D01*
X151109599Y-33443594D01*
X150896906Y-33230901D01*
X150646806Y-33063790D01*
X150368910Y-32948681D01*
X150146102Y-32904362D01*
X149785499Y-32543760D01*
X149785499Y-29870103D01*
X149920130Y-29925869D01*
X152269265Y-32275005D01*
X152307683Y-32321817D01*
X152494517Y-32475149D01*
X152707676Y-32589084D01*
X152938966Y-32659245D01*
X153119232Y-32677000D01*
X153119239Y-32677000D01*
X153179499Y-32682935D01*
X153239759Y-32677000D01*
X154062138Y-32677000D01*
X154084364Y-32710264D01*
X154359736Y-32985636D01*
X154683539Y-33201995D01*
X155043330Y-33351025D01*
X155425282Y-33427000D01*
X155814718Y-33427000D01*
X156196670Y-33351025D01*
X156556461Y-33201995D01*
X156880264Y-32985636D01*
X157155636Y-32710264D01*
X157371995Y-32386461D01*
X157521025Y-32026670D01*
X157597000Y-31644718D01*
X157597000Y-31255282D01*
X157592103Y-31230660D01*
X165593000Y-31230660D01*
X165593000Y-31669340D01*
X165678582Y-32099592D01*
X165846458Y-32504880D01*
X166090176Y-32869630D01*
X166400370Y-33179824D01*
X166765120Y-33423542D01*
X167152079Y-33583826D01*
X166839120Y-33713458D01*
X166474370Y-33957176D01*
X166164176Y-34267370D01*
X165920458Y-34632120D01*
X165752582Y-35037408D01*
X165667000Y-35467660D01*
X165667000Y-35906340D01*
X165752582Y-36336592D01*
X165920458Y-36741880D01*
X166164176Y-37106630D01*
X166474370Y-37416824D01*
X166839120Y-37660542D01*
X167244408Y-37828418D01*
X167674660Y-37914000D01*
X168113340Y-37914000D01*
X168543592Y-37828418D01*
X168948880Y-37660542D01*
X169313630Y-37416824D01*
X169623824Y-37106630D01*
X169867542Y-36741880D01*
X170035418Y-36336592D01*
X170121000Y-35906340D01*
X170121000Y-35467660D01*
X170035418Y-35037408D01*
X169867542Y-34632120D01*
X169623824Y-34267370D01*
X169313630Y-33957176D01*
X168948880Y-33713458D01*
X168561921Y-33553174D01*
X168874880Y-33423542D01*
X169239630Y-33179824D01*
X169549824Y-32869630D01*
X169678535Y-32677000D01*
X176071240Y-32677000D01*
X176131500Y-32682935D01*
X176191760Y-32677000D01*
X176191768Y-32677000D01*
X176372034Y-32659245D01*
X176603324Y-32589084D01*
X176816483Y-32475149D01*
X177003317Y-32321817D01*
X177041739Y-32275000D01*
X179021223Y-30295517D01*
X180986500Y-30295517D01*
X181129017Y-30281480D01*
X181266057Y-30239910D01*
X181392353Y-30172403D01*
X181503054Y-30081554D01*
X181593903Y-29970853D01*
X181661410Y-29844557D01*
X181702980Y-29707517D01*
X181717017Y-29565000D01*
X181717017Y-27585000D01*
X181702980Y-27442483D01*
X181661410Y-27305443D01*
X181593903Y-27179147D01*
X181503054Y-27068446D01*
X181392353Y-26977597D01*
X181266057Y-26910090D01*
X181129017Y-26868520D01*
X180986500Y-26854483D01*
X177026500Y-26854483D01*
X176883983Y-26868520D01*
X176746943Y-26910090D01*
X176620647Y-26977597D01*
X176509946Y-27068446D01*
X176419097Y-27179147D01*
X176351590Y-27305443D01*
X176310020Y-27442483D01*
X176295983Y-27585000D01*
X176295983Y-29550278D01*
X175623261Y-30223000D01*
X169678535Y-30223000D01*
X169549824Y-30030370D01*
X169239630Y-29720176D01*
X168874880Y-29476458D01*
X168469592Y-29308582D01*
X168039340Y-29223000D01*
X167600660Y-29223000D01*
X167170408Y-29308582D01*
X166765120Y-29476458D01*
X166400370Y-29720176D01*
X166090176Y-30030370D01*
X165846458Y-30395120D01*
X165678582Y-30800408D01*
X165593000Y-31230660D01*
X157592103Y-31230660D01*
X157521025Y-30873330D01*
X157371995Y-30513539D01*
X157155636Y-30189736D01*
X156880264Y-29914364D01*
X156556461Y-29698005D01*
X156196670Y-29548975D01*
X155814718Y-29473000D01*
X155425282Y-29473000D01*
X155043330Y-29548975D01*
X154683539Y-29698005D01*
X154359736Y-29914364D01*
X154084364Y-30189736D01*
X154062138Y-30223000D01*
X153687740Y-30223000D01*
X152230805Y-28766065D01*
X152285500Y-28491095D01*
X152285500Y-28150905D01*
X152219132Y-27817253D01*
X152088947Y-27502959D01*
X151899948Y-27220102D01*
X151659398Y-26979552D01*
X151381764Y-26794043D01*
X151316584Y-26579176D01*
X151287374Y-26524528D01*
X151202649Y-26366017D01*
X151049317Y-26179183D01*
X151002505Y-26140765D01*
X149833257Y-24971517D01*
X151484601Y-24971517D01*
X151443000Y-25180660D01*
X151443000Y-25619340D01*
X151528582Y-26049592D01*
X151696458Y-26454880D01*
X151940176Y-26819630D01*
X152250370Y-27129824D01*
X152615120Y-27373542D01*
X153020408Y-27541418D01*
X153450660Y-27627000D01*
X153889340Y-27627000D01*
X154319592Y-27541418D01*
X154724880Y-27373542D01*
X155089630Y-27129824D01*
X155399824Y-26819630D01*
X155643542Y-26454880D01*
X155811418Y-26049592D01*
X155897000Y-25619340D01*
X155897000Y-25180660D01*
X155851803Y-24953437D01*
X156003240Y-24802000D01*
X176805083Y-24802000D01*
X177057971Y-25009540D01*
X177356254Y-25168976D01*
X177679909Y-25267156D01*
X177932157Y-25292000D01*
X180080843Y-25292000D01*
X180333091Y-25267156D01*
X180656746Y-25168976D01*
X180955029Y-25009540D01*
X181216476Y-24794976D01*
X181431040Y-24533529D01*
X181590476Y-24235246D01*
X181688656Y-23911591D01*
X181721807Y-23575000D01*
X181688656Y-23238409D01*
X181590476Y-22914754D01*
X181431040Y-22616471D01*
X181216476Y-22355024D01*
X180955029Y-22140460D01*
X180656746Y-21981024D01*
X180333091Y-21882844D01*
X180080843Y-21858000D01*
X177932157Y-21858000D01*
X177679909Y-21882844D01*
X177356254Y-21981024D01*
X177057971Y-22140460D01*
X176805083Y-22348000D01*
X155555263Y-22348000D01*
X155495000Y-22342065D01*
X155434737Y-22348000D01*
X155434732Y-22348000D01*
X155374946Y-22353889D01*
X155254466Y-22365754D01*
X155023176Y-22435916D01*
X154810017Y-22549851D01*
X154623183Y-22703183D01*
X154584765Y-22749995D01*
X154116563Y-23218197D01*
X153889340Y-23173000D01*
X153450660Y-23173000D01*
X153020408Y-23258582D01*
X152615120Y-23426458D01*
X152289017Y-23644353D01*
X152289017Y-22241000D01*
X152274980Y-22098483D01*
X152233410Y-21961443D01*
X152165903Y-21835147D01*
X152075054Y-21724446D01*
X151964353Y-21633597D01*
X151838057Y-21566090D01*
X151701017Y-21524520D01*
X151558500Y-21510483D01*
X151404500Y-21510483D01*
X151404500Y-20763605D01*
X154486000Y-20763605D01*
X154611914Y-21053577D01*
X154944126Y-21219433D01*
X155302312Y-21317290D01*
X155672706Y-21343389D01*
X156041075Y-21296725D01*
X156393262Y-21179094D01*
X156628086Y-21053577D01*
X156754000Y-20763605D01*
X155620000Y-19629605D01*
X154486000Y-20763605D01*
X151404500Y-20763605D01*
X151404500Y-19502706D01*
X153726611Y-19502706D01*
X153773275Y-19871075D01*
X153890906Y-20223262D01*
X154016423Y-20458086D01*
X154306395Y-20584000D01*
X155440395Y-19450000D01*
X155799605Y-19450000D01*
X156933605Y-20584000D01*
X157223577Y-20458086D01*
X157389433Y-20125874D01*
X157487290Y-19767688D01*
X157513389Y-19397294D01*
X157485947Y-19180660D01*
X165643000Y-19180660D01*
X165643000Y-19619340D01*
X165728582Y-20049592D01*
X165896458Y-20454880D01*
X166140176Y-20819630D01*
X166450370Y-21129824D01*
X166815120Y-21373542D01*
X167220408Y-21541418D01*
X167650660Y-21627000D01*
X168089340Y-21627000D01*
X168519592Y-21541418D01*
X168924880Y-21373542D01*
X169289630Y-21129824D01*
X169599824Y-20819630D01*
X169843542Y-20454880D01*
X170011418Y-20049592D01*
X170097000Y-19619340D01*
X170097000Y-19180660D01*
X170011418Y-18750408D01*
X169843542Y-18345120D01*
X169599824Y-17980370D01*
X169289630Y-17670176D01*
X168924880Y-17426458D01*
X168519592Y-17258582D01*
X168201003Y-17195211D01*
X181213400Y-17195211D01*
X181213400Y-17653589D01*
X181302826Y-18103161D01*
X181478240Y-18526648D01*
X181732901Y-18907776D01*
X182057024Y-19231899D01*
X182438152Y-19486560D01*
X182861639Y-19661974D01*
X183311211Y-19751400D01*
X183769589Y-19751400D01*
X184219161Y-19661974D01*
X184642648Y-19486560D01*
X185023776Y-19231899D01*
X185347899Y-18907776D01*
X185602560Y-18526648D01*
X185777974Y-18103161D01*
X185867400Y-17653589D01*
X185867400Y-17195211D01*
X185777974Y-16745639D01*
X185602560Y-16322152D01*
X185347899Y-15941024D01*
X185023776Y-15616901D01*
X184642648Y-15362240D01*
X184219161Y-15186826D01*
X183769589Y-15097400D01*
X183311211Y-15097400D01*
X182861639Y-15186826D01*
X182438152Y-15362240D01*
X182057024Y-15616901D01*
X181732901Y-15941024D01*
X181478240Y-16322152D01*
X181302826Y-16745639D01*
X181213400Y-17195211D01*
X168201003Y-17195211D01*
X168089340Y-17173000D01*
X167650660Y-17173000D01*
X167220408Y-17258582D01*
X166815120Y-17426458D01*
X166450370Y-17670176D01*
X166140176Y-17980370D01*
X165896458Y-18345120D01*
X165728582Y-18750408D01*
X165643000Y-19180660D01*
X157485947Y-19180660D01*
X157466725Y-19028925D01*
X157349094Y-18676738D01*
X157223577Y-18441914D01*
X156933605Y-18316000D01*
X155799605Y-19450000D01*
X155440395Y-19450000D01*
X154306395Y-18316000D01*
X154016423Y-18441914D01*
X153850567Y-18774126D01*
X153752710Y-19132312D01*
X153726611Y-19502706D01*
X151404500Y-19502706D01*
X151404500Y-19439846D01*
X151582448Y-19261898D01*
X151771447Y-18979041D01*
X151901632Y-18664747D01*
X151968000Y-18331095D01*
X151968000Y-18136395D01*
X154486000Y-18136395D01*
X155620000Y-19270395D01*
X156754000Y-18136395D01*
X156628086Y-17846423D01*
X156295874Y-17680567D01*
X155937688Y-17582710D01*
X155567294Y-17556611D01*
X155198925Y-17603275D01*
X154846738Y-17720906D01*
X154611914Y-17846423D01*
X154486000Y-18136395D01*
X151968000Y-18136395D01*
X151968000Y-17990905D01*
X151901632Y-17657253D01*
X151771447Y-17342959D01*
X151582448Y-17060102D01*
X151341898Y-16819552D01*
X151059041Y-16630553D01*
X150744747Y-16500368D01*
X150411095Y-16434000D01*
X150249239Y-16434000D01*
X149679450Y-15864211D01*
X149641028Y-15817394D01*
X149454194Y-15664062D01*
X149241035Y-15550127D01*
X149009745Y-15479966D01*
X148829479Y-15462211D01*
X148829471Y-15462211D01*
X148769211Y-15456276D01*
X148708951Y-15462211D01*
X144580550Y-15462211D01*
X144520287Y-15456276D01*
X144460024Y-15462211D01*
X144460019Y-15462211D01*
X144400233Y-15468100D01*
X144279753Y-15479965D01*
X144102295Y-15533797D01*
X144048463Y-15550127D01*
X143835304Y-15664062D01*
X143648470Y-15817394D01*
X143610048Y-15864211D01*
X143447000Y-16027259D01*
X143400183Y-16065681D01*
X143246851Y-16252516D01*
X143132916Y-16465675D01*
X143062755Y-16696965D01*
X143045000Y-16877231D01*
X143045000Y-16877238D01*
X143039065Y-16937498D01*
X143045000Y-16997758D01*
X143045001Y-20704330D01*
X142869203Y-20918541D01*
X142727410Y-21183816D01*
X142640095Y-21471657D01*
X142618000Y-21695990D01*
X142618000Y-21909594D01*
X139230089Y-18521684D01*
X139268000Y-18331095D01*
X139268000Y-17990905D01*
X139201632Y-17657253D01*
X139071447Y-17342959D01*
X138882448Y-17060102D01*
X138641898Y-16819552D01*
X138359041Y-16630553D01*
X138044747Y-16500368D01*
X137711095Y-16434000D01*
X137370905Y-16434000D01*
X137037253Y-16500368D01*
X136722959Y-16630553D01*
X136440102Y-16819552D01*
X136199552Y-17060102D01*
X136010553Y-17342959D01*
X135880368Y-17657253D01*
X135814000Y-17990905D01*
X135814000Y-18331095D01*
X135880368Y-18664747D01*
X136010553Y-18979041D01*
X136199552Y-19261898D01*
X136440102Y-19502448D01*
X136722959Y-19691447D01*
X137037253Y-19821632D01*
X137065098Y-19827171D01*
X140070618Y-22832692D01*
X139991680Y-22790498D01*
X139871982Y-22754188D01*
X139747500Y-22741928D01*
X139033250Y-22745000D01*
X138874500Y-22903750D01*
X138874500Y-24003000D01*
X140223750Y-24003000D01*
X140382500Y-23844250D01*
X140385572Y-23380000D01*
X140373312Y-23255518D01*
X140337002Y-23135820D01*
X140294808Y-23056882D01*
X140695501Y-23457575D01*
X140695500Y-25974739D01*
X140689565Y-26035000D01*
X140695500Y-26095260D01*
X140695500Y-26095267D01*
X140713255Y-26275533D01*
X140783416Y-26506823D01*
X140897351Y-26719982D01*
X141050683Y-26906817D01*
X141097500Y-26945239D01*
X142626029Y-28473769D01*
X142614483Y-28591000D01*
X142614483Y-30472200D01*
X141744940Y-30472200D01*
X140474500Y-29201761D01*
X140474500Y-29039905D01*
X140408132Y-28706253D01*
X140277947Y-28391959D01*
X140088948Y-28109102D01*
X139849136Y-27869290D01*
X140011273Y-27707152D01*
X140189328Y-27440673D01*
X140311975Y-27144578D01*
X140374500Y-26830245D01*
X140374500Y-26509755D01*
X140311975Y-26195422D01*
X140189328Y-25899327D01*
X140011273Y-25632848D01*
X139881385Y-25502960D01*
X139991680Y-25469502D01*
X140101994Y-25410537D01*
X140198685Y-25331185D01*
X140278037Y-25234494D01*
X140337002Y-25124180D01*
X140373312Y-25004482D01*
X140385572Y-24880000D01*
X140382500Y-24415750D01*
X140223750Y-24257000D01*
X138874500Y-24257000D01*
X138874500Y-24277000D01*
X138620500Y-24277000D01*
X138620500Y-24257000D01*
X137271250Y-24257000D01*
X137112500Y-24415750D01*
X137109428Y-24880000D01*
X137121688Y-25004482D01*
X137157998Y-25124180D01*
X137216963Y-25234494D01*
X137296315Y-25331185D01*
X137393006Y-25410537D01*
X137453739Y-25443000D01*
X136966195Y-25443000D01*
X136843622Y-25361099D01*
X136574825Y-25249760D01*
X136289472Y-25193000D01*
X135998528Y-25193000D01*
X135713175Y-25249760D01*
X135444378Y-25361099D01*
X135202467Y-25522739D01*
X134996739Y-25728467D01*
X134835099Y-25970378D01*
X134723760Y-26239175D01*
X134667000Y-26524528D01*
X134667000Y-26815472D01*
X134723760Y-27100825D01*
X134835099Y-27369622D01*
X134996739Y-27611533D01*
X135202467Y-27817261D01*
X135444378Y-27978901D01*
X135713175Y-28090240D01*
X135998528Y-28147000D01*
X136289472Y-28147000D01*
X136574825Y-28090240D01*
X136843622Y-27978901D01*
X136966195Y-27897000D01*
X137618154Y-27897000D01*
X137406052Y-28109102D01*
X137217053Y-28391959D01*
X137086868Y-28706253D01*
X137020500Y-29039905D01*
X137020500Y-29380095D01*
X137086868Y-29713747D01*
X137217053Y-30028041D01*
X137406052Y-30310898D01*
X137646602Y-30551448D01*
X137929459Y-30740447D01*
X138243753Y-30870632D01*
X138577405Y-30937000D01*
X138739261Y-30937000D01*
X140326465Y-32524205D01*
X140364883Y-32571017D01*
X140551717Y-32724349D01*
X140764876Y-32838284D01*
X140996166Y-32908445D01*
X141176432Y-32926200D01*
X141176439Y-32926200D01*
X141236699Y-32932135D01*
X141296959Y-32926200D01*
X145774910Y-32926200D01*
X145835170Y-32932135D01*
X145895430Y-32926200D01*
X145895438Y-32926200D01*
X146075704Y-32908445D01*
X146306994Y-32838284D01*
X146520153Y-32724349D01*
X146706987Y-32571017D01*
X146745409Y-32524200D01*
X147331499Y-31938110D01*
X147331499Y-32991739D01*
X147325564Y-33051999D01*
X147331499Y-33112259D01*
X147331499Y-33112266D01*
X147339155Y-33190000D01*
X146756893Y-33190000D01*
X146696630Y-33184065D01*
X146636367Y-33190000D01*
X146636362Y-33190000D01*
X146576576Y-33195889D01*
X146456096Y-33207754D01*
X146232273Y-33275651D01*
X146224806Y-33277916D01*
X146011647Y-33391851D01*
X145968231Y-33427482D01*
X145871625Y-33506764D01*
X145871619Y-33506770D01*
X145824813Y-33545183D01*
X145786400Y-33591989D01*
X143193000Y-36185391D01*
X143146183Y-36223813D01*
X142992851Y-36410648D01*
X142878916Y-36623807D01*
X142808755Y-36855097D01*
X142791000Y-37035363D01*
X142791000Y-37035370D01*
X142785065Y-37095630D01*
X142787411Y-37119454D01*
X142742203Y-37174541D01*
X142600410Y-37439816D01*
X142513095Y-37727657D01*
X142491000Y-37951990D01*
X142491000Y-38502011D01*
X142513095Y-38726344D01*
X142600410Y-39014185D01*
X142742203Y-39279460D01*
X142791000Y-39338919D01*
X142791000Y-39389076D01*
X142785065Y-39449336D01*
X142791000Y-39509596D01*
X142791000Y-39509603D01*
X142808755Y-39689869D01*
X142878916Y-39921159D01*
X142992851Y-40134318D01*
X143146183Y-40321153D01*
X143193000Y-40359575D01*
X147026977Y-44193552D01*
X146857343Y-44142095D01*
X146558000Y-44112612D01*
X146258656Y-44142095D01*
X145970815Y-44229410D01*
X145705540Y-44371203D01*
X145484833Y-44552332D01*
X145425403Y-44441147D01*
X145334554Y-44330446D01*
X145245000Y-44256952D01*
X145245000Y-44002260D01*
X145250935Y-43942000D01*
X145245000Y-43881740D01*
X145245000Y-43881732D01*
X145227245Y-43701466D01*
X145214831Y-43660542D01*
X145157084Y-43470175D01*
X145069865Y-43307000D01*
X145043149Y-43257017D01*
X144889817Y-43070183D01*
X144843005Y-43031765D01*
X142197000Y-40385761D01*
X142197000Y-38973059D01*
X142202935Y-38912799D01*
X142197000Y-38852539D01*
X142197000Y-38852532D01*
X142179245Y-38672266D01*
X142109084Y-38440976D01*
X141995149Y-38227817D01*
X141841817Y-38040983D01*
X141795000Y-38002561D01*
X141618250Y-37825811D01*
X141588749Y-37770618D01*
X141435417Y-37583783D01*
X141388605Y-37545365D01*
X138694114Y-34850874D01*
X138750500Y-34567396D01*
X138750500Y-34266604D01*
X138691819Y-33971590D01*
X138576710Y-33693694D01*
X138409599Y-33443594D01*
X138196906Y-33230901D01*
X137946806Y-33063790D01*
X137668910Y-32948681D01*
X137373896Y-32890000D01*
X137073104Y-32890000D01*
X136778090Y-32948681D01*
X136500194Y-33063790D01*
X136250094Y-33230901D01*
X136037401Y-33443594D01*
X135870290Y-33693694D01*
X135755181Y-33971590D01*
X135696500Y-34266604D01*
X135696500Y-34567396D01*
X135755181Y-34862410D01*
X135870290Y-35140306D01*
X136014224Y-35355719D01*
X136014255Y-35356033D01*
X136084416Y-35587323D01*
X136198351Y-35800482D01*
X136351683Y-35987317D01*
X136398500Y-36025739D01*
X139508951Y-39136191D01*
X139538451Y-39191382D01*
X139691783Y-39378217D01*
X139693266Y-39379434D01*
X139096750Y-39382000D01*
X138938000Y-39540750D01*
X138938000Y-40640000D01*
X138958000Y-40640000D01*
X138958000Y-40894000D01*
X138938000Y-40894000D01*
X138938000Y-40914000D01*
X138684000Y-40914000D01*
X138684000Y-40894000D01*
X137334750Y-40894000D01*
X137176000Y-41052750D01*
X137172928Y-41517000D01*
X137185188Y-41641482D01*
X137221498Y-41761180D01*
X137280463Y-41871494D01*
X137359815Y-41968185D01*
X137456506Y-42047537D01*
X137517239Y-42080000D01*
X137194795Y-42080000D01*
X137072222Y-41998099D01*
X136803425Y-41886760D01*
X136518072Y-41830000D01*
X136227128Y-41830000D01*
X135941775Y-41886760D01*
X135672978Y-41998099D01*
X135431067Y-42159739D01*
X135225339Y-42365467D01*
X135063699Y-42607378D01*
X134952360Y-42876175D01*
X134895600Y-43161528D01*
X134895600Y-43452472D01*
X134952360Y-43737825D01*
X135063699Y-44006622D01*
X135225339Y-44248533D01*
X135431067Y-44454261D01*
X135672978Y-44615901D01*
X135941775Y-44727240D01*
X136227128Y-44784000D01*
X136518072Y-44784000D01*
X136803425Y-44727240D01*
X137072222Y-44615901D01*
X137194795Y-44534000D01*
X137681654Y-44534000D01*
X137469552Y-44746102D01*
X137280553Y-45028959D01*
X137150368Y-45343253D01*
X137084000Y-45676905D01*
X137084000Y-46017095D01*
X137150368Y-46350747D01*
X137280553Y-46665041D01*
X137469552Y-46947898D01*
X137710102Y-47188448D01*
X137992959Y-47377447D01*
X138307253Y-47507632D01*
X138640905Y-47574000D01*
X138802761Y-47574000D01*
X139907365Y-48678605D01*
X139945783Y-48725417D01*
X140132617Y-48878749D01*
X140223327Y-48927234D01*
X140345775Y-48992684D01*
X140560425Y-49057797D01*
X140577066Y-49062845D01*
X140757332Y-49080600D01*
X140757340Y-49080600D01*
X140817600Y-49086535D01*
X140877860Y-49080600D01*
X145309597Y-49080600D01*
X145266980Y-49294851D01*
X145266980Y-49536549D01*
X145314133Y-49773603D01*
X145406627Y-49996902D01*
X145540907Y-50197867D01*
X145711813Y-50368773D01*
X145912778Y-50503053D01*
X146136077Y-50595547D01*
X146373131Y-50642700D01*
X146614829Y-50642700D01*
X146851883Y-50595547D01*
X147075182Y-50503053D01*
X147276147Y-50368773D01*
X147447053Y-50197867D01*
X147576467Y-50004185D01*
X147612600Y-50033839D01*
X148093362Y-50514602D01*
X148137681Y-50737410D01*
X148252790Y-51015306D01*
X148379000Y-51204193D01*
X148379000Y-51339261D01*
X148367261Y-51351000D01*
X144851893Y-51351000D01*
X144791630Y-51345065D01*
X144731367Y-51351000D01*
X144731362Y-51351000D01*
X144671576Y-51356889D01*
X144551096Y-51368754D01*
X144371054Y-51423370D01*
X144319806Y-51438916D01*
X144106647Y-51552851D01*
X143994108Y-51645210D01*
X143971330Y-51663904D01*
X143919813Y-51706183D01*
X143881395Y-51752995D01*
X143002500Y-52631891D01*
X142955683Y-52670313D01*
X142802351Y-52857148D01*
X142688416Y-53070307D01*
X142618255Y-53301597D01*
X142600500Y-53481863D01*
X142600500Y-53481870D01*
X142594565Y-53542130D01*
X142596911Y-53565954D01*
X142551703Y-53621041D01*
X142409910Y-53886316D01*
X142322595Y-54174157D01*
X142300500Y-54398490D01*
X142300500Y-54948511D01*
X142314919Y-55094913D01*
X142303005Y-55085135D01*
X138248782Y-51030913D01*
X138259210Y-51015306D01*
X138374319Y-50737410D01*
X138433000Y-50442396D01*
X138433000Y-50141604D01*
X138374319Y-49846590D01*
X138259210Y-49568694D01*
X138092099Y-49318594D01*
X137879406Y-49105901D01*
X137629306Y-48938790D01*
X137351410Y-48823681D01*
X137056396Y-48765000D01*
X136755604Y-48765000D01*
X136460590Y-48823681D01*
X136182694Y-48938790D01*
X135932594Y-49105901D01*
X135719901Y-49318594D01*
X135552790Y-49568694D01*
X135437681Y-49846590D01*
X135379000Y-50141604D01*
X135379000Y-50442396D01*
X135437681Y-50737410D01*
X135552790Y-51015306D01*
X135679000Y-51204193D01*
X135679000Y-51363110D01*
X135673065Y-51423370D01*
X135679000Y-51483630D01*
X135679000Y-51483637D01*
X135696755Y-51663903D01*
X135766916Y-51895193D01*
X135880851Y-52108352D01*
X136034183Y-52295187D01*
X136081000Y-52333609D01*
X139066926Y-55319536D01*
X138842750Y-55320500D01*
X138684000Y-55479250D01*
X138684000Y-56578500D01*
X140033250Y-56578500D01*
X140179570Y-56432180D01*
X140251001Y-56503611D01*
X140251000Y-58931239D01*
X140245065Y-58991500D01*
X140251000Y-59051760D01*
X140251000Y-59051767D01*
X140268755Y-59232033D01*
X140338916Y-59463323D01*
X140452851Y-59676482D01*
X140606183Y-59863317D01*
X140653000Y-59901739D01*
X142296983Y-61545723D01*
X142296983Y-62933400D01*
X141440140Y-62933400D01*
X140284000Y-61777261D01*
X140284000Y-61615405D01*
X140217632Y-61281753D01*
X140087447Y-60967459D01*
X139898448Y-60684602D01*
X139658636Y-60444790D01*
X139820773Y-60282652D01*
X139998828Y-60016173D01*
X140121475Y-59720078D01*
X140184000Y-59405745D01*
X140184000Y-59085255D01*
X140121475Y-58770922D01*
X139998828Y-58474827D01*
X139820773Y-58208348D01*
X139690885Y-58078460D01*
X139801180Y-58045002D01*
X139911494Y-57986037D01*
X140008185Y-57906685D01*
X140087537Y-57809994D01*
X140146502Y-57699680D01*
X140182812Y-57579982D01*
X140195072Y-57455500D01*
X140192000Y-56991250D01*
X140033250Y-56832500D01*
X138684000Y-56832500D01*
X138684000Y-56852500D01*
X138430000Y-56852500D01*
X138430000Y-56832500D01*
X137080750Y-56832500D01*
X136922000Y-56991250D01*
X136918928Y-57455500D01*
X136931188Y-57579982D01*
X136967498Y-57699680D01*
X137026463Y-57809994D01*
X137105815Y-57906685D01*
X137202506Y-57986037D01*
X137263239Y-58018500D01*
X135175559Y-58018500D01*
X135115299Y-58012565D01*
X135055039Y-58018500D01*
X135055032Y-58018500D01*
X134874766Y-58036255D01*
X134643476Y-58106416D01*
X134430317Y-58220351D01*
X134243483Y-58373683D01*
X134205065Y-58420495D01*
X132943361Y-59682200D01*
X130768595Y-59682200D01*
X130646022Y-59600299D01*
X130377225Y-59488960D01*
X130091872Y-59432200D01*
X129800928Y-59432200D01*
X129515575Y-59488960D01*
X129246778Y-59600299D01*
X129004867Y-59761939D01*
X128799139Y-59967667D01*
X128637499Y-60209578D01*
X128526160Y-60478375D01*
X128469400Y-60763728D01*
X128469400Y-61054672D01*
X128526160Y-61340025D01*
X128637499Y-61608822D01*
X128799139Y-61850733D01*
X129004867Y-62056461D01*
X129246778Y-62218101D01*
X129515575Y-62329440D01*
X129800928Y-62386200D01*
X130091872Y-62386200D01*
X130377225Y-62329440D01*
X130646022Y-62218101D01*
X130768595Y-62136200D01*
X133391340Y-62136200D01*
X133451600Y-62142135D01*
X133511860Y-62136200D01*
X133511868Y-62136200D01*
X133692134Y-62118445D01*
X133923424Y-62048284D01*
X134136583Y-61934349D01*
X134323417Y-61781017D01*
X134361839Y-61734200D01*
X135623540Y-60472500D01*
X137427654Y-60472500D01*
X137215552Y-60684602D01*
X137026553Y-60967459D01*
X136896368Y-61281753D01*
X136830000Y-61615405D01*
X136830000Y-61955595D01*
X136896368Y-62289247D01*
X137026553Y-62603541D01*
X137215552Y-62886398D01*
X137456102Y-63126948D01*
X137738959Y-63315947D01*
X138053253Y-63446132D01*
X138386905Y-63512500D01*
X138548761Y-63512500D01*
X140021665Y-64985405D01*
X140060083Y-65032217D01*
X140246917Y-65185549D01*
X140447242Y-65292624D01*
X140460076Y-65299484D01*
X140691366Y-65369646D01*
X140811846Y-65381511D01*
X140871632Y-65387400D01*
X140871637Y-65387400D01*
X140931900Y-65393335D01*
X140992163Y-65387400D01*
X144791065Y-65387400D01*
X143065996Y-67112469D01*
X143019184Y-67150887D01*
X142865852Y-67337721D01*
X142762873Y-67530383D01*
X142751917Y-67550880D01*
X142681755Y-67782171D01*
X142658065Y-68022704D01*
X142664001Y-68082974D01*
X142664000Y-70119928D01*
X142664000Y-70119940D01*
X142658065Y-70180200D01*
X142664000Y-70240460D01*
X142664000Y-70245870D01*
X142658065Y-70306130D01*
X142660411Y-70329954D01*
X142615203Y-70385041D01*
X142473410Y-70650316D01*
X142386095Y-70938157D01*
X142364000Y-71162490D01*
X142364000Y-71592630D01*
X138375782Y-67604413D01*
X138386210Y-67588806D01*
X138501319Y-67310910D01*
X138560000Y-67015896D01*
X138560000Y-66715104D01*
X138501319Y-66420090D01*
X138386210Y-66142194D01*
X138219099Y-65892094D01*
X138006406Y-65679401D01*
X137756306Y-65512290D01*
X137478410Y-65397181D01*
X137183396Y-65338500D01*
X136882604Y-65338500D01*
X136587590Y-65397181D01*
X136309694Y-65512290D01*
X136059594Y-65679401D01*
X135846901Y-65892094D01*
X135679790Y-66142194D01*
X135564681Y-66420090D01*
X135506000Y-66715104D01*
X135506000Y-67015896D01*
X135564681Y-67310910D01*
X135679790Y-67588806D01*
X135806000Y-67777693D01*
X135806000Y-67936610D01*
X135800065Y-67996870D01*
X135806000Y-68057130D01*
X135806000Y-68057137D01*
X135823755Y-68237403D01*
X135893916Y-68468693D01*
X136007851Y-68681852D01*
X136161183Y-68868687D01*
X136208000Y-68907109D01*
X139598401Y-72297511D01*
X139554482Y-72284188D01*
X139430000Y-72271928D01*
X138715750Y-72275000D01*
X138557000Y-72433750D01*
X138557000Y-73533000D01*
X139906250Y-73533000D01*
X140065000Y-73374250D01*
X140068072Y-72910000D01*
X140055812Y-72785518D01*
X140042489Y-72741599D01*
X142664001Y-75363111D01*
X142664000Y-77467451D01*
X142574446Y-77540946D01*
X142483597Y-77651647D01*
X142416090Y-77777943D01*
X142374520Y-77914983D01*
X142360483Y-78057500D01*
X142360483Y-79799000D01*
X141224240Y-79799000D01*
X140157000Y-78731761D01*
X140157000Y-78569905D01*
X140090632Y-78236253D01*
X139960447Y-77921959D01*
X139771448Y-77639102D01*
X139531636Y-77399290D01*
X139693773Y-77237152D01*
X139871828Y-76970673D01*
X139994475Y-76674578D01*
X140057000Y-76360245D01*
X140057000Y-76039755D01*
X139994475Y-75725422D01*
X139871828Y-75429327D01*
X139693773Y-75162848D01*
X139563885Y-75032960D01*
X139674180Y-74999502D01*
X139784494Y-74940537D01*
X139881185Y-74861185D01*
X139960537Y-74764494D01*
X140019502Y-74654180D01*
X140055812Y-74534482D01*
X140068072Y-74410000D01*
X140065000Y-73945750D01*
X139906250Y-73787000D01*
X138557000Y-73787000D01*
X138557000Y-73807000D01*
X138303000Y-73807000D01*
X138303000Y-73787000D01*
X136953750Y-73787000D01*
X136795000Y-73945750D01*
X136791928Y-74410000D01*
X136804188Y-74534482D01*
X136840498Y-74654180D01*
X136899463Y-74764494D01*
X136978815Y-74861185D01*
X137075506Y-74940537D01*
X137136239Y-74973000D01*
X135382240Y-74973000D01*
X133319240Y-72910000D01*
X136791928Y-72910000D01*
X136795000Y-73374250D01*
X136953750Y-73533000D01*
X138303000Y-73533000D01*
X138303000Y-72433750D01*
X138144250Y-72275000D01*
X137430000Y-72271928D01*
X137305518Y-72284188D01*
X137185820Y-72320498D01*
X137075506Y-72379463D01*
X136978815Y-72458815D01*
X136899463Y-72555506D01*
X136840498Y-72665820D01*
X136804188Y-72785518D01*
X136791928Y-72910000D01*
X133319240Y-72910000D01*
X126455186Y-66045947D01*
X126439040Y-65964775D01*
X126327701Y-65695978D01*
X126166061Y-65454067D01*
X125960333Y-65248339D01*
X125718422Y-65086699D01*
X125449625Y-64975360D01*
X125164272Y-64918600D01*
X124873328Y-64918600D01*
X124587975Y-64975360D01*
X124319178Y-65086699D01*
X124077267Y-65248339D01*
X123871539Y-65454067D01*
X123709899Y-65695978D01*
X123598560Y-65964775D01*
X123541800Y-66250128D01*
X123541800Y-66541072D01*
X123598560Y-66826425D01*
X123709899Y-67095222D01*
X123871539Y-67337133D01*
X124077267Y-67542861D01*
X124319178Y-67704501D01*
X124587975Y-67815840D01*
X124795974Y-67857213D01*
X133963765Y-77025005D01*
X134002183Y-77071817D01*
X134189017Y-77225149D01*
X134402176Y-77339084D01*
X134545596Y-77382590D01*
X134633465Y-77409245D01*
X134657240Y-77411587D01*
X134813732Y-77427000D01*
X134813739Y-77427000D01*
X134873999Y-77432935D01*
X134934259Y-77427000D01*
X137300654Y-77427000D01*
X137088552Y-77639102D01*
X136899553Y-77921959D01*
X136769368Y-78236253D01*
X136703000Y-78569905D01*
X136703000Y-78910095D01*
X136769368Y-79243747D01*
X136899553Y-79558041D01*
X137088552Y-79840898D01*
X137329102Y-80081448D01*
X137611959Y-80270447D01*
X137926253Y-80400632D01*
X138259905Y-80467000D01*
X138421761Y-80467000D01*
X139259261Y-81304501D01*
X135363741Y-81304501D01*
X126179239Y-72120000D01*
X126140817Y-72073183D01*
X126094005Y-72034765D01*
X124780500Y-70721261D01*
X124780500Y-70654490D01*
X124758405Y-70430157D01*
X124671090Y-70142316D01*
X124529297Y-69877040D01*
X124338476Y-69644524D01*
X124105960Y-69453703D01*
X123840685Y-69311910D01*
X123552844Y-69224595D01*
X123253500Y-69195112D01*
X122954157Y-69224595D01*
X122666316Y-69311910D01*
X122401041Y-69453703D01*
X122168524Y-69644524D01*
X121977703Y-69877040D01*
X121928949Y-69968252D01*
X121819173Y-69806838D01*
X121617925Y-69608861D01*
X121381921Y-69453949D01*
X121120230Y-69348056D01*
X121062539Y-69337596D01*
X120840500Y-69459585D01*
X120840500Y-70802500D01*
X120860500Y-70802500D01*
X120860500Y-71056500D01*
X120840500Y-71056500D01*
X120840500Y-72399415D01*
X121062539Y-72521404D01*
X121120230Y-72510944D01*
X121381921Y-72405051D01*
X121617925Y-72250139D01*
X121819173Y-72052162D01*
X121928949Y-71890748D01*
X121977703Y-71981959D01*
X122168524Y-72214476D01*
X122401040Y-72405297D01*
X122666315Y-72547090D01*
X122954156Y-72634405D01*
X123252556Y-72663795D01*
X124042000Y-73453240D01*
X124042001Y-77364082D01*
X123834460Y-77616972D01*
X123675024Y-77915255D01*
X123576844Y-78238910D01*
X123552000Y-78491158D01*
X123552000Y-79246260D01*
X121895906Y-80902355D01*
X121894000Y-79851250D01*
X121735250Y-79692500D01*
X120396000Y-79692500D01*
X120396000Y-82021750D01*
X120554750Y-82180500D01*
X120617487Y-82180774D01*
X119633761Y-83164500D01*
X111528593Y-83164500D01*
X111468333Y-83158565D01*
X111408073Y-83164500D01*
X111408066Y-83164500D01*
X111227800Y-83182255D01*
X110996510Y-83252416D01*
X110803152Y-83355767D01*
X110893220Y-83178855D01*
X111007244Y-82774049D01*
X111040102Y-82354776D01*
X110990534Y-81937149D01*
X110863138Y-81545500D01*
X118640928Y-81545500D01*
X118653188Y-81669982D01*
X118689498Y-81789680D01*
X118748463Y-81899994D01*
X118827815Y-81996685D01*
X118924506Y-82076037D01*
X119034820Y-82135002D01*
X119154518Y-82171312D01*
X119279000Y-82183572D01*
X119983250Y-82180500D01*
X120142000Y-82021750D01*
X120142000Y-79692500D01*
X118802750Y-79692500D01*
X118644000Y-79851250D01*
X118640928Y-81545500D01*
X110863138Y-81545500D01*
X110860443Y-81537217D01*
X110702414Y-81241562D01*
X110386853Y-81085552D01*
X109074805Y-82397600D01*
X109088948Y-82411743D01*
X108909343Y-82591348D01*
X108895200Y-82577205D01*
X107583152Y-83889253D01*
X107739162Y-84204814D01*
X108113945Y-84395620D01*
X108518751Y-84509644D01*
X108938024Y-84542502D01*
X109355651Y-84492934D01*
X109755583Y-84362843D01*
X109768834Y-84355760D01*
X108512075Y-85612520D01*
X85696760Y-85612520D01*
X82217996Y-82133757D01*
X82294019Y-82165383D01*
X82348600Y-82174410D01*
X82551000Y-82050724D01*
X82551000Y-80708500D01*
X82531000Y-80708500D01*
X82531000Y-80454500D01*
X82551000Y-80454500D01*
X82551000Y-79112276D01*
X82348600Y-78988590D01*
X82294019Y-78997617D01*
X82055801Y-79096717D01*
X81959501Y-79161276D01*
X81959501Y-76547443D01*
X83451001Y-78038944D01*
X83451000Y-79197813D01*
X83300199Y-79096717D01*
X83061981Y-78997617D01*
X83007400Y-78988590D01*
X82805000Y-79112276D01*
X82805000Y-80454500D01*
X82825000Y-80454500D01*
X82825000Y-80708500D01*
X82805000Y-80708500D01*
X82805000Y-82050724D01*
X83007400Y-82174410D01*
X83061981Y-82165383D01*
X83300199Y-82066283D01*
X83514506Y-81922613D01*
X83615269Y-81821542D01*
X83681840Y-81902659D01*
X83895322Y-82077860D01*
X84138882Y-82208046D01*
X84403160Y-82288214D01*
X84678000Y-82315283D01*
X84952839Y-82288214D01*
X85217117Y-82208046D01*
X85460677Y-82077860D01*
X85674159Y-81902660D01*
X85678000Y-81897980D01*
X85681840Y-81902659D01*
X85895322Y-82077860D01*
X86138882Y-82208046D01*
X86403160Y-82288214D01*
X86678000Y-82315283D01*
X86952839Y-82288214D01*
X87217117Y-82208046D01*
X87460677Y-82077860D01*
X87674159Y-81902660D01*
X87678000Y-81897980D01*
X87681840Y-81902659D01*
X87895322Y-82077860D01*
X88138882Y-82208046D01*
X88403160Y-82288214D01*
X88678000Y-82315283D01*
X88952839Y-82288214D01*
X89217117Y-82208046D01*
X89460677Y-82077860D01*
X89466172Y-82073350D01*
X89486446Y-82098054D01*
X89597147Y-82188903D01*
X89723443Y-82256410D01*
X89860483Y-82297980D01*
X90003000Y-82312017D01*
X91353000Y-82312017D01*
X91495517Y-82297980D01*
X91632557Y-82256410D01*
X91758853Y-82188903D01*
X91869554Y-82098054D01*
X91960403Y-81987353D01*
X92027910Y-81861057D01*
X92069480Y-81724017D01*
X92083517Y-81581500D01*
X92083517Y-79581500D01*
X92069480Y-79438983D01*
X92027910Y-79301943D01*
X91960403Y-79175647D01*
X91905000Y-79108138D01*
X91905000Y-77226960D01*
X91910935Y-77166700D01*
X91905000Y-77106440D01*
X91905000Y-77106433D01*
X91887245Y-76926167D01*
X91817084Y-76694877D01*
X91703149Y-76481718D01*
X91549817Y-76294884D01*
X91503005Y-76256466D01*
X90539939Y-75293400D01*
X92455761Y-75293400D01*
X99064683Y-81902323D01*
X99064683Y-83897600D01*
X99078720Y-84040117D01*
X99120290Y-84177157D01*
X99187797Y-84303453D01*
X99278646Y-84414154D01*
X99389347Y-84505003D01*
X99515643Y-84572510D01*
X99652683Y-84614080D01*
X99795200Y-84628117D01*
X102795200Y-84628117D01*
X102937717Y-84614080D01*
X103074757Y-84572510D01*
X103201053Y-84505003D01*
X103311754Y-84414154D01*
X103402603Y-84303453D01*
X103470110Y-84177157D01*
X103511680Y-84040117D01*
X103525717Y-83897600D01*
X103525717Y-82440424D01*
X106750298Y-82440424D01*
X106799866Y-82858051D01*
X106929957Y-83257983D01*
X107087986Y-83553638D01*
X107403547Y-83709648D01*
X108715595Y-82397600D01*
X107403547Y-81085552D01*
X107087986Y-81241562D01*
X106897180Y-81616345D01*
X106783156Y-82021151D01*
X106750298Y-82440424D01*
X103525717Y-82440424D01*
X103525717Y-80905947D01*
X107583152Y-80905947D01*
X108895200Y-82217995D01*
X110207248Y-80905947D01*
X110051238Y-80590386D01*
X109676455Y-80399580D01*
X109271649Y-80285556D01*
X108852376Y-80252698D01*
X108434749Y-80302266D01*
X108034817Y-80432357D01*
X107739162Y-80590386D01*
X107583152Y-80905947D01*
X103525717Y-80905947D01*
X103525717Y-80897600D01*
X103511680Y-80755083D01*
X103470110Y-80618043D01*
X103402603Y-80491747D01*
X103311754Y-80381046D01*
X103201053Y-80290197D01*
X103074757Y-80222690D01*
X102937717Y-80181120D01*
X102795200Y-80167083D01*
X100799923Y-80167083D01*
X98218340Y-77585500D01*
X118640928Y-77585500D01*
X118644000Y-79279750D01*
X118802750Y-79438500D01*
X120142000Y-79438500D01*
X120142000Y-77109250D01*
X120396000Y-77109250D01*
X120396000Y-79438500D01*
X121735250Y-79438500D01*
X121894000Y-79279750D01*
X121897072Y-77585500D01*
X121884812Y-77461018D01*
X121848502Y-77341320D01*
X121789537Y-77231006D01*
X121710185Y-77134315D01*
X121613494Y-77054963D01*
X121503180Y-76995998D01*
X121383482Y-76959688D01*
X121259000Y-76947428D01*
X120554750Y-76950500D01*
X120396000Y-77109250D01*
X120142000Y-77109250D01*
X119983250Y-76950500D01*
X119279000Y-76947428D01*
X119154518Y-76959688D01*
X119034820Y-76995998D01*
X118924506Y-77054963D01*
X118827815Y-77134315D01*
X118748463Y-77231006D01*
X118689498Y-77341320D01*
X118653188Y-77461018D01*
X118640928Y-77585500D01*
X98218340Y-77585500D01*
X93874239Y-73241400D01*
X93835817Y-73194583D01*
X93648983Y-73041251D01*
X93435824Y-72927316D01*
X93204534Y-72857155D01*
X93024268Y-72839400D01*
X93024260Y-72839400D01*
X92964000Y-72833465D01*
X92903740Y-72839400D01*
X90271840Y-72839400D01*
X90081341Y-72648902D01*
X90233500Y-72663888D01*
X90532843Y-72634405D01*
X90820684Y-72547090D01*
X91085959Y-72405297D01*
X91318476Y-72214476D01*
X91503500Y-71989023D01*
X91688524Y-72214476D01*
X91921040Y-72405297D01*
X92186315Y-72547090D01*
X92474156Y-72634405D01*
X92773500Y-72663888D01*
X93072843Y-72634405D01*
X93360684Y-72547090D01*
X93625959Y-72405297D01*
X93858476Y-72214476D01*
X94043500Y-71989023D01*
X94228524Y-72214476D01*
X94461040Y-72405297D01*
X94726315Y-72547090D01*
X95014156Y-72634405D01*
X95313500Y-72663888D01*
X95612843Y-72634405D01*
X95900684Y-72547090D01*
X96165959Y-72405297D01*
X96398476Y-72214476D01*
X96583500Y-71989023D01*
X96768524Y-72214476D01*
X97001040Y-72405297D01*
X97266315Y-72547090D01*
X97554156Y-72634405D01*
X97853500Y-72663888D01*
X98152843Y-72634405D01*
X98440684Y-72547090D01*
X98705959Y-72405297D01*
X98938476Y-72214476D01*
X99123500Y-71989023D01*
X99308524Y-72214476D01*
X99541040Y-72405297D01*
X99806315Y-72547090D01*
X100094156Y-72634405D01*
X100393500Y-72663888D01*
X100692843Y-72634405D01*
X100980684Y-72547090D01*
X101245959Y-72405297D01*
X101478476Y-72214476D01*
X101663500Y-71989023D01*
X101848524Y-72214476D01*
X102081040Y-72405297D01*
X102346315Y-72547090D01*
X102634156Y-72634405D01*
X102933500Y-72663888D01*
X103232843Y-72634405D01*
X103520684Y-72547090D01*
X103785959Y-72405297D01*
X104018476Y-72214476D01*
X104203500Y-71989023D01*
X104388524Y-72214476D01*
X104621040Y-72405297D01*
X104886315Y-72547090D01*
X105174156Y-72634405D01*
X105473500Y-72663888D01*
X105772843Y-72634405D01*
X106060684Y-72547090D01*
X106325959Y-72405297D01*
X106558476Y-72214476D01*
X106743500Y-71989023D01*
X106928524Y-72214476D01*
X107161040Y-72405297D01*
X107426315Y-72547090D01*
X107714156Y-72634405D01*
X108013500Y-72663888D01*
X108312843Y-72634405D01*
X108600684Y-72547090D01*
X108865959Y-72405297D01*
X109098476Y-72214476D01*
X109283500Y-71989023D01*
X109468524Y-72214476D01*
X109701040Y-72405297D01*
X109966315Y-72547090D01*
X110254156Y-72634405D01*
X110553500Y-72663888D01*
X110852843Y-72634405D01*
X111140684Y-72547090D01*
X111405959Y-72405297D01*
X111638476Y-72214476D01*
X111823500Y-71989023D01*
X112008524Y-72214476D01*
X112241040Y-72405297D01*
X112506315Y-72547090D01*
X112794156Y-72634405D01*
X113093500Y-72663888D01*
X113392843Y-72634405D01*
X113680684Y-72547090D01*
X113945959Y-72405297D01*
X114178476Y-72214476D01*
X114363500Y-71989023D01*
X114548524Y-72214476D01*
X114781040Y-72405297D01*
X115046315Y-72547090D01*
X115334156Y-72634405D01*
X115633500Y-72663888D01*
X115932843Y-72634405D01*
X116220684Y-72547090D01*
X116485959Y-72405297D01*
X116718476Y-72214476D01*
X116903500Y-71989023D01*
X117088524Y-72214476D01*
X117321040Y-72405297D01*
X117586315Y-72547090D01*
X117874156Y-72634405D01*
X118173500Y-72663888D01*
X118472843Y-72634405D01*
X118760684Y-72547090D01*
X119025959Y-72405297D01*
X119258476Y-72214476D01*
X119449297Y-71981960D01*
X119498051Y-71890748D01*
X119607827Y-72052162D01*
X119809075Y-72250139D01*
X120045079Y-72405051D01*
X120306770Y-72510944D01*
X120364461Y-72521404D01*
X120586500Y-72399415D01*
X120586500Y-71056500D01*
X120566500Y-71056500D01*
X120566500Y-70802500D01*
X120586500Y-70802500D01*
X120586500Y-69459585D01*
X120364461Y-69337596D01*
X120306770Y-69348056D01*
X120045079Y-69453949D01*
X119809075Y-69608861D01*
X119607827Y-69806838D01*
X119498051Y-69968252D01*
X119449297Y-69877040D01*
X119258476Y-69644524D01*
X119025960Y-69453703D01*
X118760685Y-69311910D01*
X118472844Y-69224595D01*
X118173500Y-69195112D01*
X117874157Y-69224595D01*
X117586316Y-69311910D01*
X117321041Y-69453703D01*
X117088524Y-69644524D01*
X116903500Y-69869976D01*
X116718476Y-69644524D01*
X116511871Y-69474968D01*
X116876973Y-69109867D01*
X116953916Y-69068740D01*
X117093938Y-68953827D01*
X121451677Y-64596089D01*
X122273280Y-64596089D01*
X122333540Y-64602024D01*
X122393800Y-64596089D01*
X122393808Y-64596089D01*
X122574074Y-64578334D01*
X122805364Y-64508173D01*
X123018523Y-64394238D01*
X123205357Y-64240906D01*
X123243779Y-64194089D01*
X127367805Y-60070064D01*
X127414617Y-60031646D01*
X127567949Y-59844812D01*
X127681884Y-59631653D01*
X127691395Y-59600299D01*
X127752046Y-59400363D01*
X127767298Y-59245500D01*
X127769800Y-59220097D01*
X127769800Y-59220092D01*
X127775735Y-59159829D01*
X127769800Y-59099566D01*
X127769800Y-55955500D01*
X136918928Y-55955500D01*
X136922000Y-56419750D01*
X137080750Y-56578500D01*
X138430000Y-56578500D01*
X138430000Y-55479250D01*
X138271250Y-55320500D01*
X137557000Y-55317428D01*
X137432518Y-55329688D01*
X137312820Y-55365998D01*
X137202506Y-55424963D01*
X137105815Y-55504315D01*
X137026463Y-55601006D01*
X136967498Y-55711320D01*
X136931188Y-55831018D01*
X136918928Y-55955500D01*
X127769800Y-55955500D01*
X127769800Y-40017000D01*
X137172928Y-40017000D01*
X137176000Y-40481250D01*
X137334750Y-40640000D01*
X138684000Y-40640000D01*
X138684000Y-39540750D01*
X138525250Y-39382000D01*
X137811000Y-39378928D01*
X137686518Y-39391188D01*
X137566820Y-39427498D01*
X137456506Y-39486463D01*
X137359815Y-39565815D01*
X137280463Y-39662506D01*
X137221498Y-39772820D01*
X137185188Y-39892518D01*
X137172928Y-40017000D01*
X127769800Y-40017000D01*
X127769800Y-32613839D01*
X132264640Y-28119000D01*
X132409225Y-28090240D01*
X132678022Y-27978901D01*
X132919933Y-27817261D01*
X133125661Y-27611533D01*
X133287301Y-27369622D01*
X133398640Y-27100825D01*
X133455400Y-26815472D01*
X133455400Y-26524528D01*
X133398640Y-26239175D01*
X133287301Y-25970378D01*
X133125661Y-25728467D01*
X132919933Y-25522739D01*
X132678022Y-25361099D01*
X132409225Y-25249760D01*
X132123872Y-25193000D01*
X131832928Y-25193000D01*
X131547575Y-25249760D01*
X131278778Y-25361099D01*
X131036867Y-25522739D01*
X130831139Y-25728467D01*
X130669499Y-25970378D01*
X130558160Y-26239175D01*
X130529400Y-26383760D01*
X125717800Y-31195361D01*
X125670983Y-31233783D01*
X125517651Y-31420618D01*
X125403716Y-31633777D01*
X125333555Y-31865067D01*
X125315800Y-32045333D01*
X125315800Y-32045340D01*
X125309865Y-32105600D01*
X125315800Y-32165860D01*
X125315800Y-41885403D01*
X125037272Y-41830000D01*
X124746328Y-41830000D01*
X124460975Y-41886760D01*
X124192178Y-41998099D01*
X123950267Y-42159739D01*
X123744539Y-42365467D01*
X123582899Y-42607378D01*
X123471560Y-42876175D01*
X123414800Y-43161528D01*
X123414800Y-43452472D01*
X123471560Y-43737825D01*
X123582899Y-44006622D01*
X123664800Y-44129195D01*
X123664801Y-52663668D01*
X123682556Y-52843934D01*
X123752717Y-53075224D01*
X123866652Y-53288383D01*
X124019984Y-53475217D01*
X124042600Y-53493778D01*
X124042600Y-53958983D01*
X122453500Y-53958983D01*
X122310983Y-53973020D01*
X122173943Y-54014590D01*
X122047647Y-54082097D01*
X121936946Y-54172946D01*
X121846097Y-54283647D01*
X121786667Y-54394832D01*
X121565960Y-54213703D01*
X121300685Y-54071910D01*
X121012844Y-53984595D01*
X120713500Y-53955112D01*
X120414157Y-53984595D01*
X120126316Y-54071910D01*
X119861041Y-54213703D01*
X119628524Y-54404524D01*
X119443500Y-54629976D01*
X119258476Y-54404524D01*
X119025960Y-54213703D01*
X118760685Y-54071910D01*
X118472844Y-53984595D01*
X118173500Y-53955112D01*
X117874157Y-53984595D01*
X117586316Y-54071910D01*
X117321041Y-54213703D01*
X117088524Y-54404524D01*
X116897703Y-54637040D01*
X116848949Y-54728252D01*
X116739173Y-54566838D01*
X116537925Y-54368861D01*
X116301921Y-54213949D01*
X116040230Y-54108056D01*
X115982539Y-54097596D01*
X115760500Y-54219585D01*
X115760500Y-55562500D01*
X115780500Y-55562500D01*
X115780500Y-55816500D01*
X115760500Y-55816500D01*
X115760500Y-57159415D01*
X115982539Y-57281404D01*
X116040230Y-57270944D01*
X116301921Y-57165051D01*
X116537925Y-57010139D01*
X116739173Y-56812162D01*
X116848949Y-56650748D01*
X116897703Y-56741959D01*
X117088524Y-56974476D01*
X117321040Y-57165297D01*
X117586315Y-57307090D01*
X117874156Y-57394405D01*
X118173500Y-57423888D01*
X118472843Y-57394405D01*
X118760684Y-57307090D01*
X119025959Y-57165297D01*
X119258476Y-56974476D01*
X119443500Y-56749023D01*
X119628524Y-56974476D01*
X119861040Y-57165297D01*
X120126315Y-57307090D01*
X120414156Y-57394405D01*
X120713500Y-57423888D01*
X121012843Y-57394405D01*
X121300684Y-57307090D01*
X121565959Y-57165297D01*
X121786667Y-56984168D01*
X121846097Y-57095353D01*
X121936946Y-57206054D01*
X122047647Y-57296903D01*
X122173943Y-57364410D01*
X122310983Y-57405980D01*
X122453500Y-57420017D01*
X123616421Y-57420017D01*
X123555555Y-57620667D01*
X123537800Y-57800933D01*
X123537800Y-58449675D01*
X122299089Y-59688386D01*
X122270537Y-59619455D01*
X122108897Y-59377544D01*
X121903169Y-59171816D01*
X121661258Y-59010176D01*
X121392461Y-58898837D01*
X121107108Y-58842077D01*
X120816164Y-58842077D01*
X120530811Y-58898837D01*
X120262014Y-59010176D01*
X120139441Y-59092077D01*
X108071317Y-59092077D01*
X106207731Y-57228491D01*
X106325959Y-57165297D01*
X106558476Y-56974476D01*
X106743500Y-56749023D01*
X106928524Y-56974476D01*
X107161040Y-57165297D01*
X107426315Y-57307090D01*
X107714156Y-57394405D01*
X108013500Y-57423888D01*
X108312843Y-57394405D01*
X108600684Y-57307090D01*
X108865959Y-57165297D01*
X109098476Y-56974476D01*
X109283500Y-56749023D01*
X109468524Y-56974476D01*
X109701040Y-57165297D01*
X109966315Y-57307090D01*
X110254156Y-57394405D01*
X110553500Y-57423888D01*
X110852843Y-57394405D01*
X111140684Y-57307090D01*
X111405959Y-57165297D01*
X111638476Y-56974476D01*
X111823500Y-56749023D01*
X112008524Y-56974476D01*
X112241040Y-57165297D01*
X112506315Y-57307090D01*
X112794156Y-57394405D01*
X113093500Y-57423888D01*
X113392843Y-57394405D01*
X113680684Y-57307090D01*
X113945959Y-57165297D01*
X114178476Y-56974476D01*
X114369297Y-56741960D01*
X114418051Y-56650748D01*
X114527827Y-56812162D01*
X114729075Y-57010139D01*
X114965079Y-57165051D01*
X115226770Y-57270944D01*
X115284461Y-57281404D01*
X115506500Y-57159415D01*
X115506500Y-55816500D01*
X115486500Y-55816500D01*
X115486500Y-55562500D01*
X115506500Y-55562500D01*
X115506500Y-54219585D01*
X115284461Y-54097596D01*
X115226770Y-54108056D01*
X114965079Y-54213949D01*
X114729075Y-54368861D01*
X114527827Y-54566838D01*
X114418051Y-54728252D01*
X114369297Y-54637040D01*
X114320500Y-54577581D01*
X114320500Y-46528257D01*
X114326435Y-46467997D01*
X114320500Y-46407737D01*
X114320500Y-46407730D01*
X114302745Y-46227464D01*
X114232584Y-45996174D01*
X114118649Y-45783015D01*
X113965317Y-45596181D01*
X113918506Y-45557764D01*
X111590000Y-43229259D01*
X111590000Y-41028553D01*
X111595935Y-40968290D01*
X111572246Y-40727756D01*
X111502084Y-40496466D01*
X111493951Y-40481250D01*
X111388149Y-40283307D01*
X111234817Y-40096473D01*
X111188006Y-40058056D01*
X108842500Y-37712551D01*
X108842500Y-34128263D01*
X108930233Y-34215996D01*
X109240933Y-34423600D01*
X109586165Y-34566600D01*
X109952662Y-34639500D01*
X110326338Y-34639500D01*
X110692835Y-34566600D01*
X111038067Y-34423600D01*
X111348767Y-34215996D01*
X111612996Y-33951767D01*
X111820600Y-33641067D01*
X111963600Y-33295835D01*
X112036500Y-32929338D01*
X112036500Y-32580739D01*
X113379506Y-31237734D01*
X113426317Y-31199317D01*
X113579649Y-31012483D01*
X113693584Y-30799324D01*
X113711444Y-30740447D01*
X113763746Y-30568034D01*
X113775611Y-30447554D01*
X113781500Y-30387768D01*
X113781500Y-30387763D01*
X113787435Y-30327500D01*
X113781500Y-30267237D01*
X113781500Y-23380000D01*
X137109428Y-23380000D01*
X137112500Y-23844250D01*
X137271250Y-24003000D01*
X138620500Y-24003000D01*
X138620500Y-22903750D01*
X138461750Y-22745000D01*
X137747500Y-22741928D01*
X137623018Y-22754188D01*
X137503320Y-22790498D01*
X137393006Y-22849463D01*
X137296315Y-22928815D01*
X137216963Y-23025506D01*
X137157998Y-23135820D01*
X137121688Y-23255518D01*
X137109428Y-23380000D01*
X113781500Y-23380000D01*
X113781500Y-19884550D01*
X113881693Y-19762465D01*
X113888752Y-19773396D01*
X114098894Y-19990210D01*
X114347296Y-20161862D01*
X114624413Y-20281755D01*
X114729760Y-20306036D01*
X114967500Y-20185378D01*
X114967500Y-18542000D01*
X115221500Y-18542000D01*
X115221500Y-20185378D01*
X115459240Y-20306036D01*
X115564587Y-20281755D01*
X115841704Y-20161862D01*
X116090106Y-19990210D01*
X116300248Y-19773396D01*
X116464054Y-19519751D01*
X116575229Y-19239023D01*
X116629500Y-18942000D01*
X116629500Y-18542000D01*
X115221500Y-18542000D01*
X114967500Y-18542000D01*
X114947500Y-18542000D01*
X114947500Y-18288000D01*
X114967500Y-18288000D01*
X114967500Y-16644622D01*
X115221500Y-16644622D01*
X115221500Y-18288000D01*
X116629500Y-18288000D01*
X116629500Y-17888000D01*
X116575229Y-17590977D01*
X116464054Y-17310249D01*
X116300248Y-17056604D01*
X116090106Y-16839790D01*
X115841704Y-16668138D01*
X115564587Y-16548245D01*
X115459240Y-16523964D01*
X115221500Y-16644622D01*
X114967500Y-16644622D01*
X114729760Y-16523964D01*
X114624413Y-16548245D01*
X114347296Y-16668138D01*
X114098894Y-16839790D01*
X113888752Y-17056604D01*
X113881693Y-17067535D01*
X113710529Y-16858971D01*
X113462785Y-16655654D01*
X113180137Y-16504575D01*
X112873447Y-16411542D01*
X112554500Y-16380128D01*
X112235552Y-16411542D01*
X111928862Y-16504575D01*
X111646214Y-16655654D01*
X111398471Y-16858971D01*
X111284500Y-16997846D01*
X111170529Y-16858971D01*
X110922785Y-16655654D01*
X110640137Y-16504575D01*
X110333447Y-16411542D01*
X110014500Y-16380128D01*
X109695552Y-16411542D01*
X109388862Y-16504575D01*
X109106214Y-16655654D01*
X108858471Y-16858971D01*
X108744500Y-16997846D01*
X108630529Y-16858971D01*
X108382785Y-16655654D01*
X108100137Y-16504575D01*
X107793447Y-16411542D01*
X107474500Y-16380128D01*
X107155552Y-16411542D01*
X106848862Y-16504575D01*
X106566214Y-16655654D01*
X106318471Y-16858971D01*
X106204500Y-16997846D01*
X106090529Y-16858971D01*
X105842785Y-16655654D01*
X105560137Y-16504575D01*
X105253447Y-16411542D01*
X104934500Y-16380128D01*
X104615552Y-16411542D01*
X104308862Y-16504575D01*
X104026214Y-16655654D01*
X103778471Y-16858971D01*
X103664500Y-16997846D01*
X103550529Y-16858971D01*
X103302785Y-16655654D01*
X103020137Y-16504575D01*
X102713447Y-16411542D01*
X102394500Y-16380128D01*
X102075552Y-16411542D01*
X101768862Y-16504575D01*
X101486214Y-16655654D01*
X101238471Y-16858971D01*
X101124500Y-16997846D01*
X101010529Y-16858971D01*
X100762785Y-16655654D01*
X100480137Y-16504575D01*
X100173447Y-16411542D01*
X99854500Y-16380128D01*
X99535552Y-16411542D01*
X99228862Y-16504575D01*
X98946214Y-16655654D01*
X98698471Y-16858971D01*
X98584500Y-16997846D01*
X98470529Y-16858971D01*
X98222785Y-16655654D01*
X97940137Y-16504575D01*
X97633447Y-16411542D01*
X97314500Y-16380128D01*
X96995552Y-16411542D01*
X96688862Y-16504575D01*
X96406214Y-16655654D01*
X96158471Y-16858971D01*
X96044500Y-16997846D01*
X95930529Y-16858971D01*
X95682785Y-16655654D01*
X95400137Y-16504575D01*
X95093447Y-16411542D01*
X94774500Y-16380128D01*
X94455552Y-16411542D01*
X94148862Y-16504575D01*
X93866214Y-16655654D01*
X93618471Y-16858971D01*
X93504500Y-16997846D01*
X93390529Y-16858971D01*
X93142785Y-16655654D01*
X92860137Y-16504575D01*
X92553447Y-16411542D01*
X92234500Y-16380128D01*
X91915552Y-16411542D01*
X91608862Y-16504575D01*
X91326214Y-16655654D01*
X91078471Y-16858971D01*
X90964500Y-16997846D01*
X90850529Y-16858971D01*
X90602785Y-16655654D01*
X90320137Y-16504575D01*
X90013447Y-16411542D01*
X89694500Y-16380128D01*
X89375552Y-16411542D01*
X89068862Y-16504575D01*
X88786214Y-16655654D01*
X88538471Y-16858971D01*
X88367308Y-17067535D01*
X88360248Y-17056604D01*
X88150106Y-16839790D01*
X87901704Y-16668138D01*
X87624587Y-16548245D01*
X87519240Y-16523964D01*
X87281500Y-16644622D01*
X87281500Y-18288000D01*
X87301500Y-18288000D01*
X87301500Y-18542000D01*
X87281500Y-18542000D01*
X87281500Y-20185378D01*
X87519240Y-20306036D01*
X87624587Y-20281755D01*
X87901704Y-20161862D01*
X88150106Y-19990210D01*
X88360248Y-19773396D01*
X88367307Y-19762465D01*
X88538472Y-19971029D01*
X88786215Y-20174346D01*
X89006501Y-20292092D01*
X89006500Y-54577581D01*
X88963500Y-54629976D01*
X88778476Y-54404524D01*
X88545960Y-54213703D01*
X88280685Y-54071910D01*
X87992844Y-53984595D01*
X87694445Y-53955205D01*
X85841500Y-52102261D01*
X85841500Y-19884550D01*
X85941693Y-19762465D01*
X85948752Y-19773396D01*
X86158894Y-19990210D01*
X86407296Y-20161862D01*
X86684413Y-20281755D01*
X86789760Y-20306036D01*
X87027500Y-20185378D01*
X87027500Y-18542000D01*
X87007500Y-18542000D01*
X87007500Y-18288000D01*
X87027500Y-18288000D01*
X87027500Y-16644622D01*
X86789760Y-16523964D01*
X86684413Y-16548245D01*
X86407296Y-16668138D01*
X86158894Y-16839790D01*
X85948752Y-17056604D01*
X85941693Y-17067535D01*
X85770529Y-16858971D01*
X85522785Y-16655654D01*
X85240137Y-16504575D01*
X84933447Y-16411542D01*
X84614500Y-16380128D01*
X84295552Y-16411542D01*
X83988862Y-16504575D01*
X83706214Y-16655654D01*
X83458471Y-16858971D01*
X83287308Y-17067535D01*
X83280248Y-17056604D01*
X83070106Y-16839790D01*
X82821704Y-16668138D01*
X82544587Y-16548245D01*
X82439240Y-16523964D01*
X82201500Y-16644622D01*
X82201500Y-18288000D01*
X82221500Y-18288000D01*
X82221500Y-18542000D01*
X82201500Y-18542000D01*
X82201500Y-20185378D01*
X82439240Y-20306036D01*
X82544587Y-20281755D01*
X82821704Y-20161862D01*
X83070106Y-19990210D01*
X83280248Y-19773396D01*
X83287307Y-19762465D01*
X83387501Y-19884551D01*
X83387500Y-52550240D01*
X83381565Y-52610500D01*
X83387500Y-52670760D01*
X83387500Y-52670767D01*
X83405255Y-52851033D01*
X83475416Y-53082323D01*
X83589351Y-53295482D01*
X83742683Y-53482317D01*
X83789500Y-53520739D01*
X86166500Y-55897740D01*
X86166500Y-55964510D01*
X86188595Y-56188843D01*
X86275910Y-56476684D01*
X86417703Y-56741959D01*
X86608524Y-56974476D01*
X86841040Y-57165297D01*
X87106315Y-57307090D01*
X87394156Y-57394405D01*
X87693500Y-57423888D01*
X87992843Y-57394405D01*
X88280684Y-57307090D01*
X88545959Y-57165297D01*
X88778476Y-56974476D01*
X88963500Y-56749023D01*
X89148524Y-56974476D01*
X89381040Y-57165297D01*
X89646315Y-57307090D01*
X89934156Y-57394405D01*
X90233500Y-57423888D01*
X90532843Y-57394405D01*
X90820684Y-57307090D01*
X91085959Y-57165297D01*
X91318476Y-56974476D01*
X91503500Y-56749023D01*
X91546500Y-56801419D01*
X91546500Y-57661239D01*
X91540565Y-57721500D01*
X91546500Y-57781760D01*
X91546500Y-57781767D01*
X91564255Y-57962033D01*
X91634416Y-58193323D01*
X91748351Y-58406482D01*
X91901683Y-58593317D01*
X91948500Y-58631739D01*
X94086501Y-60769741D01*
X94086500Y-62356760D01*
X92026781Y-64416480D01*
X86133113Y-64416480D01*
X86072850Y-64410545D01*
X86012587Y-64416480D01*
X86012582Y-64416480D01*
X85952796Y-64422369D01*
X85832316Y-64434234D01*
X85601026Y-64504396D01*
X85387867Y-64618331D01*
X85201033Y-64771663D01*
X85162615Y-64818475D01*
X82620471Y-67360620D01*
X82620471Y-51318288D01*
X82626406Y-51258028D01*
X82620471Y-51197768D01*
X82620471Y-51197761D01*
X82602716Y-51017495D01*
X82532555Y-50786205D01*
X82418620Y-50573046D01*
X82265288Y-50386212D01*
X82218476Y-50347794D01*
X80761500Y-48890819D01*
X80761500Y-26563500D01*
X80965805Y-26563500D01*
X81088378Y-26645401D01*
X81357175Y-26756740D01*
X81642528Y-26813500D01*
X81933472Y-26813500D01*
X82218825Y-26756740D01*
X82487622Y-26645401D01*
X82729533Y-26483761D01*
X82935261Y-26278033D01*
X83096901Y-26036122D01*
X83208240Y-25767325D01*
X83265000Y-25481972D01*
X83265000Y-25191028D01*
X83208240Y-24905675D01*
X83096901Y-24636878D01*
X82935261Y-24394967D01*
X82729533Y-24189239D01*
X82487622Y-24027599D01*
X82218825Y-23916260D01*
X81933472Y-23859500D01*
X81642528Y-23859500D01*
X81357175Y-23916260D01*
X81088378Y-24027599D01*
X80965805Y-24109500D01*
X80761500Y-24109500D01*
X80761500Y-19884550D01*
X80861693Y-19762465D01*
X80868752Y-19773396D01*
X81078894Y-19990210D01*
X81327296Y-20161862D01*
X81604413Y-20281755D01*
X81709760Y-20306036D01*
X81947500Y-20185378D01*
X81947500Y-18542000D01*
X81927500Y-18542000D01*
X81927500Y-18288000D01*
X81947500Y-18288000D01*
X81947500Y-16644622D01*
X81709760Y-16523964D01*
X81604413Y-16548245D01*
X81327296Y-16668138D01*
X81078894Y-16839790D01*
X80868752Y-17056604D01*
X80861693Y-17067535D01*
X80690529Y-16858971D01*
X80442785Y-16655654D01*
X80160137Y-16504575D01*
X79853447Y-16411542D01*
X79534500Y-16380128D01*
X79215552Y-16411542D01*
X78908862Y-16504575D01*
X78626214Y-16655654D01*
X78447422Y-16802385D01*
X78425037Y-16760506D01*
X78345685Y-16663815D01*
X78248994Y-16584463D01*
X78138680Y-16525498D01*
X78018982Y-16489188D01*
X77894500Y-16476928D01*
X77280250Y-16480000D01*
X77121500Y-16638750D01*
X76867500Y-16638750D01*
X76708750Y-16480000D01*
X76094500Y-16476928D01*
X75970018Y-16489188D01*
X75850320Y-16525498D01*
X75740006Y-16584463D01*
X75643315Y-16663815D01*
X75563963Y-16760506D01*
X75504998Y-16870820D01*
X75468688Y-16990518D01*
X75456428Y-17115000D01*
X73305159Y-17115000D01*
X73225224Y-16995370D01*
X72915030Y-16685176D01*
X72550280Y-16441458D01*
X72144992Y-16273582D01*
X71714740Y-16188000D01*
X71276060Y-16188000D01*
X70845808Y-16273582D01*
X70440520Y-16441458D01*
X70075770Y-16685176D01*
X69765576Y-16995370D01*
X69521858Y-17360120D01*
X69353982Y-17765408D01*
X69268400Y-18195660D01*
X68227271Y-18195660D01*
X68216406Y-14113353D01*
X187264288Y-14263857D01*
G37*
X187264288Y-14263857D02*
X187812066Y-88960800D01*
X68415601Y-88960800D01*
X68405772Y-85267211D01*
X70621800Y-85267211D01*
X70621800Y-85725589D01*
X70711226Y-86175161D01*
X70886640Y-86598648D01*
X71141301Y-86979776D01*
X71465424Y-87303899D01*
X71846552Y-87558560D01*
X72270039Y-87733974D01*
X72719611Y-87823400D01*
X73177989Y-87823400D01*
X73627561Y-87733974D01*
X74051048Y-87558560D01*
X74432176Y-87303899D01*
X74756299Y-86979776D01*
X75010960Y-86598648D01*
X75186374Y-86175161D01*
X75275800Y-85725589D01*
X75275800Y-85267211D01*
X75186374Y-84817639D01*
X75010960Y-84394152D01*
X74756299Y-84013024D01*
X74432176Y-83688901D01*
X74051048Y-83434240D01*
X73627561Y-83258826D01*
X73177989Y-83169400D01*
X72719611Y-83169400D01*
X72270039Y-83258826D01*
X71846552Y-83434240D01*
X71465424Y-83688901D01*
X71141301Y-84013024D01*
X70886640Y-84394152D01*
X70711226Y-84817639D01*
X70621800Y-85267211D01*
X68405772Y-85267211D01*
X68309775Y-49196360D01*
X69268400Y-49196360D01*
X69268400Y-49635040D01*
X69353982Y-50065292D01*
X69521858Y-50470580D01*
X69765576Y-50835330D01*
X70075770Y-51145524D01*
X70440520Y-51389242D01*
X70845808Y-51557118D01*
X71276060Y-51642700D01*
X71714740Y-51642700D01*
X72144992Y-51557118D01*
X72550280Y-51389242D01*
X72915030Y-51145524D01*
X73225224Y-50835330D01*
X73468942Y-50470580D01*
X73636818Y-50065292D01*
X73722400Y-49635040D01*
X73722400Y-49196360D01*
X73636818Y-48766108D01*
X73468942Y-48360820D01*
X73225224Y-47996070D01*
X72915030Y-47685876D01*
X72550280Y-47442158D01*
X72144992Y-47274282D01*
X71714740Y-47188700D01*
X71276060Y-47188700D01*
X70845808Y-47274282D01*
X70440520Y-47442158D01*
X70075770Y-47685876D01*
X69765576Y-47996070D01*
X69521858Y-48360820D01*
X69353982Y-48766108D01*
X69268400Y-49196360D01*
X68309775Y-49196360D01*
X68227271Y-18195660D01*
X69268400Y-18195660D01*
X69268400Y-18634340D01*
X69353982Y-19064592D01*
X69521858Y-19469880D01*
X69765576Y-19834630D01*
X70075770Y-20144824D01*
X70440520Y-20388542D01*
X70845808Y-20556418D01*
X71276060Y-20642000D01*
X71714740Y-20642000D01*
X72144992Y-20556418D01*
X72550280Y-20388542D01*
X72915030Y-20144824D01*
X73225224Y-19834630D01*
X73305158Y-19715000D01*
X75456428Y-19715000D01*
X75468688Y-19839482D01*
X75504998Y-19959180D01*
X75563963Y-20069494D01*
X75643315Y-20166185D01*
X75740006Y-20245537D01*
X75850320Y-20304502D01*
X75970018Y-20340812D01*
X76094500Y-20353072D01*
X76708750Y-20350000D01*
X76867500Y-20191250D01*
X76867500Y-18542000D01*
X75618250Y-18542000D01*
X75459500Y-18700750D01*
X75456428Y-19715000D01*
X73305158Y-19715000D01*
X73468942Y-19469880D01*
X73636818Y-19064592D01*
X73722400Y-18634340D01*
X73722400Y-18195660D01*
X73636818Y-17765408D01*
X73468942Y-17360120D01*
X73305159Y-17115000D01*
X75456428Y-17115000D01*
X75459500Y-18129250D01*
X75618250Y-18288000D01*
X76867500Y-18288000D01*
X76867500Y-16638750D01*
X77121500Y-16638750D01*
X77121500Y-18288000D01*
X77141500Y-18288000D01*
X77141500Y-18542000D01*
X77121500Y-18542000D01*
X77121500Y-20191250D01*
X77280250Y-20350000D01*
X77894500Y-20353072D01*
X78018982Y-20340812D01*
X78138680Y-20304502D01*
X78248994Y-20245537D01*
X78307501Y-20197522D01*
X78307500Y-24927740D01*
X78301565Y-24988000D01*
X78307500Y-25048260D01*
X78307500Y-25048267D01*
X78307501Y-25048275D01*
X78307500Y-49338798D01*
X78301565Y-49399058D01*
X78307500Y-49459318D01*
X78307500Y-49459325D01*
X78325255Y-49639591D01*
X78395416Y-49870881D01*
X78509351Y-50084040D01*
X78662683Y-50270875D01*
X78709500Y-50309297D01*
X80166472Y-51766270D01*
X80166471Y-73737934D01*
X79907497Y-73996908D01*
X79860685Y-74035326D01*
X79822267Y-74082138D01*
X79822266Y-74082139D01*
X79801662Y-74107245D01*
X79707353Y-74222160D01*
X79662041Y-74306934D01*
X79593418Y-74435319D01*
X79523256Y-74666610D01*
X79499566Y-74907143D01*
X79505502Y-74967413D01*
X79505501Y-82323241D01*
X79499566Y-82383501D01*
X79505501Y-82443761D01*
X79505501Y-82443768D01*
X79523256Y-82624034D01*
X79593417Y-82855324D01*
X79707352Y-83068483D01*
X79860684Y-83255318D01*
X79907501Y-83293740D01*
X84278285Y-87664525D01*
X84316703Y-87711337D01*
X84503537Y-87864669D01*
X84716694Y-87978603D01*
X84716696Y-87978604D01*
X84947986Y-88048766D01*
X85068466Y-88060631D01*
X85128252Y-88066520D01*
X85128257Y-88066520D01*
X85188520Y-88072455D01*
X85248783Y-88066520D01*
X108960054Y-88066520D01*
X109020314Y-88072455D01*
X109080574Y-88066520D01*
X109080582Y-88066520D01*
X109260848Y-88048765D01*
X109492138Y-87978604D01*
X109705297Y-87864669D01*
X109892131Y-87711337D01*
X109930553Y-87664520D01*
X111976574Y-85618500D01*
X120081740Y-85618500D01*
X120142000Y-85624435D01*
X120202260Y-85618500D01*
X120202268Y-85618500D01*
X120382534Y-85600745D01*
X120613824Y-85530584D01*
X120826983Y-85416649D01*
X121013817Y-85263317D01*
X121052239Y-85216500D01*
X121306328Y-84962411D01*
X181061000Y-84962411D01*
X181061000Y-85420789D01*
X181150426Y-85870361D01*
X181325840Y-86293848D01*
X181580501Y-86674976D01*
X181904624Y-86999099D01*
X182285752Y-87253760D01*
X182709239Y-87429174D01*
X183158811Y-87518600D01*
X183617189Y-87518600D01*
X184066761Y-87429174D01*
X184490248Y-87253760D01*
X184871376Y-86999099D01*
X185195499Y-86674976D01*
X185450160Y-86293848D01*
X185625574Y-85870361D01*
X185715000Y-85420789D01*
X185715000Y-84962411D01*
X185625574Y-84512839D01*
X185450160Y-84089352D01*
X185195499Y-83708224D01*
X184871376Y-83384101D01*
X184490248Y-83129440D01*
X184066761Y-82954026D01*
X183617189Y-82864600D01*
X183158811Y-82864600D01*
X182709239Y-82954026D01*
X182285752Y-83129440D01*
X181904624Y-83384101D01*
X181580501Y-83708224D01*
X181325840Y-84089352D01*
X181150426Y-84512839D01*
X181061000Y-84962411D01*
X121306328Y-84962411D01*
X124293021Y-81975718D01*
X124310472Y-81990040D01*
X124608755Y-82149476D01*
X124932410Y-82247656D01*
X125269000Y-82280807D01*
X125605591Y-82247656D01*
X125929246Y-82149476D01*
X126227529Y-81990040D01*
X126488976Y-81775476D01*
X126703540Y-81514029D01*
X126862976Y-81215746D01*
X126961156Y-80892091D01*
X126986000Y-80639843D01*
X126986000Y-78491157D01*
X126961156Y-78238909D01*
X126862976Y-77915254D01*
X126703540Y-77616971D01*
X126496000Y-77364083D01*
X126496000Y-75907239D01*
X133945266Y-83356506D01*
X133983684Y-83403318D01*
X134170518Y-83556650D01*
X134383675Y-83670584D01*
X134383677Y-83670585D01*
X134614967Y-83740747D01*
X134735447Y-83752612D01*
X134795233Y-83758501D01*
X134795238Y-83758501D01*
X134855501Y-83764436D01*
X134915764Y-83758501D01*
X156830241Y-83758501D01*
X156890501Y-83764436D01*
X156950761Y-83758501D01*
X156950769Y-83758501D01*
X157131035Y-83740746D01*
X157362325Y-83670585D01*
X157575484Y-83556650D01*
X157762318Y-83403318D01*
X157800740Y-83356502D01*
X158885512Y-82271731D01*
X158932318Y-82233318D01*
X158970731Y-82186512D01*
X158970737Y-82186506D01*
X159069401Y-82066283D01*
X159085650Y-82046484D01*
X159199585Y-81833325D01*
X159205315Y-81814436D01*
X159269747Y-81602035D01*
X159282429Y-81473266D01*
X159287501Y-81421769D01*
X159287501Y-81421764D01*
X159293436Y-81361501D01*
X159287501Y-81301238D01*
X159287501Y-80062160D01*
X165783500Y-80062160D01*
X165783500Y-80500840D01*
X165869082Y-80931092D01*
X166036958Y-81336380D01*
X166280676Y-81701130D01*
X166590870Y-82011324D01*
X166955620Y-82255042D01*
X167360908Y-82422918D01*
X167791160Y-82508500D01*
X168229840Y-82508500D01*
X168660092Y-82422918D01*
X169065380Y-82255042D01*
X169430130Y-82011324D01*
X169740324Y-81701130D01*
X169869035Y-81508500D01*
X176007740Y-81508500D01*
X176068000Y-81514435D01*
X176128260Y-81508500D01*
X176128268Y-81508500D01*
X176308534Y-81490745D01*
X176539824Y-81420584D01*
X176752983Y-81306649D01*
X176939817Y-81153317D01*
X176978239Y-81106500D01*
X179021223Y-79063517D01*
X180986500Y-79063517D01*
X181129017Y-79049480D01*
X181266057Y-79007910D01*
X181392353Y-78940403D01*
X181503054Y-78849554D01*
X181593903Y-78738853D01*
X181661410Y-78612557D01*
X181702980Y-78475517D01*
X181717017Y-78333000D01*
X181717017Y-76353000D01*
X181702980Y-76210483D01*
X181661410Y-76073443D01*
X181593903Y-75947147D01*
X181503054Y-75836446D01*
X181392353Y-75745597D01*
X181266057Y-75678090D01*
X181129017Y-75636520D01*
X180986500Y-75622483D01*
X177026500Y-75622483D01*
X176883983Y-75636520D01*
X176746943Y-75678090D01*
X176620647Y-75745597D01*
X176509946Y-75836446D01*
X176419097Y-75947147D01*
X176351590Y-76073443D01*
X176310020Y-76210483D01*
X176295983Y-76353000D01*
X176295983Y-78318278D01*
X175559761Y-79054500D01*
X169869035Y-79054500D01*
X169740324Y-78861870D01*
X169430130Y-78551676D01*
X169065380Y-78307958D01*
X168660092Y-78140082D01*
X168229840Y-78054500D01*
X167791160Y-78054500D01*
X167360908Y-78140082D01*
X166955620Y-78307958D01*
X166590870Y-78551676D01*
X166280676Y-78861870D01*
X166036958Y-79226620D01*
X165869082Y-79631908D01*
X165783500Y-80062160D01*
X159287501Y-80062160D01*
X159287501Y-79261762D01*
X159293436Y-79201499D01*
X159285123Y-79117084D01*
X159280707Y-79072255D01*
X159269747Y-78960965D01*
X159199585Y-78729675D01*
X159140223Y-78618616D01*
X159085650Y-78516516D01*
X159023625Y-78440939D01*
X158970737Y-78376494D01*
X158970731Y-78376488D01*
X158932318Y-78329682D01*
X158885511Y-78291268D01*
X157800740Y-77206498D01*
X157762318Y-77159682D01*
X157575484Y-77006350D01*
X157362325Y-76892415D01*
X157131035Y-76822254D01*
X156950769Y-76804499D01*
X156950761Y-76804499D01*
X156890501Y-76798564D01*
X156830241Y-76804499D01*
X154028539Y-76804499D01*
X153682540Y-76458500D01*
X154079840Y-76458500D01*
X154510092Y-76372918D01*
X154915380Y-76205042D01*
X155280130Y-75961324D01*
X155590324Y-75651130D01*
X155834042Y-75286380D01*
X156001918Y-74881092D01*
X156087500Y-74450840D01*
X156087500Y-74012160D01*
X156042303Y-73784937D01*
X156257240Y-73570000D01*
X176805083Y-73570000D01*
X177057971Y-73777540D01*
X177356254Y-73936976D01*
X177679909Y-74035156D01*
X177932157Y-74060000D01*
X180080843Y-74060000D01*
X180333091Y-74035156D01*
X180656746Y-73936976D01*
X180955029Y-73777540D01*
X181216476Y-73562976D01*
X181431040Y-73301529D01*
X181590476Y-73003246D01*
X181688656Y-72679591D01*
X181721807Y-72343000D01*
X181688656Y-72006409D01*
X181590476Y-71682754D01*
X181431040Y-71384471D01*
X181216476Y-71123024D01*
X180955029Y-70908460D01*
X180656746Y-70749024D01*
X180333091Y-70650844D01*
X180080843Y-70626000D01*
X177932157Y-70626000D01*
X177679909Y-70650844D01*
X177356254Y-70749024D01*
X177057971Y-70908460D01*
X176805083Y-71116000D01*
X155809259Y-71116000D01*
X155748999Y-71110065D01*
X155688739Y-71116000D01*
X155688732Y-71116000D01*
X155508466Y-71133755D01*
X155277176Y-71203916D01*
X155064017Y-71317851D01*
X154877183Y-71471183D01*
X154838765Y-71517995D01*
X154307063Y-72049697D01*
X154079840Y-72004500D01*
X153641160Y-72004500D01*
X153210908Y-72090082D01*
X152805620Y-72257958D01*
X152440870Y-72501676D01*
X152130676Y-72811870D01*
X151971517Y-73050068D01*
X151971517Y-71898000D01*
X151957480Y-71755483D01*
X151915910Y-71618443D01*
X151848403Y-71492147D01*
X151757554Y-71381446D01*
X151646853Y-71290597D01*
X151520557Y-71223090D01*
X151468000Y-71207147D01*
X151468000Y-69595105D01*
X154676500Y-69595105D01*
X154802414Y-69885077D01*
X155134626Y-70050933D01*
X155492812Y-70148790D01*
X155863206Y-70174889D01*
X156231575Y-70128225D01*
X156583762Y-70010594D01*
X156818586Y-69885077D01*
X156944500Y-69595105D01*
X155810500Y-68461105D01*
X154676500Y-69595105D01*
X151468000Y-69595105D01*
X151468000Y-68462463D01*
X151473935Y-68402200D01*
X151468000Y-68341932D01*
X151468000Y-68334206D01*
X153917111Y-68334206D01*
X153963775Y-68702575D01*
X154081406Y-69054762D01*
X154206923Y-69289586D01*
X154496895Y-69415500D01*
X155630895Y-68281500D01*
X155990105Y-68281500D01*
X157124105Y-69415500D01*
X157414077Y-69289586D01*
X157579933Y-68957374D01*
X157677790Y-68599188D01*
X157703889Y-68228794D01*
X157657225Y-67860425D01*
X157539594Y-67508238D01*
X157414077Y-67273414D01*
X157124105Y-67147500D01*
X155990105Y-68281500D01*
X155630895Y-68281500D01*
X154496895Y-67147500D01*
X154206923Y-67273414D01*
X154041067Y-67605626D01*
X153943210Y-67963812D01*
X153917111Y-68334206D01*
X151468000Y-68334206D01*
X151468000Y-67433759D01*
X151473935Y-67373499D01*
X151468000Y-67313239D01*
X151468000Y-67313232D01*
X151450245Y-67132966D01*
X151438796Y-67095222D01*
X151414732Y-67015896D01*
X151400172Y-66967895D01*
X154676500Y-66967895D01*
X155810500Y-68101895D01*
X156944500Y-66967895D01*
X156818586Y-66677923D01*
X156486374Y-66512067D01*
X156128188Y-66414210D01*
X155757794Y-66388111D01*
X155389425Y-66434775D01*
X155037238Y-66552406D01*
X154802414Y-66677923D01*
X154676500Y-66967895D01*
X151400172Y-66967895D01*
X151380084Y-66901676D01*
X151266149Y-66688517D01*
X151251053Y-66670122D01*
X151201319Y-66420090D01*
X151086210Y-66142194D01*
X150919099Y-65892094D01*
X150706406Y-65679401D01*
X150456306Y-65512290D01*
X150178410Y-65397181D01*
X149883396Y-65338500D01*
X149582604Y-65338500D01*
X149287590Y-65397181D01*
X149009694Y-65512290D01*
X148820807Y-65638500D01*
X148010444Y-65638500D01*
X149097506Y-64551438D01*
X149144317Y-64513021D01*
X149297649Y-64326187D01*
X149411584Y-64113028D01*
X149429468Y-64054072D01*
X149481746Y-63881738D01*
X149496019Y-63736817D01*
X149499500Y-63701472D01*
X149499500Y-63701467D01*
X149505435Y-63641204D01*
X149499500Y-63580941D01*
X149499500Y-62368849D01*
X149800753Y-62493632D01*
X150019380Y-62537120D01*
X152269265Y-64787005D01*
X152307683Y-64833817D01*
X152494517Y-64987149D01*
X152707674Y-65101083D01*
X152707676Y-65101084D01*
X152938966Y-65171246D01*
X153059446Y-65183111D01*
X153119232Y-65189000D01*
X153119237Y-65189000D01*
X153179500Y-65194935D01*
X153239763Y-65189000D01*
X154125638Y-65189000D01*
X154147864Y-65222264D01*
X154423236Y-65497636D01*
X154747039Y-65713995D01*
X155106830Y-65863025D01*
X155488782Y-65939000D01*
X155878218Y-65939000D01*
X156260170Y-65863025D01*
X156619961Y-65713995D01*
X156943764Y-65497636D01*
X157219136Y-65222264D01*
X157435495Y-64898461D01*
X157584525Y-64538670D01*
X157660500Y-64156718D01*
X157660500Y-63767282D01*
X157655603Y-63742660D01*
X165656500Y-63742660D01*
X165656500Y-64181340D01*
X165742082Y-64611592D01*
X165909958Y-65016880D01*
X166153676Y-65381630D01*
X166463870Y-65691824D01*
X166828620Y-65935542D01*
X167233908Y-66103418D01*
X167331734Y-66122877D01*
X167005620Y-66257958D01*
X166640870Y-66501676D01*
X166330676Y-66811870D01*
X166086958Y-67176620D01*
X165919082Y-67581908D01*
X165833500Y-68012160D01*
X165833500Y-68450840D01*
X165919082Y-68881092D01*
X166086958Y-69286380D01*
X166330676Y-69651130D01*
X166640870Y-69961324D01*
X167005620Y-70205042D01*
X167410908Y-70372918D01*
X167841160Y-70458500D01*
X168279840Y-70458500D01*
X168710092Y-70372918D01*
X169115380Y-70205042D01*
X169480130Y-69961324D01*
X169790324Y-69651130D01*
X170034042Y-69286380D01*
X170201918Y-68881092D01*
X170287500Y-68450840D01*
X170287500Y-68012160D01*
X170201918Y-67581908D01*
X170034042Y-67176620D01*
X169790324Y-66811870D01*
X169480130Y-66501676D01*
X169115380Y-66257958D01*
X168710092Y-66090082D01*
X168612266Y-66070623D01*
X168938380Y-65935542D01*
X169303130Y-65691824D01*
X169613324Y-65381630D01*
X169742035Y-65189000D01*
X176134740Y-65189000D01*
X176195000Y-65194935D01*
X176255260Y-65189000D01*
X176255268Y-65189000D01*
X176435534Y-65171245D01*
X176666824Y-65101084D01*
X176879983Y-64987149D01*
X177066817Y-64833817D01*
X177105239Y-64787000D01*
X178957723Y-62934517D01*
X180923000Y-62934517D01*
X181065517Y-62920480D01*
X181202557Y-62878910D01*
X181328853Y-62811403D01*
X181439554Y-62720554D01*
X181530403Y-62609853D01*
X181597910Y-62483557D01*
X181639480Y-62346517D01*
X181653517Y-62204000D01*
X181653517Y-60224000D01*
X181639480Y-60081483D01*
X181597910Y-59944443D01*
X181530403Y-59818147D01*
X181439554Y-59707446D01*
X181328853Y-59616597D01*
X181202557Y-59549090D01*
X181065517Y-59507520D01*
X180923000Y-59493483D01*
X176963000Y-59493483D01*
X176820483Y-59507520D01*
X176683443Y-59549090D01*
X176557147Y-59616597D01*
X176446446Y-59707446D01*
X176355597Y-59818147D01*
X176288090Y-59944443D01*
X176246520Y-60081483D01*
X176232483Y-60224000D01*
X176232483Y-62189277D01*
X175686761Y-62735000D01*
X169742035Y-62735000D01*
X169613324Y-62542370D01*
X169303130Y-62232176D01*
X168938380Y-61988458D01*
X168533092Y-61820582D01*
X168102840Y-61735000D01*
X167664160Y-61735000D01*
X167233908Y-61820582D01*
X166828620Y-61988458D01*
X166463870Y-62232176D01*
X166153676Y-62542370D01*
X165909958Y-62907120D01*
X165742082Y-63312408D01*
X165656500Y-63742660D01*
X157655603Y-63742660D01*
X157584525Y-63385330D01*
X157435495Y-63025539D01*
X157219136Y-62701736D01*
X156943764Y-62426364D01*
X156619961Y-62210005D01*
X156260170Y-62060975D01*
X155878218Y-61985000D01*
X155488782Y-61985000D01*
X155106830Y-62060975D01*
X154747039Y-62210005D01*
X154423236Y-62426364D01*
X154147864Y-62701736D01*
X154125638Y-62735000D01*
X153687740Y-62735000D01*
X152018946Y-61066207D01*
X152031500Y-61003095D01*
X152031500Y-60662905D01*
X151965132Y-60329253D01*
X151834947Y-60014959D01*
X151645948Y-59732102D01*
X151405398Y-59491552D01*
X151122541Y-59302553D01*
X150808247Y-59172368D01*
X150474595Y-59106000D01*
X150134405Y-59106000D01*
X150071293Y-59118554D01*
X149182000Y-58229261D01*
X149182000Y-57471452D01*
X149304500Y-57483517D01*
X151304500Y-57483517D01*
X151447017Y-57469480D01*
X151557563Y-57435947D01*
X151506500Y-57692660D01*
X151506500Y-58131340D01*
X151592082Y-58561592D01*
X151759958Y-58966880D01*
X152003676Y-59331630D01*
X152313870Y-59641824D01*
X152678620Y-59885542D01*
X153083908Y-60053418D01*
X153514160Y-60139000D01*
X153952840Y-60139000D01*
X154383092Y-60053418D01*
X154788380Y-59885542D01*
X155153130Y-59641824D01*
X155463324Y-59331630D01*
X155707042Y-58966880D01*
X155874918Y-58561592D01*
X155960500Y-58131340D01*
X155960500Y-57692660D01*
X155915303Y-57465437D01*
X155939740Y-57441000D01*
X176741583Y-57441000D01*
X176994471Y-57648540D01*
X177292754Y-57807976D01*
X177616409Y-57906156D01*
X177868657Y-57931000D01*
X180017343Y-57931000D01*
X180269591Y-57906156D01*
X180593246Y-57807976D01*
X180891529Y-57648540D01*
X181152976Y-57433976D01*
X181367540Y-57172529D01*
X181526976Y-56874246D01*
X181625156Y-56550591D01*
X181658307Y-56214000D01*
X181625156Y-55877409D01*
X181526976Y-55553754D01*
X181367540Y-55255471D01*
X181152976Y-54994024D01*
X180891529Y-54779460D01*
X180593246Y-54620024D01*
X180269591Y-54521844D01*
X180017343Y-54497000D01*
X177868657Y-54497000D01*
X177616409Y-54521844D01*
X177292754Y-54620024D01*
X176994471Y-54779460D01*
X176741583Y-54987000D01*
X155491763Y-54987000D01*
X155431500Y-54981065D01*
X155371237Y-54987000D01*
X155371232Y-54987000D01*
X155311446Y-54992889D01*
X155190966Y-55004754D01*
X154959676Y-55074916D01*
X154746517Y-55188851D01*
X154559683Y-55342183D01*
X154521265Y-55388995D01*
X154180063Y-55730197D01*
X153952840Y-55685000D01*
X153514160Y-55685000D01*
X153083908Y-55770582D01*
X152678620Y-55938458D01*
X152313870Y-56182176D01*
X152035017Y-56461029D01*
X152035017Y-54753000D01*
X152020980Y-54610483D01*
X151979410Y-54473443D01*
X151911903Y-54347147D01*
X151821054Y-54236446D01*
X151710353Y-54145597D01*
X151584057Y-54078090D01*
X151447017Y-54036520D01*
X151304500Y-54022483D01*
X151277500Y-54022483D01*
X151277500Y-53813260D01*
X151283435Y-53753000D01*
X151277500Y-53692740D01*
X151277500Y-53692732D01*
X151259745Y-53512466D01*
X151195779Y-53301597D01*
X151189584Y-53281175D01*
X151186607Y-53275605D01*
X154549500Y-53275605D01*
X154675414Y-53565577D01*
X155007626Y-53731433D01*
X155365812Y-53829290D01*
X155736206Y-53855389D01*
X156104575Y-53808725D01*
X156456762Y-53691094D01*
X156691586Y-53565577D01*
X156817500Y-53275605D01*
X155683500Y-52141605D01*
X154549500Y-53275605D01*
X151186607Y-53275605D01*
X151133429Y-53176117D01*
X151075649Y-53068017D01*
X150922317Y-52881183D01*
X150875505Y-52842765D01*
X150601432Y-52568693D01*
X150631149Y-52532483D01*
X150745084Y-52319324D01*
X150815245Y-52088034D01*
X150822467Y-52014706D01*
X153790111Y-52014706D01*
X153836775Y-52383075D01*
X153954406Y-52735262D01*
X154079923Y-52970086D01*
X154369895Y-53096000D01*
X155503895Y-51962000D01*
X155863105Y-51962000D01*
X156997105Y-53096000D01*
X157287077Y-52970086D01*
X157452933Y-52637874D01*
X157550790Y-52279688D01*
X157576889Y-51909294D01*
X157530225Y-51540925D01*
X157412594Y-51188738D01*
X157287077Y-50953914D01*
X156997105Y-50828000D01*
X155863105Y-51962000D01*
X155503895Y-51962000D01*
X154369895Y-50828000D01*
X154079923Y-50953914D01*
X153914067Y-51286126D01*
X153816210Y-51644312D01*
X153790111Y-52014706D01*
X150822467Y-52014706D01*
X150833000Y-51907768D01*
X150833000Y-51907761D01*
X150838935Y-51847501D01*
X150833000Y-51787241D01*
X150833000Y-51204193D01*
X150959210Y-51015306D01*
X151074319Y-50737410D01*
X151092024Y-50648395D01*
X154549500Y-50648395D01*
X155683500Y-51782395D01*
X156817500Y-50648395D01*
X156691586Y-50358423D01*
X156359374Y-50192567D01*
X156001188Y-50094710D01*
X155630794Y-50068611D01*
X155262425Y-50115275D01*
X154910238Y-50232906D01*
X154675414Y-50358423D01*
X154549500Y-50648395D01*
X151092024Y-50648395D01*
X151133000Y-50442396D01*
X151133000Y-50141604D01*
X151074319Y-49846590D01*
X150959210Y-49568694D01*
X150792099Y-49318594D01*
X150579406Y-49105901D01*
X150329306Y-48938790D01*
X150051410Y-48823681D01*
X149828602Y-48779362D01*
X149664600Y-48615361D01*
X149664600Y-46289689D01*
X149676959Y-46297947D01*
X149991253Y-46428132D01*
X150130613Y-46455853D01*
X152236765Y-48562005D01*
X152275183Y-48608817D01*
X152462017Y-48762149D01*
X152675176Y-48876084D01*
X152906466Y-48946245D01*
X153086732Y-48964000D01*
X153086739Y-48964000D01*
X153146999Y-48969935D01*
X153207259Y-48964000D01*
X154086138Y-48964000D01*
X154108364Y-48997264D01*
X154383736Y-49272636D01*
X154707539Y-49488995D01*
X155067330Y-49638025D01*
X155449282Y-49714000D01*
X155838718Y-49714000D01*
X156220670Y-49638025D01*
X156580461Y-49488995D01*
X156904264Y-49272636D01*
X157179636Y-48997264D01*
X157395995Y-48673461D01*
X157545025Y-48313670D01*
X157621000Y-47931718D01*
X157621000Y-47542282D01*
X157616103Y-47517660D01*
X165617000Y-47517660D01*
X165617000Y-47956340D01*
X165702582Y-48386592D01*
X165870458Y-48791880D01*
X166114176Y-49156630D01*
X166424370Y-49466824D01*
X166789120Y-49710542D01*
X167108989Y-49843036D01*
X166878620Y-49938458D01*
X166513870Y-50182176D01*
X166203676Y-50492370D01*
X165959958Y-50857120D01*
X165792082Y-51262408D01*
X165706500Y-51692660D01*
X165706500Y-52131340D01*
X165792082Y-52561592D01*
X165959958Y-52966880D01*
X166203676Y-53331630D01*
X166513870Y-53641824D01*
X166878620Y-53885542D01*
X167283908Y-54053418D01*
X167714160Y-54139000D01*
X168152840Y-54139000D01*
X168583092Y-54053418D01*
X168988380Y-53885542D01*
X169353130Y-53641824D01*
X169663324Y-53331630D01*
X169907042Y-52966880D01*
X170074918Y-52561592D01*
X170160500Y-52131340D01*
X170160500Y-51692660D01*
X170074918Y-51262408D01*
X169907042Y-50857120D01*
X169663324Y-50492370D01*
X169353130Y-50182176D01*
X168988380Y-49938458D01*
X168668511Y-49805964D01*
X168898880Y-49710542D01*
X169263630Y-49466824D01*
X169573824Y-49156630D01*
X169702535Y-48964000D01*
X176357740Y-48964000D01*
X176418000Y-48969935D01*
X176478260Y-48964000D01*
X176478268Y-48964000D01*
X176658534Y-48946245D01*
X176889824Y-48876084D01*
X177102983Y-48762149D01*
X177289817Y-48608817D01*
X177328239Y-48562000D01*
X178830723Y-47059517D01*
X180796000Y-47059517D01*
X180938517Y-47045480D01*
X181075557Y-47003910D01*
X181201853Y-46936403D01*
X181312554Y-46845554D01*
X181403403Y-46734853D01*
X181470910Y-46608557D01*
X181512480Y-46471517D01*
X181526517Y-46329000D01*
X181526517Y-44349000D01*
X181512480Y-44206483D01*
X181470910Y-44069443D01*
X181403403Y-43943147D01*
X181312554Y-43832446D01*
X181201853Y-43741597D01*
X181075557Y-43674090D01*
X180938517Y-43632520D01*
X180796000Y-43618483D01*
X176836000Y-43618483D01*
X176693483Y-43632520D01*
X176556443Y-43674090D01*
X176430147Y-43741597D01*
X176319446Y-43832446D01*
X176228597Y-43943147D01*
X176161090Y-44069443D01*
X176119520Y-44206483D01*
X176105483Y-44349000D01*
X176105483Y-46314278D01*
X175909761Y-46510000D01*
X169702535Y-46510000D01*
X169573824Y-46317370D01*
X169263630Y-46007176D01*
X168898880Y-45763458D01*
X168493592Y-45595582D01*
X168063340Y-45510000D01*
X167624660Y-45510000D01*
X167194408Y-45595582D01*
X166789120Y-45763458D01*
X166424370Y-46007176D01*
X166114176Y-46317370D01*
X165870458Y-46682120D01*
X165702582Y-47087408D01*
X165617000Y-47517660D01*
X157616103Y-47517660D01*
X157545025Y-47160330D01*
X157395995Y-46800539D01*
X157179636Y-46476736D01*
X156904264Y-46201364D01*
X156580461Y-45985005D01*
X156220670Y-45835975D01*
X155838718Y-45760000D01*
X155449282Y-45760000D01*
X155067330Y-45835975D01*
X154707539Y-45985005D01*
X154383736Y-46201364D01*
X154108364Y-46476736D01*
X154086138Y-46510000D01*
X153655240Y-46510000D01*
X152198911Y-45053671D01*
X152222000Y-44937595D01*
X152222000Y-44597405D01*
X152155632Y-44263753D01*
X152025447Y-43949459D01*
X151836448Y-43666602D01*
X151595898Y-43426052D01*
X151404500Y-43298164D01*
X151404500Y-41906763D01*
X151410435Y-41846500D01*
X151404500Y-41786237D01*
X151404500Y-41786232D01*
X151394776Y-41687501D01*
X151386746Y-41605967D01*
X151329731Y-41418017D01*
X151476875Y-41418017D01*
X151467000Y-41467660D01*
X151467000Y-41906340D01*
X151552582Y-42336592D01*
X151720458Y-42741880D01*
X151964176Y-43106630D01*
X152274370Y-43416824D01*
X152639120Y-43660542D01*
X153044408Y-43828418D01*
X153474660Y-43914000D01*
X153913340Y-43914000D01*
X154343592Y-43828418D01*
X154748880Y-43660542D01*
X155113630Y-43416824D01*
X155423824Y-43106630D01*
X155667542Y-42741880D01*
X155835418Y-42336592D01*
X155921000Y-41906340D01*
X155921000Y-41566000D01*
X176614583Y-41566000D01*
X176867471Y-41773540D01*
X177165754Y-41932976D01*
X177489409Y-42031156D01*
X177741657Y-42056000D01*
X179890343Y-42056000D01*
X180142591Y-42031156D01*
X180466246Y-41932976D01*
X180764529Y-41773540D01*
X181025976Y-41558976D01*
X181240540Y-41297529D01*
X181399976Y-40999246D01*
X181498156Y-40675591D01*
X181531307Y-40339000D01*
X181498156Y-40002409D01*
X181399976Y-39678754D01*
X181240540Y-39380471D01*
X181025976Y-39119024D01*
X180764529Y-38904460D01*
X180466246Y-38745024D01*
X180142591Y-38646844D01*
X179890343Y-38622000D01*
X177741657Y-38622000D01*
X177489409Y-38646844D01*
X177165754Y-38745024D01*
X176867471Y-38904460D01*
X176614583Y-39112000D01*
X155102263Y-39112000D01*
X155042000Y-39106065D01*
X154981737Y-39112000D01*
X154981732Y-39112000D01*
X154921946Y-39117889D01*
X154801466Y-39129754D01*
X154570176Y-39199916D01*
X154357017Y-39313851D01*
X154289013Y-39369661D01*
X154216995Y-39428764D01*
X154216989Y-39428770D01*
X154170183Y-39467183D01*
X154139207Y-39504927D01*
X153913340Y-39460000D01*
X153474660Y-39460000D01*
X153044408Y-39545582D01*
X152639120Y-39713458D01*
X152274370Y-39957176D01*
X152225517Y-40006029D01*
X152225517Y-38687500D01*
X152211480Y-38544983D01*
X152169910Y-38407943D01*
X152102403Y-38281647D01*
X152011554Y-38170946D01*
X151900853Y-38080097D01*
X151774557Y-38012590D01*
X151637517Y-37971020D01*
X151495000Y-37956983D01*
X151404500Y-37956983D01*
X151404500Y-37050605D01*
X154510000Y-37050605D01*
X154635914Y-37340577D01*
X154968126Y-37506433D01*
X155326312Y-37604290D01*
X155696706Y-37630389D01*
X156065075Y-37583725D01*
X156417262Y-37466094D01*
X156652086Y-37340577D01*
X156778000Y-37050605D01*
X155644000Y-35916605D01*
X154510000Y-37050605D01*
X151404500Y-37050605D01*
X151404500Y-35789706D01*
X153750611Y-35789706D01*
X153797275Y-36158075D01*
X153914906Y-36510262D01*
X154040423Y-36745086D01*
X154330395Y-36871000D01*
X155464395Y-35737000D01*
X155823605Y-35737000D01*
X156957605Y-36871000D01*
X157247577Y-36745086D01*
X157413433Y-36412874D01*
X157511290Y-36054688D01*
X157537389Y-35684294D01*
X157490725Y-35315925D01*
X157373094Y-34963738D01*
X157247577Y-34728914D01*
X156957605Y-34603000D01*
X155823605Y-35737000D01*
X155464395Y-35737000D01*
X154330395Y-34603000D01*
X154040423Y-34728914D01*
X153874567Y-35061126D01*
X153776710Y-35419312D01*
X153750611Y-35789706D01*
X151404500Y-35789706D01*
X151404500Y-34798657D01*
X151450500Y-34567396D01*
X151450500Y-34423395D01*
X154510000Y-34423395D01*
X155644000Y-35557395D01*
X156778000Y-34423395D01*
X156652086Y-34133423D01*
X156319874Y-33967567D01*
X155961688Y-33869710D01*
X155591294Y-33843611D01*
X155222925Y-33890275D01*
X154870738Y-34007906D01*
X154635914Y-34133423D01*
X154510000Y-34423395D01*
X151450500Y-34423395D01*
X151450500Y-34266604D01*
X151391819Y-33971590D01*
X151276710Y-33693694D01*
X151109599Y-33443594D01*
X150896906Y-33230901D01*
X150646806Y-33063790D01*
X150368910Y-32948681D01*
X150146102Y-32904362D01*
X149785499Y-32543760D01*
X149785499Y-29870103D01*
X149920130Y-29925869D01*
X152269265Y-32275005D01*
X152307683Y-32321817D01*
X152494517Y-32475149D01*
X152707676Y-32589084D01*
X152938966Y-32659245D01*
X153119232Y-32677000D01*
X153119239Y-32677000D01*
X153179499Y-32682935D01*
X153239759Y-32677000D01*
X154062138Y-32677000D01*
X154084364Y-32710264D01*
X154359736Y-32985636D01*
X154683539Y-33201995D01*
X155043330Y-33351025D01*
X155425282Y-33427000D01*
X155814718Y-33427000D01*
X156196670Y-33351025D01*
X156556461Y-33201995D01*
X156880264Y-32985636D01*
X157155636Y-32710264D01*
X157371995Y-32386461D01*
X157521025Y-32026670D01*
X157597000Y-31644718D01*
X157597000Y-31255282D01*
X157592103Y-31230660D01*
X165593000Y-31230660D01*
X165593000Y-31669340D01*
X165678582Y-32099592D01*
X165846458Y-32504880D01*
X166090176Y-32869630D01*
X166400370Y-33179824D01*
X166765120Y-33423542D01*
X167152079Y-33583826D01*
X166839120Y-33713458D01*
X166474370Y-33957176D01*
X166164176Y-34267370D01*
X165920458Y-34632120D01*
X165752582Y-35037408D01*
X165667000Y-35467660D01*
X165667000Y-35906340D01*
X165752582Y-36336592D01*
X165920458Y-36741880D01*
X166164176Y-37106630D01*
X166474370Y-37416824D01*
X166839120Y-37660542D01*
X167244408Y-37828418D01*
X167674660Y-37914000D01*
X168113340Y-37914000D01*
X168543592Y-37828418D01*
X168948880Y-37660542D01*
X169313630Y-37416824D01*
X169623824Y-37106630D01*
X169867542Y-36741880D01*
X170035418Y-36336592D01*
X170121000Y-35906340D01*
X170121000Y-35467660D01*
X170035418Y-35037408D01*
X169867542Y-34632120D01*
X169623824Y-34267370D01*
X169313630Y-33957176D01*
X168948880Y-33713458D01*
X168561921Y-33553174D01*
X168874880Y-33423542D01*
X169239630Y-33179824D01*
X169549824Y-32869630D01*
X169678535Y-32677000D01*
X176071240Y-32677000D01*
X176131500Y-32682935D01*
X176191760Y-32677000D01*
X176191768Y-32677000D01*
X176372034Y-32659245D01*
X176603324Y-32589084D01*
X176816483Y-32475149D01*
X177003317Y-32321817D01*
X177041739Y-32275000D01*
X179021223Y-30295517D01*
X180986500Y-30295517D01*
X181129017Y-30281480D01*
X181266057Y-30239910D01*
X181392353Y-30172403D01*
X181503054Y-30081554D01*
X181593903Y-29970853D01*
X181661410Y-29844557D01*
X181702980Y-29707517D01*
X181717017Y-29565000D01*
X181717017Y-27585000D01*
X181702980Y-27442483D01*
X181661410Y-27305443D01*
X181593903Y-27179147D01*
X181503054Y-27068446D01*
X181392353Y-26977597D01*
X181266057Y-26910090D01*
X181129017Y-26868520D01*
X180986500Y-26854483D01*
X177026500Y-26854483D01*
X176883983Y-26868520D01*
X176746943Y-26910090D01*
X176620647Y-26977597D01*
X176509946Y-27068446D01*
X176419097Y-27179147D01*
X176351590Y-27305443D01*
X176310020Y-27442483D01*
X176295983Y-27585000D01*
X176295983Y-29550278D01*
X175623261Y-30223000D01*
X169678535Y-30223000D01*
X169549824Y-30030370D01*
X169239630Y-29720176D01*
X168874880Y-29476458D01*
X168469592Y-29308582D01*
X168039340Y-29223000D01*
X167600660Y-29223000D01*
X167170408Y-29308582D01*
X166765120Y-29476458D01*
X166400370Y-29720176D01*
X166090176Y-30030370D01*
X165846458Y-30395120D01*
X165678582Y-30800408D01*
X165593000Y-31230660D01*
X157592103Y-31230660D01*
X157521025Y-30873330D01*
X157371995Y-30513539D01*
X157155636Y-30189736D01*
X156880264Y-29914364D01*
X156556461Y-29698005D01*
X156196670Y-29548975D01*
X155814718Y-29473000D01*
X155425282Y-29473000D01*
X155043330Y-29548975D01*
X154683539Y-29698005D01*
X154359736Y-29914364D01*
X154084364Y-30189736D01*
X154062138Y-30223000D01*
X153687740Y-30223000D01*
X152230805Y-28766065D01*
X152285500Y-28491095D01*
X152285500Y-28150905D01*
X152219132Y-27817253D01*
X152088947Y-27502959D01*
X151899948Y-27220102D01*
X151659398Y-26979552D01*
X151381764Y-26794043D01*
X151316584Y-26579176D01*
X151287374Y-26524528D01*
X151202649Y-26366017D01*
X151049317Y-26179183D01*
X151002505Y-26140765D01*
X149833257Y-24971517D01*
X151484601Y-24971517D01*
X151443000Y-25180660D01*
X151443000Y-25619340D01*
X151528582Y-26049592D01*
X151696458Y-26454880D01*
X151940176Y-26819630D01*
X152250370Y-27129824D01*
X152615120Y-27373542D01*
X153020408Y-27541418D01*
X153450660Y-27627000D01*
X153889340Y-27627000D01*
X154319592Y-27541418D01*
X154724880Y-27373542D01*
X155089630Y-27129824D01*
X155399824Y-26819630D01*
X155643542Y-26454880D01*
X155811418Y-26049592D01*
X155897000Y-25619340D01*
X155897000Y-25180660D01*
X155851803Y-24953437D01*
X156003240Y-24802000D01*
X176805083Y-24802000D01*
X177057971Y-25009540D01*
X177356254Y-25168976D01*
X177679909Y-25267156D01*
X177932157Y-25292000D01*
X180080843Y-25292000D01*
X180333091Y-25267156D01*
X180656746Y-25168976D01*
X180955029Y-25009540D01*
X181216476Y-24794976D01*
X181431040Y-24533529D01*
X181590476Y-24235246D01*
X181688656Y-23911591D01*
X181721807Y-23575000D01*
X181688656Y-23238409D01*
X181590476Y-22914754D01*
X181431040Y-22616471D01*
X181216476Y-22355024D01*
X180955029Y-22140460D01*
X180656746Y-21981024D01*
X180333091Y-21882844D01*
X180080843Y-21858000D01*
X177932157Y-21858000D01*
X177679909Y-21882844D01*
X177356254Y-21981024D01*
X177057971Y-22140460D01*
X176805083Y-22348000D01*
X155555263Y-22348000D01*
X155495000Y-22342065D01*
X155434737Y-22348000D01*
X155434732Y-22348000D01*
X155374946Y-22353889D01*
X155254466Y-22365754D01*
X155023176Y-22435916D01*
X154810017Y-22549851D01*
X154623183Y-22703183D01*
X154584765Y-22749995D01*
X154116563Y-23218197D01*
X153889340Y-23173000D01*
X153450660Y-23173000D01*
X153020408Y-23258582D01*
X152615120Y-23426458D01*
X152289017Y-23644353D01*
X152289017Y-22241000D01*
X152274980Y-22098483D01*
X152233410Y-21961443D01*
X152165903Y-21835147D01*
X152075054Y-21724446D01*
X151964353Y-21633597D01*
X151838057Y-21566090D01*
X151701017Y-21524520D01*
X151558500Y-21510483D01*
X151404500Y-21510483D01*
X151404500Y-20763605D01*
X154486000Y-20763605D01*
X154611914Y-21053577D01*
X154944126Y-21219433D01*
X155302312Y-21317290D01*
X155672706Y-21343389D01*
X156041075Y-21296725D01*
X156393262Y-21179094D01*
X156628086Y-21053577D01*
X156754000Y-20763605D01*
X155620000Y-19629605D01*
X154486000Y-20763605D01*
X151404500Y-20763605D01*
X151404500Y-19502706D01*
X153726611Y-19502706D01*
X153773275Y-19871075D01*
X153890906Y-20223262D01*
X154016423Y-20458086D01*
X154306395Y-20584000D01*
X155440395Y-19450000D01*
X155799605Y-19450000D01*
X156933605Y-20584000D01*
X157223577Y-20458086D01*
X157389433Y-20125874D01*
X157487290Y-19767688D01*
X157513389Y-19397294D01*
X157485947Y-19180660D01*
X165643000Y-19180660D01*
X165643000Y-19619340D01*
X165728582Y-20049592D01*
X165896458Y-20454880D01*
X166140176Y-20819630D01*
X166450370Y-21129824D01*
X166815120Y-21373542D01*
X167220408Y-21541418D01*
X167650660Y-21627000D01*
X168089340Y-21627000D01*
X168519592Y-21541418D01*
X168924880Y-21373542D01*
X169289630Y-21129824D01*
X169599824Y-20819630D01*
X169843542Y-20454880D01*
X170011418Y-20049592D01*
X170097000Y-19619340D01*
X170097000Y-19180660D01*
X170011418Y-18750408D01*
X169843542Y-18345120D01*
X169599824Y-17980370D01*
X169289630Y-17670176D01*
X168924880Y-17426458D01*
X168519592Y-17258582D01*
X168201003Y-17195211D01*
X181213400Y-17195211D01*
X181213400Y-17653589D01*
X181302826Y-18103161D01*
X181478240Y-18526648D01*
X181732901Y-18907776D01*
X182057024Y-19231899D01*
X182438152Y-19486560D01*
X182861639Y-19661974D01*
X183311211Y-19751400D01*
X183769589Y-19751400D01*
X184219161Y-19661974D01*
X184642648Y-19486560D01*
X185023776Y-19231899D01*
X185347899Y-18907776D01*
X185602560Y-18526648D01*
X185777974Y-18103161D01*
X185867400Y-17653589D01*
X185867400Y-17195211D01*
X185777974Y-16745639D01*
X185602560Y-16322152D01*
X185347899Y-15941024D01*
X185023776Y-15616901D01*
X184642648Y-15362240D01*
X184219161Y-15186826D01*
X183769589Y-15097400D01*
X183311211Y-15097400D01*
X182861639Y-15186826D01*
X182438152Y-15362240D01*
X182057024Y-15616901D01*
X181732901Y-15941024D01*
X181478240Y-16322152D01*
X181302826Y-16745639D01*
X181213400Y-17195211D01*
X168201003Y-17195211D01*
X168089340Y-17173000D01*
X167650660Y-17173000D01*
X167220408Y-17258582D01*
X166815120Y-17426458D01*
X166450370Y-17670176D01*
X166140176Y-17980370D01*
X165896458Y-18345120D01*
X165728582Y-18750408D01*
X165643000Y-19180660D01*
X157485947Y-19180660D01*
X157466725Y-19028925D01*
X157349094Y-18676738D01*
X157223577Y-18441914D01*
X156933605Y-18316000D01*
X155799605Y-19450000D01*
X155440395Y-19450000D01*
X154306395Y-18316000D01*
X154016423Y-18441914D01*
X153850567Y-18774126D01*
X153752710Y-19132312D01*
X153726611Y-19502706D01*
X151404500Y-19502706D01*
X151404500Y-19439846D01*
X151582448Y-19261898D01*
X151771447Y-18979041D01*
X151901632Y-18664747D01*
X151968000Y-18331095D01*
X151968000Y-18136395D01*
X154486000Y-18136395D01*
X155620000Y-19270395D01*
X156754000Y-18136395D01*
X156628086Y-17846423D01*
X156295874Y-17680567D01*
X155937688Y-17582710D01*
X155567294Y-17556611D01*
X155198925Y-17603275D01*
X154846738Y-17720906D01*
X154611914Y-17846423D01*
X154486000Y-18136395D01*
X151968000Y-18136395D01*
X151968000Y-17990905D01*
X151901632Y-17657253D01*
X151771447Y-17342959D01*
X151582448Y-17060102D01*
X151341898Y-16819552D01*
X151059041Y-16630553D01*
X150744747Y-16500368D01*
X150411095Y-16434000D01*
X150249239Y-16434000D01*
X149679450Y-15864211D01*
X149641028Y-15817394D01*
X149454194Y-15664062D01*
X149241035Y-15550127D01*
X149009745Y-15479966D01*
X148829479Y-15462211D01*
X148829471Y-15462211D01*
X148769211Y-15456276D01*
X148708951Y-15462211D01*
X144580550Y-15462211D01*
X144520287Y-15456276D01*
X144460024Y-15462211D01*
X144460019Y-15462211D01*
X144400233Y-15468100D01*
X144279753Y-15479965D01*
X144102295Y-15533797D01*
X144048463Y-15550127D01*
X143835304Y-15664062D01*
X143648470Y-15817394D01*
X143610048Y-15864211D01*
X143447000Y-16027259D01*
X143400183Y-16065681D01*
X143246851Y-16252516D01*
X143132916Y-16465675D01*
X143062755Y-16696965D01*
X143045000Y-16877231D01*
X143045000Y-16877238D01*
X143039065Y-16937498D01*
X143045000Y-16997758D01*
X143045001Y-20704330D01*
X142869203Y-20918541D01*
X142727410Y-21183816D01*
X142640095Y-21471657D01*
X142618000Y-21695990D01*
X142618000Y-21909594D01*
X139230089Y-18521684D01*
X139268000Y-18331095D01*
X139268000Y-17990905D01*
X139201632Y-17657253D01*
X139071447Y-17342959D01*
X138882448Y-17060102D01*
X138641898Y-16819552D01*
X138359041Y-16630553D01*
X138044747Y-16500368D01*
X137711095Y-16434000D01*
X137370905Y-16434000D01*
X137037253Y-16500368D01*
X136722959Y-16630553D01*
X136440102Y-16819552D01*
X136199552Y-17060102D01*
X136010553Y-17342959D01*
X135880368Y-17657253D01*
X135814000Y-17990905D01*
X135814000Y-18331095D01*
X135880368Y-18664747D01*
X136010553Y-18979041D01*
X136199552Y-19261898D01*
X136440102Y-19502448D01*
X136722959Y-19691447D01*
X137037253Y-19821632D01*
X137065098Y-19827171D01*
X140070618Y-22832692D01*
X139991680Y-22790498D01*
X139871982Y-22754188D01*
X139747500Y-22741928D01*
X139033250Y-22745000D01*
X138874500Y-22903750D01*
X138874500Y-24003000D01*
X140223750Y-24003000D01*
X140382500Y-23844250D01*
X140385572Y-23380000D01*
X140373312Y-23255518D01*
X140337002Y-23135820D01*
X140294808Y-23056882D01*
X140695501Y-23457575D01*
X140695500Y-25974739D01*
X140689565Y-26035000D01*
X140695500Y-26095260D01*
X140695500Y-26095267D01*
X140713255Y-26275533D01*
X140783416Y-26506823D01*
X140897351Y-26719982D01*
X141050683Y-26906817D01*
X141097500Y-26945239D01*
X142626029Y-28473769D01*
X142614483Y-28591000D01*
X142614483Y-30472200D01*
X141744940Y-30472200D01*
X140474500Y-29201761D01*
X140474500Y-29039905D01*
X140408132Y-28706253D01*
X140277947Y-28391959D01*
X140088948Y-28109102D01*
X139849136Y-27869290D01*
X140011273Y-27707152D01*
X140189328Y-27440673D01*
X140311975Y-27144578D01*
X140374500Y-26830245D01*
X140374500Y-26509755D01*
X140311975Y-26195422D01*
X140189328Y-25899327D01*
X140011273Y-25632848D01*
X139881385Y-25502960D01*
X139991680Y-25469502D01*
X140101994Y-25410537D01*
X140198685Y-25331185D01*
X140278037Y-25234494D01*
X140337002Y-25124180D01*
X140373312Y-25004482D01*
X140385572Y-24880000D01*
X140382500Y-24415750D01*
X140223750Y-24257000D01*
X138874500Y-24257000D01*
X138874500Y-24277000D01*
X138620500Y-24277000D01*
X138620500Y-24257000D01*
X137271250Y-24257000D01*
X137112500Y-24415750D01*
X137109428Y-24880000D01*
X137121688Y-25004482D01*
X137157998Y-25124180D01*
X137216963Y-25234494D01*
X137296315Y-25331185D01*
X137393006Y-25410537D01*
X137453739Y-25443000D01*
X136966195Y-25443000D01*
X136843622Y-25361099D01*
X136574825Y-25249760D01*
X136289472Y-25193000D01*
X135998528Y-25193000D01*
X135713175Y-25249760D01*
X135444378Y-25361099D01*
X135202467Y-25522739D01*
X134996739Y-25728467D01*
X134835099Y-25970378D01*
X134723760Y-26239175D01*
X134667000Y-26524528D01*
X134667000Y-26815472D01*
X134723760Y-27100825D01*
X134835099Y-27369622D01*
X134996739Y-27611533D01*
X135202467Y-27817261D01*
X135444378Y-27978901D01*
X135713175Y-28090240D01*
X135998528Y-28147000D01*
X136289472Y-28147000D01*
X136574825Y-28090240D01*
X136843622Y-27978901D01*
X136966195Y-27897000D01*
X137618154Y-27897000D01*
X137406052Y-28109102D01*
X137217053Y-28391959D01*
X137086868Y-28706253D01*
X137020500Y-29039905D01*
X137020500Y-29380095D01*
X137086868Y-29713747D01*
X137217053Y-30028041D01*
X137406052Y-30310898D01*
X137646602Y-30551448D01*
X137929459Y-30740447D01*
X138243753Y-30870632D01*
X138577405Y-30937000D01*
X138739261Y-30937000D01*
X140326465Y-32524205D01*
X140364883Y-32571017D01*
X140551717Y-32724349D01*
X140764876Y-32838284D01*
X140996166Y-32908445D01*
X141176432Y-32926200D01*
X141176439Y-32926200D01*
X141236699Y-32932135D01*
X141296959Y-32926200D01*
X145774910Y-32926200D01*
X145835170Y-32932135D01*
X145895430Y-32926200D01*
X145895438Y-32926200D01*
X146075704Y-32908445D01*
X146306994Y-32838284D01*
X146520153Y-32724349D01*
X146706987Y-32571017D01*
X146745409Y-32524200D01*
X147331499Y-31938110D01*
X147331499Y-32991739D01*
X147325564Y-33051999D01*
X147331499Y-33112259D01*
X147331499Y-33112266D01*
X147339155Y-33190000D01*
X146756893Y-33190000D01*
X146696630Y-33184065D01*
X146636367Y-33190000D01*
X146636362Y-33190000D01*
X146576576Y-33195889D01*
X146456096Y-33207754D01*
X146232273Y-33275651D01*
X146224806Y-33277916D01*
X146011647Y-33391851D01*
X145968231Y-33427482D01*
X145871625Y-33506764D01*
X145871619Y-33506770D01*
X145824813Y-33545183D01*
X145786400Y-33591989D01*
X143193000Y-36185391D01*
X143146183Y-36223813D01*
X142992851Y-36410648D01*
X142878916Y-36623807D01*
X142808755Y-36855097D01*
X142791000Y-37035363D01*
X142791000Y-37035370D01*
X142785065Y-37095630D01*
X142787411Y-37119454D01*
X142742203Y-37174541D01*
X142600410Y-37439816D01*
X142513095Y-37727657D01*
X142491000Y-37951990D01*
X142491000Y-38502011D01*
X142513095Y-38726344D01*
X142600410Y-39014185D01*
X142742203Y-39279460D01*
X142791000Y-39338919D01*
X142791000Y-39389076D01*
X142785065Y-39449336D01*
X142791000Y-39509596D01*
X142791000Y-39509603D01*
X142808755Y-39689869D01*
X142878916Y-39921159D01*
X142992851Y-40134318D01*
X143146183Y-40321153D01*
X143193000Y-40359575D01*
X147026977Y-44193552D01*
X146857343Y-44142095D01*
X146558000Y-44112612D01*
X146258656Y-44142095D01*
X145970815Y-44229410D01*
X145705540Y-44371203D01*
X145484833Y-44552332D01*
X145425403Y-44441147D01*
X145334554Y-44330446D01*
X145245000Y-44256952D01*
X145245000Y-44002260D01*
X145250935Y-43942000D01*
X145245000Y-43881740D01*
X145245000Y-43881732D01*
X145227245Y-43701466D01*
X145214831Y-43660542D01*
X145157084Y-43470175D01*
X145069865Y-43307000D01*
X145043149Y-43257017D01*
X144889817Y-43070183D01*
X144843005Y-43031765D01*
X142197000Y-40385761D01*
X142197000Y-38973059D01*
X142202935Y-38912799D01*
X142197000Y-38852539D01*
X142197000Y-38852532D01*
X142179245Y-38672266D01*
X142109084Y-38440976D01*
X141995149Y-38227817D01*
X141841817Y-38040983D01*
X141795000Y-38002561D01*
X141618250Y-37825811D01*
X141588749Y-37770618D01*
X141435417Y-37583783D01*
X141388605Y-37545365D01*
X138694114Y-34850874D01*
X138750500Y-34567396D01*
X138750500Y-34266604D01*
X138691819Y-33971590D01*
X138576710Y-33693694D01*
X138409599Y-33443594D01*
X138196906Y-33230901D01*
X137946806Y-33063790D01*
X137668910Y-32948681D01*
X137373896Y-32890000D01*
X137073104Y-32890000D01*
X136778090Y-32948681D01*
X136500194Y-33063790D01*
X136250094Y-33230901D01*
X136037401Y-33443594D01*
X135870290Y-33693694D01*
X135755181Y-33971590D01*
X135696500Y-34266604D01*
X135696500Y-34567396D01*
X135755181Y-34862410D01*
X135870290Y-35140306D01*
X136014224Y-35355719D01*
X136014255Y-35356033D01*
X136084416Y-35587323D01*
X136198351Y-35800482D01*
X136351683Y-35987317D01*
X136398500Y-36025739D01*
X139508951Y-39136191D01*
X139538451Y-39191382D01*
X139691783Y-39378217D01*
X139693266Y-39379434D01*
X139096750Y-39382000D01*
X138938000Y-39540750D01*
X138938000Y-40640000D01*
X138958000Y-40640000D01*
X138958000Y-40894000D01*
X138938000Y-40894000D01*
X138938000Y-40914000D01*
X138684000Y-40914000D01*
X138684000Y-40894000D01*
X137334750Y-40894000D01*
X137176000Y-41052750D01*
X137172928Y-41517000D01*
X137185188Y-41641482D01*
X137221498Y-41761180D01*
X137280463Y-41871494D01*
X137359815Y-41968185D01*
X137456506Y-42047537D01*
X137517239Y-42080000D01*
X137194795Y-42080000D01*
X137072222Y-41998099D01*
X136803425Y-41886760D01*
X136518072Y-41830000D01*
X136227128Y-41830000D01*
X135941775Y-41886760D01*
X135672978Y-41998099D01*
X135431067Y-42159739D01*
X135225339Y-42365467D01*
X135063699Y-42607378D01*
X134952360Y-42876175D01*
X134895600Y-43161528D01*
X134895600Y-43452472D01*
X134952360Y-43737825D01*
X135063699Y-44006622D01*
X135225339Y-44248533D01*
X135431067Y-44454261D01*
X135672978Y-44615901D01*
X135941775Y-44727240D01*
X136227128Y-44784000D01*
X136518072Y-44784000D01*
X136803425Y-44727240D01*
X137072222Y-44615901D01*
X137194795Y-44534000D01*
X137681654Y-44534000D01*
X137469552Y-44746102D01*
X137280553Y-45028959D01*
X137150368Y-45343253D01*
X137084000Y-45676905D01*
X137084000Y-46017095D01*
X137150368Y-46350747D01*
X137280553Y-46665041D01*
X137469552Y-46947898D01*
X137710102Y-47188448D01*
X137992959Y-47377447D01*
X138307253Y-47507632D01*
X138640905Y-47574000D01*
X138802761Y-47574000D01*
X139907365Y-48678605D01*
X139945783Y-48725417D01*
X140132617Y-48878749D01*
X140223327Y-48927234D01*
X140345775Y-48992684D01*
X140560425Y-49057797D01*
X140577066Y-49062845D01*
X140757332Y-49080600D01*
X140757340Y-49080600D01*
X140817600Y-49086535D01*
X140877860Y-49080600D01*
X145309597Y-49080600D01*
X145266980Y-49294851D01*
X145266980Y-49536549D01*
X145314133Y-49773603D01*
X145406627Y-49996902D01*
X145540907Y-50197867D01*
X145711813Y-50368773D01*
X145912778Y-50503053D01*
X146136077Y-50595547D01*
X146373131Y-50642700D01*
X146614829Y-50642700D01*
X146851883Y-50595547D01*
X147075182Y-50503053D01*
X147276147Y-50368773D01*
X147447053Y-50197867D01*
X147576467Y-50004185D01*
X147612600Y-50033839D01*
X148093362Y-50514602D01*
X148137681Y-50737410D01*
X148252790Y-51015306D01*
X148379000Y-51204193D01*
X148379000Y-51339261D01*
X148367261Y-51351000D01*
X144851893Y-51351000D01*
X144791630Y-51345065D01*
X144731367Y-51351000D01*
X144731362Y-51351000D01*
X144671576Y-51356889D01*
X144551096Y-51368754D01*
X144371054Y-51423370D01*
X144319806Y-51438916D01*
X144106647Y-51552851D01*
X143994108Y-51645210D01*
X143971330Y-51663904D01*
X143919813Y-51706183D01*
X143881395Y-51752995D01*
X143002500Y-52631891D01*
X142955683Y-52670313D01*
X142802351Y-52857148D01*
X142688416Y-53070307D01*
X142618255Y-53301597D01*
X142600500Y-53481863D01*
X142600500Y-53481870D01*
X142594565Y-53542130D01*
X142596911Y-53565954D01*
X142551703Y-53621041D01*
X142409910Y-53886316D01*
X142322595Y-54174157D01*
X142300500Y-54398490D01*
X142300500Y-54948511D01*
X142314919Y-55094913D01*
X142303005Y-55085135D01*
X138248782Y-51030913D01*
X138259210Y-51015306D01*
X138374319Y-50737410D01*
X138433000Y-50442396D01*
X138433000Y-50141604D01*
X138374319Y-49846590D01*
X138259210Y-49568694D01*
X138092099Y-49318594D01*
X137879406Y-49105901D01*
X137629306Y-48938790D01*
X137351410Y-48823681D01*
X137056396Y-48765000D01*
X136755604Y-48765000D01*
X136460590Y-48823681D01*
X136182694Y-48938790D01*
X135932594Y-49105901D01*
X135719901Y-49318594D01*
X135552790Y-49568694D01*
X135437681Y-49846590D01*
X135379000Y-50141604D01*
X135379000Y-50442396D01*
X135437681Y-50737410D01*
X135552790Y-51015306D01*
X135679000Y-51204193D01*
X135679000Y-51363110D01*
X135673065Y-51423370D01*
X135679000Y-51483630D01*
X135679000Y-51483637D01*
X135696755Y-51663903D01*
X135766916Y-51895193D01*
X135880851Y-52108352D01*
X136034183Y-52295187D01*
X136081000Y-52333609D01*
X139066926Y-55319536D01*
X138842750Y-55320500D01*
X138684000Y-55479250D01*
X138684000Y-56578500D01*
X140033250Y-56578500D01*
X140179570Y-56432180D01*
X140251001Y-56503611D01*
X140251000Y-58931239D01*
X140245065Y-58991500D01*
X140251000Y-59051760D01*
X140251000Y-59051767D01*
X140268755Y-59232033D01*
X140338916Y-59463323D01*
X140452851Y-59676482D01*
X140606183Y-59863317D01*
X140653000Y-59901739D01*
X142296983Y-61545723D01*
X142296983Y-62933400D01*
X141440140Y-62933400D01*
X140284000Y-61777261D01*
X140284000Y-61615405D01*
X140217632Y-61281753D01*
X140087447Y-60967459D01*
X139898448Y-60684602D01*
X139658636Y-60444790D01*
X139820773Y-60282652D01*
X139998828Y-60016173D01*
X140121475Y-59720078D01*
X140184000Y-59405745D01*
X140184000Y-59085255D01*
X140121475Y-58770922D01*
X139998828Y-58474827D01*
X139820773Y-58208348D01*
X139690885Y-58078460D01*
X139801180Y-58045002D01*
X139911494Y-57986037D01*
X140008185Y-57906685D01*
X140087537Y-57809994D01*
X140146502Y-57699680D01*
X140182812Y-57579982D01*
X140195072Y-57455500D01*
X140192000Y-56991250D01*
X140033250Y-56832500D01*
X138684000Y-56832500D01*
X138684000Y-56852500D01*
X138430000Y-56852500D01*
X138430000Y-56832500D01*
X137080750Y-56832500D01*
X136922000Y-56991250D01*
X136918928Y-57455500D01*
X136931188Y-57579982D01*
X136967498Y-57699680D01*
X137026463Y-57809994D01*
X137105815Y-57906685D01*
X137202506Y-57986037D01*
X137263239Y-58018500D01*
X135175559Y-58018500D01*
X135115299Y-58012565D01*
X135055039Y-58018500D01*
X135055032Y-58018500D01*
X134874766Y-58036255D01*
X134643476Y-58106416D01*
X134430317Y-58220351D01*
X134243483Y-58373683D01*
X134205065Y-58420495D01*
X132943361Y-59682200D01*
X130768595Y-59682200D01*
X130646022Y-59600299D01*
X130377225Y-59488960D01*
X130091872Y-59432200D01*
X129800928Y-59432200D01*
X129515575Y-59488960D01*
X129246778Y-59600299D01*
X129004867Y-59761939D01*
X128799139Y-59967667D01*
X128637499Y-60209578D01*
X128526160Y-60478375D01*
X128469400Y-60763728D01*
X128469400Y-61054672D01*
X128526160Y-61340025D01*
X128637499Y-61608822D01*
X128799139Y-61850733D01*
X129004867Y-62056461D01*
X129246778Y-62218101D01*
X129515575Y-62329440D01*
X129800928Y-62386200D01*
X130091872Y-62386200D01*
X130377225Y-62329440D01*
X130646022Y-62218101D01*
X130768595Y-62136200D01*
X133391340Y-62136200D01*
X133451600Y-62142135D01*
X133511860Y-62136200D01*
X133511868Y-62136200D01*
X133692134Y-62118445D01*
X133923424Y-62048284D01*
X134136583Y-61934349D01*
X134323417Y-61781017D01*
X134361839Y-61734200D01*
X135623540Y-60472500D01*
X137427654Y-60472500D01*
X137215552Y-60684602D01*
X137026553Y-60967459D01*
X136896368Y-61281753D01*
X136830000Y-61615405D01*
X136830000Y-61955595D01*
X136896368Y-62289247D01*
X137026553Y-62603541D01*
X137215552Y-62886398D01*
X137456102Y-63126948D01*
X137738959Y-63315947D01*
X138053253Y-63446132D01*
X138386905Y-63512500D01*
X138548761Y-63512500D01*
X140021665Y-64985405D01*
X140060083Y-65032217D01*
X140246917Y-65185549D01*
X140447242Y-65292624D01*
X140460076Y-65299484D01*
X140691366Y-65369646D01*
X140811846Y-65381511D01*
X140871632Y-65387400D01*
X140871637Y-65387400D01*
X140931900Y-65393335D01*
X140992163Y-65387400D01*
X144791065Y-65387400D01*
X143065996Y-67112469D01*
X143019184Y-67150887D01*
X142865852Y-67337721D01*
X142762873Y-67530383D01*
X142751917Y-67550880D01*
X142681755Y-67782171D01*
X142658065Y-68022704D01*
X142664001Y-68082974D01*
X142664000Y-70119928D01*
X142664000Y-70119940D01*
X142658065Y-70180200D01*
X142664000Y-70240460D01*
X142664000Y-70245870D01*
X142658065Y-70306130D01*
X142660411Y-70329954D01*
X142615203Y-70385041D01*
X142473410Y-70650316D01*
X142386095Y-70938157D01*
X142364000Y-71162490D01*
X142364000Y-71592630D01*
X138375782Y-67604413D01*
X138386210Y-67588806D01*
X138501319Y-67310910D01*
X138560000Y-67015896D01*
X138560000Y-66715104D01*
X138501319Y-66420090D01*
X138386210Y-66142194D01*
X138219099Y-65892094D01*
X138006406Y-65679401D01*
X137756306Y-65512290D01*
X137478410Y-65397181D01*
X137183396Y-65338500D01*
X136882604Y-65338500D01*
X136587590Y-65397181D01*
X136309694Y-65512290D01*
X136059594Y-65679401D01*
X135846901Y-65892094D01*
X135679790Y-66142194D01*
X135564681Y-66420090D01*
X135506000Y-66715104D01*
X135506000Y-67015896D01*
X135564681Y-67310910D01*
X135679790Y-67588806D01*
X135806000Y-67777693D01*
X135806000Y-67936610D01*
X135800065Y-67996870D01*
X135806000Y-68057130D01*
X135806000Y-68057137D01*
X135823755Y-68237403D01*
X135893916Y-68468693D01*
X136007851Y-68681852D01*
X136161183Y-68868687D01*
X136208000Y-68907109D01*
X139598401Y-72297511D01*
X139554482Y-72284188D01*
X139430000Y-72271928D01*
X138715750Y-72275000D01*
X138557000Y-72433750D01*
X138557000Y-73533000D01*
X139906250Y-73533000D01*
X140065000Y-73374250D01*
X140068072Y-72910000D01*
X140055812Y-72785518D01*
X140042489Y-72741599D01*
X142664001Y-75363111D01*
X142664000Y-77467451D01*
X142574446Y-77540946D01*
X142483597Y-77651647D01*
X142416090Y-77777943D01*
X142374520Y-77914983D01*
X142360483Y-78057500D01*
X142360483Y-79799000D01*
X141224240Y-79799000D01*
X140157000Y-78731761D01*
X140157000Y-78569905D01*
X140090632Y-78236253D01*
X139960447Y-77921959D01*
X139771448Y-77639102D01*
X139531636Y-77399290D01*
X139693773Y-77237152D01*
X139871828Y-76970673D01*
X139994475Y-76674578D01*
X140057000Y-76360245D01*
X140057000Y-76039755D01*
X139994475Y-75725422D01*
X139871828Y-75429327D01*
X139693773Y-75162848D01*
X139563885Y-75032960D01*
X139674180Y-74999502D01*
X139784494Y-74940537D01*
X139881185Y-74861185D01*
X139960537Y-74764494D01*
X140019502Y-74654180D01*
X140055812Y-74534482D01*
X140068072Y-74410000D01*
X140065000Y-73945750D01*
X139906250Y-73787000D01*
X138557000Y-73787000D01*
X138557000Y-73807000D01*
X138303000Y-73807000D01*
X138303000Y-73787000D01*
X136953750Y-73787000D01*
X136795000Y-73945750D01*
X136791928Y-74410000D01*
X136804188Y-74534482D01*
X136840498Y-74654180D01*
X136899463Y-74764494D01*
X136978815Y-74861185D01*
X137075506Y-74940537D01*
X137136239Y-74973000D01*
X135382240Y-74973000D01*
X133319240Y-72910000D01*
X136791928Y-72910000D01*
X136795000Y-73374250D01*
X136953750Y-73533000D01*
X138303000Y-73533000D01*
X138303000Y-72433750D01*
X138144250Y-72275000D01*
X137430000Y-72271928D01*
X137305518Y-72284188D01*
X137185820Y-72320498D01*
X137075506Y-72379463D01*
X136978815Y-72458815D01*
X136899463Y-72555506D01*
X136840498Y-72665820D01*
X136804188Y-72785518D01*
X136791928Y-72910000D01*
X133319240Y-72910000D01*
X126455186Y-66045947D01*
X126439040Y-65964775D01*
X126327701Y-65695978D01*
X126166061Y-65454067D01*
X125960333Y-65248339D01*
X125718422Y-65086699D01*
X125449625Y-64975360D01*
X125164272Y-64918600D01*
X124873328Y-64918600D01*
X124587975Y-64975360D01*
X124319178Y-65086699D01*
X124077267Y-65248339D01*
X123871539Y-65454067D01*
X123709899Y-65695978D01*
X123598560Y-65964775D01*
X123541800Y-66250128D01*
X123541800Y-66541072D01*
X123598560Y-66826425D01*
X123709899Y-67095222D01*
X123871539Y-67337133D01*
X124077267Y-67542861D01*
X124319178Y-67704501D01*
X124587975Y-67815840D01*
X124795974Y-67857213D01*
X133963765Y-77025005D01*
X134002183Y-77071817D01*
X134189017Y-77225149D01*
X134402176Y-77339084D01*
X134545596Y-77382590D01*
X134633465Y-77409245D01*
X134657240Y-77411587D01*
X134813732Y-77427000D01*
X134813739Y-77427000D01*
X134873999Y-77432935D01*
X134934259Y-77427000D01*
X137300654Y-77427000D01*
X137088552Y-77639102D01*
X136899553Y-77921959D01*
X136769368Y-78236253D01*
X136703000Y-78569905D01*
X136703000Y-78910095D01*
X136769368Y-79243747D01*
X136899553Y-79558041D01*
X137088552Y-79840898D01*
X137329102Y-80081448D01*
X137611959Y-80270447D01*
X137926253Y-80400632D01*
X138259905Y-80467000D01*
X138421761Y-80467000D01*
X139259261Y-81304501D01*
X135363741Y-81304501D01*
X126179239Y-72120000D01*
X126140817Y-72073183D01*
X126094005Y-72034765D01*
X124780500Y-70721261D01*
X124780500Y-70654490D01*
X124758405Y-70430157D01*
X124671090Y-70142316D01*
X124529297Y-69877040D01*
X124338476Y-69644524D01*
X124105960Y-69453703D01*
X123840685Y-69311910D01*
X123552844Y-69224595D01*
X123253500Y-69195112D01*
X122954157Y-69224595D01*
X122666316Y-69311910D01*
X122401041Y-69453703D01*
X122168524Y-69644524D01*
X121977703Y-69877040D01*
X121928949Y-69968252D01*
X121819173Y-69806838D01*
X121617925Y-69608861D01*
X121381921Y-69453949D01*
X121120230Y-69348056D01*
X121062539Y-69337596D01*
X120840500Y-69459585D01*
X120840500Y-70802500D01*
X120860500Y-70802500D01*
X120860500Y-71056500D01*
X120840500Y-71056500D01*
X120840500Y-72399415D01*
X121062539Y-72521404D01*
X121120230Y-72510944D01*
X121381921Y-72405051D01*
X121617925Y-72250139D01*
X121819173Y-72052162D01*
X121928949Y-71890748D01*
X121977703Y-71981959D01*
X122168524Y-72214476D01*
X122401040Y-72405297D01*
X122666315Y-72547090D01*
X122954156Y-72634405D01*
X123252556Y-72663795D01*
X124042000Y-73453240D01*
X124042001Y-77364082D01*
X123834460Y-77616972D01*
X123675024Y-77915255D01*
X123576844Y-78238910D01*
X123552000Y-78491158D01*
X123552000Y-79246260D01*
X121895906Y-80902355D01*
X121894000Y-79851250D01*
X121735250Y-79692500D01*
X120396000Y-79692500D01*
X120396000Y-82021750D01*
X120554750Y-82180500D01*
X120617487Y-82180774D01*
X119633761Y-83164500D01*
X111528593Y-83164500D01*
X111468333Y-83158565D01*
X111408073Y-83164500D01*
X111408066Y-83164500D01*
X111227800Y-83182255D01*
X110996510Y-83252416D01*
X110803152Y-83355767D01*
X110893220Y-83178855D01*
X111007244Y-82774049D01*
X111040102Y-82354776D01*
X110990534Y-81937149D01*
X110863138Y-81545500D01*
X118640928Y-81545500D01*
X118653188Y-81669982D01*
X118689498Y-81789680D01*
X118748463Y-81899994D01*
X118827815Y-81996685D01*
X118924506Y-82076037D01*
X119034820Y-82135002D01*
X119154518Y-82171312D01*
X119279000Y-82183572D01*
X119983250Y-82180500D01*
X120142000Y-82021750D01*
X120142000Y-79692500D01*
X118802750Y-79692500D01*
X118644000Y-79851250D01*
X118640928Y-81545500D01*
X110863138Y-81545500D01*
X110860443Y-81537217D01*
X110702414Y-81241562D01*
X110386853Y-81085552D01*
X109074805Y-82397600D01*
X109088948Y-82411743D01*
X108909343Y-82591348D01*
X108895200Y-82577205D01*
X107583152Y-83889253D01*
X107739162Y-84204814D01*
X108113945Y-84395620D01*
X108518751Y-84509644D01*
X108938024Y-84542502D01*
X109355651Y-84492934D01*
X109755583Y-84362843D01*
X109768834Y-84355760D01*
X108512075Y-85612520D01*
X85696760Y-85612520D01*
X82217996Y-82133757D01*
X82294019Y-82165383D01*
X82348600Y-82174410D01*
X82551000Y-82050724D01*
X82551000Y-80708500D01*
X82531000Y-80708500D01*
X82531000Y-80454500D01*
X82551000Y-80454500D01*
X82551000Y-79112276D01*
X82348600Y-78988590D01*
X82294019Y-78997617D01*
X82055801Y-79096717D01*
X81959501Y-79161276D01*
X81959501Y-76547443D01*
X83451001Y-78038944D01*
X83451000Y-79197813D01*
X83300199Y-79096717D01*
X83061981Y-78997617D01*
X83007400Y-78988590D01*
X82805000Y-79112276D01*
X82805000Y-80454500D01*
X82825000Y-80454500D01*
X82825000Y-80708500D01*
X82805000Y-80708500D01*
X82805000Y-82050724D01*
X83007400Y-82174410D01*
X83061981Y-82165383D01*
X83300199Y-82066283D01*
X83514506Y-81922613D01*
X83615269Y-81821542D01*
X83681840Y-81902659D01*
X83895322Y-82077860D01*
X84138882Y-82208046D01*
X84403160Y-82288214D01*
X84678000Y-82315283D01*
X84952839Y-82288214D01*
X85217117Y-82208046D01*
X85460677Y-82077860D01*
X85674159Y-81902660D01*
X85678000Y-81897980D01*
X85681840Y-81902659D01*
X85895322Y-82077860D01*
X86138882Y-82208046D01*
X86403160Y-82288214D01*
X86678000Y-82315283D01*
X86952839Y-82288214D01*
X87217117Y-82208046D01*
X87460677Y-82077860D01*
X87674159Y-81902660D01*
X87678000Y-81897980D01*
X87681840Y-81902659D01*
X87895322Y-82077860D01*
X88138882Y-82208046D01*
X88403160Y-82288214D01*
X88678000Y-82315283D01*
X88952839Y-82288214D01*
X89217117Y-82208046D01*
X89460677Y-82077860D01*
X89466172Y-82073350D01*
X89486446Y-82098054D01*
X89597147Y-82188903D01*
X89723443Y-82256410D01*
X89860483Y-82297980D01*
X90003000Y-82312017D01*
X91353000Y-82312017D01*
X91495517Y-82297980D01*
X91632557Y-82256410D01*
X91758853Y-82188903D01*
X91869554Y-82098054D01*
X91960403Y-81987353D01*
X92027910Y-81861057D01*
X92069480Y-81724017D01*
X92083517Y-81581500D01*
X92083517Y-79581500D01*
X92069480Y-79438983D01*
X92027910Y-79301943D01*
X91960403Y-79175647D01*
X91905000Y-79108138D01*
X91905000Y-77226960D01*
X91910935Y-77166700D01*
X91905000Y-77106440D01*
X91905000Y-77106433D01*
X91887245Y-76926167D01*
X91817084Y-76694877D01*
X91703149Y-76481718D01*
X91549817Y-76294884D01*
X91503005Y-76256466D01*
X90539939Y-75293400D01*
X92455761Y-75293400D01*
X99064683Y-81902323D01*
X99064683Y-83897600D01*
X99078720Y-84040117D01*
X99120290Y-84177157D01*
X99187797Y-84303453D01*
X99278646Y-84414154D01*
X99389347Y-84505003D01*
X99515643Y-84572510D01*
X99652683Y-84614080D01*
X99795200Y-84628117D01*
X102795200Y-84628117D01*
X102937717Y-84614080D01*
X103074757Y-84572510D01*
X103201053Y-84505003D01*
X103311754Y-84414154D01*
X103402603Y-84303453D01*
X103470110Y-84177157D01*
X103511680Y-84040117D01*
X103525717Y-83897600D01*
X103525717Y-82440424D01*
X106750298Y-82440424D01*
X106799866Y-82858051D01*
X106929957Y-83257983D01*
X107087986Y-83553638D01*
X107403547Y-83709648D01*
X108715595Y-82397600D01*
X107403547Y-81085552D01*
X107087986Y-81241562D01*
X106897180Y-81616345D01*
X106783156Y-82021151D01*
X106750298Y-82440424D01*
X103525717Y-82440424D01*
X103525717Y-80905947D01*
X107583152Y-80905947D01*
X108895200Y-82217995D01*
X110207248Y-80905947D01*
X110051238Y-80590386D01*
X109676455Y-80399580D01*
X109271649Y-80285556D01*
X108852376Y-80252698D01*
X108434749Y-80302266D01*
X108034817Y-80432357D01*
X107739162Y-80590386D01*
X107583152Y-80905947D01*
X103525717Y-80905947D01*
X103525717Y-80897600D01*
X103511680Y-80755083D01*
X103470110Y-80618043D01*
X103402603Y-80491747D01*
X103311754Y-80381046D01*
X103201053Y-80290197D01*
X103074757Y-80222690D01*
X102937717Y-80181120D01*
X102795200Y-80167083D01*
X100799923Y-80167083D01*
X98218340Y-77585500D01*
X118640928Y-77585500D01*
X118644000Y-79279750D01*
X118802750Y-79438500D01*
X120142000Y-79438500D01*
X120142000Y-77109250D01*
X120396000Y-77109250D01*
X120396000Y-79438500D01*
X121735250Y-79438500D01*
X121894000Y-79279750D01*
X121897072Y-77585500D01*
X121884812Y-77461018D01*
X121848502Y-77341320D01*
X121789537Y-77231006D01*
X121710185Y-77134315D01*
X121613494Y-77054963D01*
X121503180Y-76995998D01*
X121383482Y-76959688D01*
X121259000Y-76947428D01*
X120554750Y-76950500D01*
X120396000Y-77109250D01*
X120142000Y-77109250D01*
X119983250Y-76950500D01*
X119279000Y-76947428D01*
X119154518Y-76959688D01*
X119034820Y-76995998D01*
X118924506Y-77054963D01*
X118827815Y-77134315D01*
X118748463Y-77231006D01*
X118689498Y-77341320D01*
X118653188Y-77461018D01*
X118640928Y-77585500D01*
X98218340Y-77585500D01*
X93874239Y-73241400D01*
X93835817Y-73194583D01*
X93648983Y-73041251D01*
X93435824Y-72927316D01*
X93204534Y-72857155D01*
X93024268Y-72839400D01*
X93024260Y-72839400D01*
X92964000Y-72833465D01*
X92903740Y-72839400D01*
X90271840Y-72839400D01*
X90081341Y-72648902D01*
X90233500Y-72663888D01*
X90532843Y-72634405D01*
X90820684Y-72547090D01*
X91085959Y-72405297D01*
X91318476Y-72214476D01*
X91503500Y-71989023D01*
X91688524Y-72214476D01*
X91921040Y-72405297D01*
X92186315Y-72547090D01*
X92474156Y-72634405D01*
X92773500Y-72663888D01*
X93072843Y-72634405D01*
X93360684Y-72547090D01*
X93625959Y-72405297D01*
X93858476Y-72214476D01*
X94043500Y-71989023D01*
X94228524Y-72214476D01*
X94461040Y-72405297D01*
X94726315Y-72547090D01*
X95014156Y-72634405D01*
X95313500Y-72663888D01*
X95612843Y-72634405D01*
X95900684Y-72547090D01*
X96165959Y-72405297D01*
X96398476Y-72214476D01*
X96583500Y-71989023D01*
X96768524Y-72214476D01*
X97001040Y-72405297D01*
X97266315Y-72547090D01*
X97554156Y-72634405D01*
X97853500Y-72663888D01*
X98152843Y-72634405D01*
X98440684Y-72547090D01*
X98705959Y-72405297D01*
X98938476Y-72214476D01*
X99123500Y-71989023D01*
X99308524Y-72214476D01*
X99541040Y-72405297D01*
X99806315Y-72547090D01*
X100094156Y-72634405D01*
X100393500Y-72663888D01*
X100692843Y-72634405D01*
X100980684Y-72547090D01*
X101245959Y-72405297D01*
X101478476Y-72214476D01*
X101663500Y-71989023D01*
X101848524Y-72214476D01*
X102081040Y-72405297D01*
X102346315Y-72547090D01*
X102634156Y-72634405D01*
X102933500Y-72663888D01*
X103232843Y-72634405D01*
X103520684Y-72547090D01*
X103785959Y-72405297D01*
X104018476Y-72214476D01*
X104203500Y-71989023D01*
X104388524Y-72214476D01*
X104621040Y-72405297D01*
X104886315Y-72547090D01*
X105174156Y-72634405D01*
X105473500Y-72663888D01*
X105772843Y-72634405D01*
X106060684Y-72547090D01*
X106325959Y-72405297D01*
X106558476Y-72214476D01*
X106743500Y-71989023D01*
X106928524Y-72214476D01*
X107161040Y-72405297D01*
X107426315Y-72547090D01*
X107714156Y-72634405D01*
X108013500Y-72663888D01*
X108312843Y-72634405D01*
X108600684Y-72547090D01*
X108865959Y-72405297D01*
X109098476Y-72214476D01*
X109283500Y-71989023D01*
X109468524Y-72214476D01*
X109701040Y-72405297D01*
X109966315Y-72547090D01*
X110254156Y-72634405D01*
X110553500Y-72663888D01*
X110852843Y-72634405D01*
X111140684Y-72547090D01*
X111405959Y-72405297D01*
X111638476Y-72214476D01*
X111823500Y-71989023D01*
X112008524Y-72214476D01*
X112241040Y-72405297D01*
X112506315Y-72547090D01*
X112794156Y-72634405D01*
X113093500Y-72663888D01*
X113392843Y-72634405D01*
X113680684Y-72547090D01*
X113945959Y-72405297D01*
X114178476Y-72214476D01*
X114363500Y-71989023D01*
X114548524Y-72214476D01*
X114781040Y-72405297D01*
X115046315Y-72547090D01*
X115334156Y-72634405D01*
X115633500Y-72663888D01*
X115932843Y-72634405D01*
X116220684Y-72547090D01*
X116485959Y-72405297D01*
X116718476Y-72214476D01*
X116903500Y-71989023D01*
X117088524Y-72214476D01*
X117321040Y-72405297D01*
X117586315Y-72547090D01*
X117874156Y-72634405D01*
X118173500Y-72663888D01*
X118472843Y-72634405D01*
X118760684Y-72547090D01*
X119025959Y-72405297D01*
X119258476Y-72214476D01*
X119449297Y-71981960D01*
X119498051Y-71890748D01*
X119607827Y-72052162D01*
X119809075Y-72250139D01*
X120045079Y-72405051D01*
X120306770Y-72510944D01*
X120364461Y-72521404D01*
X120586500Y-72399415D01*
X120586500Y-71056500D01*
X120566500Y-71056500D01*
X120566500Y-70802500D01*
X120586500Y-70802500D01*
X120586500Y-69459585D01*
X120364461Y-69337596D01*
X120306770Y-69348056D01*
X120045079Y-69453949D01*
X119809075Y-69608861D01*
X119607827Y-69806838D01*
X119498051Y-69968252D01*
X119449297Y-69877040D01*
X119258476Y-69644524D01*
X119025960Y-69453703D01*
X118760685Y-69311910D01*
X118472844Y-69224595D01*
X118173500Y-69195112D01*
X117874157Y-69224595D01*
X117586316Y-69311910D01*
X117321041Y-69453703D01*
X117088524Y-69644524D01*
X116903500Y-69869976D01*
X116718476Y-69644524D01*
X116511871Y-69474968D01*
X116876973Y-69109867D01*
X116953916Y-69068740D01*
X117093938Y-68953827D01*
X121451677Y-64596089D01*
X122273280Y-64596089D01*
X122333540Y-64602024D01*
X122393800Y-64596089D01*
X122393808Y-64596089D01*
X122574074Y-64578334D01*
X122805364Y-64508173D01*
X123018523Y-64394238D01*
X123205357Y-64240906D01*
X123243779Y-64194089D01*
X127367805Y-60070064D01*
X127414617Y-60031646D01*
X127567949Y-59844812D01*
X127681884Y-59631653D01*
X127691395Y-59600299D01*
X127752046Y-59400363D01*
X127767298Y-59245500D01*
X127769800Y-59220097D01*
X127769800Y-59220092D01*
X127775735Y-59159829D01*
X127769800Y-59099566D01*
X127769800Y-55955500D01*
X136918928Y-55955500D01*
X136922000Y-56419750D01*
X137080750Y-56578500D01*
X138430000Y-56578500D01*
X138430000Y-55479250D01*
X138271250Y-55320500D01*
X137557000Y-55317428D01*
X137432518Y-55329688D01*
X137312820Y-55365998D01*
X137202506Y-55424963D01*
X137105815Y-55504315D01*
X137026463Y-55601006D01*
X136967498Y-55711320D01*
X136931188Y-55831018D01*
X136918928Y-55955500D01*
X127769800Y-55955500D01*
X127769800Y-40017000D01*
X137172928Y-40017000D01*
X137176000Y-40481250D01*
X137334750Y-40640000D01*
X138684000Y-40640000D01*
X138684000Y-39540750D01*
X138525250Y-39382000D01*
X137811000Y-39378928D01*
X137686518Y-39391188D01*
X137566820Y-39427498D01*
X137456506Y-39486463D01*
X137359815Y-39565815D01*
X137280463Y-39662506D01*
X137221498Y-39772820D01*
X137185188Y-39892518D01*
X137172928Y-40017000D01*
X127769800Y-40017000D01*
X127769800Y-32613839D01*
X132264640Y-28119000D01*
X132409225Y-28090240D01*
X132678022Y-27978901D01*
X132919933Y-27817261D01*
X133125661Y-27611533D01*
X133287301Y-27369622D01*
X133398640Y-27100825D01*
X133455400Y-26815472D01*
X133455400Y-26524528D01*
X133398640Y-26239175D01*
X133287301Y-25970378D01*
X133125661Y-25728467D01*
X132919933Y-25522739D01*
X132678022Y-25361099D01*
X132409225Y-25249760D01*
X132123872Y-25193000D01*
X131832928Y-25193000D01*
X131547575Y-25249760D01*
X131278778Y-25361099D01*
X131036867Y-25522739D01*
X130831139Y-25728467D01*
X130669499Y-25970378D01*
X130558160Y-26239175D01*
X130529400Y-26383760D01*
X125717800Y-31195361D01*
X125670983Y-31233783D01*
X125517651Y-31420618D01*
X125403716Y-31633777D01*
X125333555Y-31865067D01*
X125315800Y-32045333D01*
X125315800Y-32045340D01*
X125309865Y-32105600D01*
X125315800Y-32165860D01*
X125315800Y-41885403D01*
X125037272Y-41830000D01*
X124746328Y-41830000D01*
X124460975Y-41886760D01*
X124192178Y-41998099D01*
X123950267Y-42159739D01*
X123744539Y-42365467D01*
X123582899Y-42607378D01*
X123471560Y-42876175D01*
X123414800Y-43161528D01*
X123414800Y-43452472D01*
X123471560Y-43737825D01*
X123582899Y-44006622D01*
X123664800Y-44129195D01*
X123664801Y-52663668D01*
X123682556Y-52843934D01*
X123752717Y-53075224D01*
X123866652Y-53288383D01*
X124019984Y-53475217D01*
X124042600Y-53493778D01*
X124042600Y-53958983D01*
X122453500Y-53958983D01*
X122310983Y-53973020D01*
X122173943Y-54014590D01*
X122047647Y-54082097D01*
X121936946Y-54172946D01*
X121846097Y-54283647D01*
X121786667Y-54394832D01*
X121565960Y-54213703D01*
X121300685Y-54071910D01*
X121012844Y-53984595D01*
X120713500Y-53955112D01*
X120414157Y-53984595D01*
X120126316Y-54071910D01*
X119861041Y-54213703D01*
X119628524Y-54404524D01*
X119443500Y-54629976D01*
X119258476Y-54404524D01*
X119025960Y-54213703D01*
X118760685Y-54071910D01*
X118472844Y-53984595D01*
X118173500Y-53955112D01*
X117874157Y-53984595D01*
X117586316Y-54071910D01*
X117321041Y-54213703D01*
X117088524Y-54404524D01*
X116897703Y-54637040D01*
X116848949Y-54728252D01*
X116739173Y-54566838D01*
X116537925Y-54368861D01*
X116301921Y-54213949D01*
X116040230Y-54108056D01*
X115982539Y-54097596D01*
X115760500Y-54219585D01*
X115760500Y-55562500D01*
X115780500Y-55562500D01*
X115780500Y-55816500D01*
X115760500Y-55816500D01*
X115760500Y-57159415D01*
X115982539Y-57281404D01*
X116040230Y-57270944D01*
X116301921Y-57165051D01*
X116537925Y-57010139D01*
X116739173Y-56812162D01*
X116848949Y-56650748D01*
X116897703Y-56741959D01*
X117088524Y-56974476D01*
X117321040Y-57165297D01*
X117586315Y-57307090D01*
X117874156Y-57394405D01*
X118173500Y-57423888D01*
X118472843Y-57394405D01*
X118760684Y-57307090D01*
X119025959Y-57165297D01*
X119258476Y-56974476D01*
X119443500Y-56749023D01*
X119628524Y-56974476D01*
X119861040Y-57165297D01*
X120126315Y-57307090D01*
X120414156Y-57394405D01*
X120713500Y-57423888D01*
X121012843Y-57394405D01*
X121300684Y-57307090D01*
X121565959Y-57165297D01*
X121786667Y-56984168D01*
X121846097Y-57095353D01*
X121936946Y-57206054D01*
X122047647Y-57296903D01*
X122173943Y-57364410D01*
X122310983Y-57405980D01*
X122453500Y-57420017D01*
X123616421Y-57420017D01*
X123555555Y-57620667D01*
X123537800Y-57800933D01*
X123537800Y-58449675D01*
X122299089Y-59688386D01*
X122270537Y-59619455D01*
X122108897Y-59377544D01*
X121903169Y-59171816D01*
X121661258Y-59010176D01*
X121392461Y-58898837D01*
X121107108Y-58842077D01*
X120816164Y-58842077D01*
X120530811Y-58898837D01*
X120262014Y-59010176D01*
X120139441Y-59092077D01*
X108071317Y-59092077D01*
X106207731Y-57228491D01*
X106325959Y-57165297D01*
X106558476Y-56974476D01*
X106743500Y-56749023D01*
X106928524Y-56974476D01*
X107161040Y-57165297D01*
X107426315Y-57307090D01*
X107714156Y-57394405D01*
X108013500Y-57423888D01*
X108312843Y-57394405D01*
X108600684Y-57307090D01*
X108865959Y-57165297D01*
X109098476Y-56974476D01*
X109283500Y-56749023D01*
X109468524Y-56974476D01*
X109701040Y-57165297D01*
X109966315Y-57307090D01*
X110254156Y-57394405D01*
X110553500Y-57423888D01*
X110852843Y-57394405D01*
X111140684Y-57307090D01*
X111405959Y-57165297D01*
X111638476Y-56974476D01*
X111823500Y-56749023D01*
X112008524Y-56974476D01*
X112241040Y-57165297D01*
X112506315Y-57307090D01*
X112794156Y-57394405D01*
X113093500Y-57423888D01*
X113392843Y-57394405D01*
X113680684Y-57307090D01*
X113945959Y-57165297D01*
X114178476Y-56974476D01*
X114369297Y-56741960D01*
X114418051Y-56650748D01*
X114527827Y-56812162D01*
X114729075Y-57010139D01*
X114965079Y-57165051D01*
X115226770Y-57270944D01*
X115284461Y-57281404D01*
X115506500Y-57159415D01*
X115506500Y-55816500D01*
X115486500Y-55816500D01*
X115486500Y-55562500D01*
X115506500Y-55562500D01*
X115506500Y-54219585D01*
X115284461Y-54097596D01*
X115226770Y-54108056D01*
X114965079Y-54213949D01*
X114729075Y-54368861D01*
X114527827Y-54566838D01*
X114418051Y-54728252D01*
X114369297Y-54637040D01*
X114320500Y-54577581D01*
X114320500Y-46528257D01*
X114326435Y-46467997D01*
X114320500Y-46407737D01*
X114320500Y-46407730D01*
X114302745Y-46227464D01*
X114232584Y-45996174D01*
X114118649Y-45783015D01*
X113965317Y-45596181D01*
X113918506Y-45557764D01*
X111590000Y-43229259D01*
X111590000Y-41028553D01*
X111595935Y-40968290D01*
X111572246Y-40727756D01*
X111502084Y-40496466D01*
X111493951Y-40481250D01*
X111388149Y-40283307D01*
X111234817Y-40096473D01*
X111188006Y-40058056D01*
X108842500Y-37712551D01*
X108842500Y-34128263D01*
X108930233Y-34215996D01*
X109240933Y-34423600D01*
X109586165Y-34566600D01*
X109952662Y-34639500D01*
X110326338Y-34639500D01*
X110692835Y-34566600D01*
X111038067Y-34423600D01*
X111348767Y-34215996D01*
X111612996Y-33951767D01*
X111820600Y-33641067D01*
X111963600Y-33295835D01*
X112036500Y-32929338D01*
X112036500Y-32580739D01*
X113379506Y-31237734D01*
X113426317Y-31199317D01*
X113579649Y-31012483D01*
X113693584Y-30799324D01*
X113711444Y-30740447D01*
X113763746Y-30568034D01*
X113775611Y-30447554D01*
X113781500Y-30387768D01*
X113781500Y-30387763D01*
X113787435Y-30327500D01*
X113781500Y-30267237D01*
X113781500Y-23380000D01*
X137109428Y-23380000D01*
X137112500Y-23844250D01*
X137271250Y-24003000D01*
X138620500Y-24003000D01*
X138620500Y-22903750D01*
X138461750Y-22745000D01*
X137747500Y-22741928D01*
X137623018Y-22754188D01*
X137503320Y-22790498D01*
X137393006Y-22849463D01*
X137296315Y-22928815D01*
X137216963Y-23025506D01*
X137157998Y-23135820D01*
X137121688Y-23255518D01*
X137109428Y-23380000D01*
X113781500Y-23380000D01*
X113781500Y-19884550D01*
X113881693Y-19762465D01*
X113888752Y-19773396D01*
X114098894Y-19990210D01*
X114347296Y-20161862D01*
X114624413Y-20281755D01*
X114729760Y-20306036D01*
X114967500Y-20185378D01*
X114967500Y-18542000D01*
X115221500Y-18542000D01*
X115221500Y-20185378D01*
X115459240Y-20306036D01*
X115564587Y-20281755D01*
X115841704Y-20161862D01*
X116090106Y-19990210D01*
X116300248Y-19773396D01*
X116464054Y-19519751D01*
X116575229Y-19239023D01*
X116629500Y-18942000D01*
X116629500Y-18542000D01*
X115221500Y-18542000D01*
X114967500Y-18542000D01*
X114947500Y-18542000D01*
X114947500Y-18288000D01*
X114967500Y-18288000D01*
X114967500Y-16644622D01*
X115221500Y-16644622D01*
X115221500Y-18288000D01*
X116629500Y-18288000D01*
X116629500Y-17888000D01*
X116575229Y-17590977D01*
X116464054Y-17310249D01*
X116300248Y-17056604D01*
X116090106Y-16839790D01*
X115841704Y-16668138D01*
X115564587Y-16548245D01*
X115459240Y-16523964D01*
X115221500Y-16644622D01*
X114967500Y-16644622D01*
X114729760Y-16523964D01*
X114624413Y-16548245D01*
X114347296Y-16668138D01*
X114098894Y-16839790D01*
X113888752Y-17056604D01*
X113881693Y-17067535D01*
X113710529Y-16858971D01*
X113462785Y-16655654D01*
X113180137Y-16504575D01*
X112873447Y-16411542D01*
X112554500Y-16380128D01*
X112235552Y-16411542D01*
X111928862Y-16504575D01*
X111646214Y-16655654D01*
X111398471Y-16858971D01*
X111284500Y-16997846D01*
X111170529Y-16858971D01*
X110922785Y-16655654D01*
X110640137Y-16504575D01*
X110333447Y-16411542D01*
X110014500Y-16380128D01*
X109695552Y-16411542D01*
X109388862Y-16504575D01*
X109106214Y-16655654D01*
X108858471Y-16858971D01*
X108744500Y-16997846D01*
X108630529Y-16858971D01*
X108382785Y-16655654D01*
X108100137Y-16504575D01*
X107793447Y-16411542D01*
X107474500Y-16380128D01*
X107155552Y-16411542D01*
X106848862Y-16504575D01*
X106566214Y-16655654D01*
X106318471Y-16858971D01*
X106204500Y-16997846D01*
X106090529Y-16858971D01*
X105842785Y-16655654D01*
X105560137Y-16504575D01*
X105253447Y-16411542D01*
X104934500Y-16380128D01*
X104615552Y-16411542D01*
X104308862Y-16504575D01*
X104026214Y-16655654D01*
X103778471Y-16858971D01*
X103664500Y-16997846D01*
X103550529Y-16858971D01*
X103302785Y-16655654D01*
X103020137Y-16504575D01*
X102713447Y-16411542D01*
X102394500Y-16380128D01*
X102075552Y-16411542D01*
X101768862Y-16504575D01*
X101486214Y-16655654D01*
X101238471Y-16858971D01*
X101124500Y-16997846D01*
X101010529Y-16858971D01*
X100762785Y-16655654D01*
X100480137Y-16504575D01*
X100173447Y-16411542D01*
X99854500Y-16380128D01*
X99535552Y-16411542D01*
X99228862Y-16504575D01*
X98946214Y-16655654D01*
X98698471Y-16858971D01*
X98584500Y-16997846D01*
X98470529Y-16858971D01*
X98222785Y-16655654D01*
X97940137Y-16504575D01*
X97633447Y-16411542D01*
X97314500Y-16380128D01*
X96995552Y-16411542D01*
X96688862Y-16504575D01*
X96406214Y-16655654D01*
X96158471Y-16858971D01*
X96044500Y-16997846D01*
X95930529Y-16858971D01*
X95682785Y-16655654D01*
X95400137Y-16504575D01*
X95093447Y-16411542D01*
X94774500Y-16380128D01*
X94455552Y-16411542D01*
X94148862Y-16504575D01*
X93866214Y-16655654D01*
X93618471Y-16858971D01*
X93504500Y-16997846D01*
X93390529Y-16858971D01*
X93142785Y-16655654D01*
X92860137Y-16504575D01*
X92553447Y-16411542D01*
X92234500Y-16380128D01*
X91915552Y-16411542D01*
X91608862Y-16504575D01*
X91326214Y-16655654D01*
X91078471Y-16858971D01*
X90964500Y-16997846D01*
X90850529Y-16858971D01*
X90602785Y-16655654D01*
X90320137Y-16504575D01*
X90013447Y-16411542D01*
X89694500Y-16380128D01*
X89375552Y-16411542D01*
X89068862Y-16504575D01*
X88786214Y-16655654D01*
X88538471Y-16858971D01*
X88367308Y-17067535D01*
X88360248Y-17056604D01*
X88150106Y-16839790D01*
X87901704Y-16668138D01*
X87624587Y-16548245D01*
X87519240Y-16523964D01*
X87281500Y-16644622D01*
X87281500Y-18288000D01*
X87301500Y-18288000D01*
X87301500Y-18542000D01*
X87281500Y-18542000D01*
X87281500Y-20185378D01*
X87519240Y-20306036D01*
X87624587Y-20281755D01*
X87901704Y-20161862D01*
X88150106Y-19990210D01*
X88360248Y-19773396D01*
X88367307Y-19762465D01*
X88538472Y-19971029D01*
X88786215Y-20174346D01*
X89006501Y-20292092D01*
X89006500Y-54577581D01*
X88963500Y-54629976D01*
X88778476Y-54404524D01*
X88545960Y-54213703D01*
X88280685Y-54071910D01*
X87992844Y-53984595D01*
X87694445Y-53955205D01*
X85841500Y-52102261D01*
X85841500Y-19884550D01*
X85941693Y-19762465D01*
X85948752Y-19773396D01*
X86158894Y-19990210D01*
X86407296Y-20161862D01*
X86684413Y-20281755D01*
X86789760Y-20306036D01*
X87027500Y-20185378D01*
X87027500Y-18542000D01*
X87007500Y-18542000D01*
X87007500Y-18288000D01*
X87027500Y-18288000D01*
X87027500Y-16644622D01*
X86789760Y-16523964D01*
X86684413Y-16548245D01*
X86407296Y-16668138D01*
X86158894Y-16839790D01*
X85948752Y-17056604D01*
X85941693Y-17067535D01*
X85770529Y-16858971D01*
X85522785Y-16655654D01*
X85240137Y-16504575D01*
X84933447Y-16411542D01*
X84614500Y-16380128D01*
X84295552Y-16411542D01*
X83988862Y-16504575D01*
X83706214Y-16655654D01*
X83458471Y-16858971D01*
X83287308Y-17067535D01*
X83280248Y-17056604D01*
X83070106Y-16839790D01*
X82821704Y-16668138D01*
X82544587Y-16548245D01*
X82439240Y-16523964D01*
X82201500Y-16644622D01*
X82201500Y-18288000D01*
X82221500Y-18288000D01*
X82221500Y-18542000D01*
X82201500Y-18542000D01*
X82201500Y-20185378D01*
X82439240Y-20306036D01*
X82544587Y-20281755D01*
X82821704Y-20161862D01*
X83070106Y-19990210D01*
X83280248Y-19773396D01*
X83287307Y-19762465D01*
X83387501Y-19884551D01*
X83387500Y-52550240D01*
X83381565Y-52610500D01*
X83387500Y-52670760D01*
X83387500Y-52670767D01*
X83405255Y-52851033D01*
X83475416Y-53082323D01*
X83589351Y-53295482D01*
X83742683Y-53482317D01*
X83789500Y-53520739D01*
X86166500Y-55897740D01*
X86166500Y-55964510D01*
X86188595Y-56188843D01*
X86275910Y-56476684D01*
X86417703Y-56741959D01*
X86608524Y-56974476D01*
X86841040Y-57165297D01*
X87106315Y-57307090D01*
X87394156Y-57394405D01*
X87693500Y-57423888D01*
X87992843Y-57394405D01*
X88280684Y-57307090D01*
X88545959Y-57165297D01*
X88778476Y-56974476D01*
X88963500Y-56749023D01*
X89148524Y-56974476D01*
X89381040Y-57165297D01*
X89646315Y-57307090D01*
X89934156Y-57394405D01*
X90233500Y-57423888D01*
X90532843Y-57394405D01*
X90820684Y-57307090D01*
X91085959Y-57165297D01*
X91318476Y-56974476D01*
X91503500Y-56749023D01*
X91546500Y-56801419D01*
X91546500Y-57661239D01*
X91540565Y-57721500D01*
X91546500Y-57781760D01*
X91546500Y-57781767D01*
X91564255Y-57962033D01*
X91634416Y-58193323D01*
X91748351Y-58406482D01*
X91901683Y-58593317D01*
X91948500Y-58631739D01*
X94086501Y-60769741D01*
X94086500Y-62356760D01*
X92026781Y-64416480D01*
X86133113Y-64416480D01*
X86072850Y-64410545D01*
X86012587Y-64416480D01*
X86012582Y-64416480D01*
X85952796Y-64422369D01*
X85832316Y-64434234D01*
X85601026Y-64504396D01*
X85387867Y-64618331D01*
X85201033Y-64771663D01*
X85162615Y-64818475D01*
X82620471Y-67360620D01*
X82620471Y-51318288D01*
X82626406Y-51258028D01*
X82620471Y-51197768D01*
X82620471Y-51197761D01*
X82602716Y-51017495D01*
X82532555Y-50786205D01*
X82418620Y-50573046D01*
X82265288Y-50386212D01*
X82218476Y-50347794D01*
X80761500Y-48890819D01*
X80761500Y-26563500D01*
X80965805Y-26563500D01*
X81088378Y-26645401D01*
X81357175Y-26756740D01*
X81642528Y-26813500D01*
X81933472Y-26813500D01*
X82218825Y-26756740D01*
X82487622Y-26645401D01*
X82729533Y-26483761D01*
X82935261Y-26278033D01*
X83096901Y-26036122D01*
X83208240Y-25767325D01*
X83265000Y-25481972D01*
X83265000Y-25191028D01*
X83208240Y-24905675D01*
X83096901Y-24636878D01*
X82935261Y-24394967D01*
X82729533Y-24189239D01*
X82487622Y-24027599D01*
X82218825Y-23916260D01*
X81933472Y-23859500D01*
X81642528Y-23859500D01*
X81357175Y-23916260D01*
X81088378Y-24027599D01*
X80965805Y-24109500D01*
X80761500Y-24109500D01*
X80761500Y-19884550D01*
X80861693Y-19762465D01*
X80868752Y-19773396D01*
X81078894Y-19990210D01*
X81327296Y-20161862D01*
X81604413Y-20281755D01*
X81709760Y-20306036D01*
X81947500Y-20185378D01*
X81947500Y-18542000D01*
X81927500Y-18542000D01*
X81927500Y-18288000D01*
X81947500Y-18288000D01*
X81947500Y-16644622D01*
X81709760Y-16523964D01*
X81604413Y-16548245D01*
X81327296Y-16668138D01*
X81078894Y-16839790D01*
X80868752Y-17056604D01*
X80861693Y-17067535D01*
X80690529Y-16858971D01*
X80442785Y-16655654D01*
X80160137Y-16504575D01*
X79853447Y-16411542D01*
X79534500Y-16380128D01*
X79215552Y-16411542D01*
X78908862Y-16504575D01*
X78626214Y-16655654D01*
X78447422Y-16802385D01*
X78425037Y-16760506D01*
X78345685Y-16663815D01*
X78248994Y-16584463D01*
X78138680Y-16525498D01*
X78018982Y-16489188D01*
X77894500Y-16476928D01*
X77280250Y-16480000D01*
X77121500Y-16638750D01*
X76867500Y-16638750D01*
X76708750Y-16480000D01*
X76094500Y-16476928D01*
X75970018Y-16489188D01*
X75850320Y-16525498D01*
X75740006Y-16584463D01*
X75643315Y-16663815D01*
X75563963Y-16760506D01*
X75504998Y-16870820D01*
X75468688Y-16990518D01*
X75456428Y-17115000D01*
X73305159Y-17115000D01*
X73225224Y-16995370D01*
X72915030Y-16685176D01*
X72550280Y-16441458D01*
X72144992Y-16273582D01*
X71714740Y-16188000D01*
X71276060Y-16188000D01*
X70845808Y-16273582D01*
X70440520Y-16441458D01*
X70075770Y-16685176D01*
X69765576Y-16995370D01*
X69521858Y-17360120D01*
X69353982Y-17765408D01*
X69268400Y-18195660D01*
X68227271Y-18195660D01*
X68216406Y-14113353D01*
X187264288Y-14263857D01*
%TD*%
M02*
